	<svg
		xmlns="http://www.w3.org/2000/svg"
		width="189"
		height="32"
		fill="none"
		view-box="0 0 189 32"
	>
		<path
			fill="#111"
			d="M152.82 14.049h-2.498v6.634h-1.093v-6.634h-2.497v-.859h6.088v.859zm9.912-.859v7.493h-1.093v-3.434h-4.449v3.434h-1.092V13.19h1.092v3.356h4.449V13.19h1.093zm4.683 7.493h-.937V13.19h.937v7.493zm10.302-7.493v7.493H177.015c-.078-.078-.156-.078-.235-.156l-4.682-5.698v5.854h-.937V13.19h.78l.079.078.078.078 4.682 5.698v-.312-5.542h.937zm10.381 3.903v2.81c-.391.312-.859.468-1.327.624-.469.078-.937.156-1.483.156-.625 0-1.249-.078-1.717-.234-.547-.234-1.015-.469-1.405-.78a4.549 4.549 0 01-.859-1.171 5.036 5.036 0 01-.234-1.561c0-.547.078-1.093.234-1.561.234-.469.469-.859.859-1.171.312-.312.78-.546 1.327-.78.468-.157 1.014-.235 1.639-.235.39 0 .624 0 .936.078.234 0 .547.078.781.156.234.078.39.157.624.313.156.078.39.234.547.39l-.313.468c-.078 0-.078.078-.156.078h-.312a1.077 1.077 0 00-.312-.234c-.078-.078-.234-.078-.39-.156a1.478 1.478 0 00-.625-.156c-.156-.078-.468-.078-.78-.078-.469 0-.859.078-1.249.156-.312.156-.624.39-.937.624-.234.234-.468.547-.546.937-.156.312-.234.702-.234 1.17 0 .469.078.86.234 1.25.156.39.312.702.624.936.235.234.547.468.937.546.39.156.859.234 1.327.234.312 0 .702-.078.936-.156.313-.078.625-.156.859-.312v-1.56h-1.249c-.078 0-.078-.079-.156-.079 0-.078-.078-.078-.078-.156v-.546h2.498zM4.761 14.439c-.078 0-.078.078-.156.078 0 0-.078.078-.156.078l-.156-.156c-.156 0-.234-.078-.39-.156a.596.596 0 00-.39-.156c-.235-.078-.47-.156-.703-.156-.234 0-.469.078-.625.156-.156 0-.312.078-.468.234-.156.078-.234.234-.312.312 0 .156-.078.312-.078.469 0 .234.078.39.156.546.156.078.312.234.468.312.156.078.39.156.625.234l.702.234.702.234c.235.156.39.235.625.39.156.157.312.313.39.547.156.156.156.468.156.78 0 .313 0 .625-.156.86a2.803 2.803 0 01-.546.78c-.234.156-.469.312-.78.468-.391.156-.781.156-1.171.156-.547 0-1.015-.078-1.405-.234-.469-.156-.78-.39-1.093-.703l.312-.468c0-.078.078-.078.078-.078.078-.078.156-.078.156-.078.078 0 .156 0 .156.078.078 0 .157.078.235.156.078 0 .156.078.234.156.156.078.234.156.39.156a.596.596 0 00.39.156c.156 0 .39.078.547.078.312 0 .546-.078.702-.156.234 0 .39-.156.546-.234.156-.156.234-.234.313-.468.078-.156.078-.312.078-.546 0-.157 0-.39-.157-.547-.078-.078-.234-.234-.39-.312-.234-.078-.39-.156-.624-.234l-.703-.234-.702-.234a1.7 1.7 0 01-.624-.39C.78 16.39.624 16.233.468 16c-.078-.234-.156-.468-.156-.78 0-.313.078-.547.156-.781.156-.234.312-.468.547-.624.156-.234.468-.39.78-.469a3.466 3.466 0 011.015-.156c.468 0 .858.078 1.249.156.312.156.624.313.936.625l-.234.468zm10.77 2.498c0 .546-.077 1.092-.312 1.56-.156.469-.39.86-.702 1.171-.39.313-.78.547-1.249.78a4.544 4.544 0 01-1.483.235c-.624 0-1.092-.078-1.56-.234-.469-.234-.86-.469-1.171-.78-.39-.313-.625-.703-.78-1.171-.157-.469-.313-1.015-.313-1.561 0-.547.156-1.015.312-1.483.156-.469.39-.859.78-1.25.313-.311.703-.546 1.171-.78.469-.156.937-.234 1.561-.234.547 0 1.015.078 1.483.234a6.74 6.74 0 011.25.78c.311.391.545.781.701 1.25.235.468.313.936.313 1.483zm-.936 0c0-.469-.078-.859-.234-1.171-.078-.39-.312-.624-.546-.859-.234-.312-.547-.468-.859-.624-.39-.078-.78-.156-1.17-.156-.469 0-.86.078-1.171.156-.39.156-.703.312-.937.624-.234.235-.39.469-.546.859-.156.312-.234.702-.234 1.17 0 .469.078.86.234 1.171.156.39.312.703.546.937.234.234.546.39.937.546.312.078.702.156 1.17.156.39 0 .78-.078 1.171-.156.312-.156.625-.312.859-.546.234-.234.468-.546.546-.937.156-.312.234-.702.234-1.17zM27.24 13.19v7.493h-.858v-5.541-.235-.234l-2.654 4.683c-.078.156-.156.234-.312.234h-.156c-.235 0-.313-.078-.39-.234l-2.732-4.683c.078.156.078.312.078.469v5.54h-.937V13.19H20.293s.078.078.078.156l2.653 4.605c.078.078.156.234.156.312.079.078.079.156.157.235 0-.079 0-.157.078-.235 0-.078.078-.234.156-.312l2.575-4.605c.078-.078.078-.156.156-.156H27.24zm8.976 6.712v.78h-4.683V13.19h4.683v.78h-3.669v2.576h2.966v.78h-2.966v2.576h3.669zM70.79 8.039c-1.483 1.64-4.214 4.84-7.492 8.507 2.731-.546 5.775-.702 8.82-.702 1.17-.624 2.106-1.327 2.965-1.951 5.463-4.215 6.244-11.864.078-12.8-10.849-1.64-24.117 9.912-29.97 17.639-1.172 1.483-8.04 11.395-3.903 12.644 4.136 1.17 11.239-4.683 17.405-11.083h-.313c-2.341.078-1.95-1.25.157-2.264a22.165 22.165 0 013.434-1.17c3.59-3.903 6.634-7.493 8.195-9.288a.377.377 0 01.546 0c.156.078.156.312.078.468zm-8.507 9.444c-.546.624-1.093 1.249-1.64 1.795 3.045-.39 6.791-1.405 9.913-2.81-.546 0-1.17 0-1.717.078-1.093.078-3.98.39-6.556.937zm-2.107 2.341c-6.79 6.947-15.142 13.893-19.59 11.786-5.23-2.342 4.292-14.283 6.165-16.39C52.917 8.35 65.25-1.483 75.317.155c7.337 1.249 6.634 8.898.39 14.049-.624.468-1.248 1.014-2.029 1.405 3.59.156 7.805.468 10.615.936.234 0 .39.235.312.39 0 .235-.156.469-.468.313-3.747-.625-7.961-.937-11.708-.937-3.746 1.873-8.429 3.122-12.253 3.512zm.936-1.95c-1.639.39-2.966.858-3.278 1.404H59.707l1.405-1.405z"
		/>
		<path
			fill="#111"
			d="M83.746 17.249c-.078-.078-.156-.156-.234-.312-.078-.313.078-1.171.469-1.327.234-.156.624-.078.858.156.312.312.234.78.078 1.17.624.313 1.249.781 1.015 1.562-.234.624-1.093 1.17-1.64 1.639-.39.312-.936.78-1.326 1.092 1.795-.546 6.634-2.966 7.727-3.512.468-.234 1.249-.78 1.483-.936.078 0 .156.156.234.078.156-.079.312.078.234.312l-.468.624c-2.108 1.015-4.137 2.107-6.322 3.044-.78.39-1.64.78-2.498 1.093-.39.156-1.093.39-1.405 0-.312-.313.078-.78.312-1.015a14.144 14.144 0 011.64-1.405c.312-.312 1.248-.936 1.248-1.327.078-.312-.546-.546-.78-.624-.156-.078-.313-.156-.39-.312h-.235z"
		/>
		<path
			fill="#111"
			d="M91.942 18.498c-.781.936-1.405 2.341-.235 3.2.39.312.937.468 1.405.546 1.795.546 5.854-1.873 7.337-2.654l4.214-2.341c.469-.156 1.015-.546 1.093-.703.078-.156.39.157.468.313.078.234 0 .234-.234.312-.546.234-.858.702-1.405.936-1.951 1.093-3.824 2.186-5.775 3.2-1.405.703-4.293 2.03-5.854 1.717-.702-.156-1.405-.468-1.873-.858-1.795-1.561-.234-3.98 1.17-5.151.937-.859 2.264-1.64 3.59-1.873.86-.157 2.03-.157 2.576.546.469.546.235 1.249-.312 1.717-1.326 1.093-4.214 1.17-5.931 1.17-.157 0-.157-.077-.234-.077zm.702-.625c1.56 0 3.902-.078 5.073-.78.546-.313.859-.703.078-1.015-.78-.234-2.03.078-2.81.39-.858.313-1.717.859-2.341 1.405z"
		/>
		<path
			fill="#111"
			d="M99.2 9.756c2.576.156 7.18.234 12.098.156 1.092-1.17 2.107-2.185 2.887-3.044.469-.624 1.249-.078.937.313-.624.702-1.561 1.639-2.576 2.731 3.747-.078 7.649-.234 11.083-.468l.312-.39c.469-.625 1.171-.156 1.015.312 2.576-.234 4.761-.546 6.244-.937.156 0 .39.078.468.313.078.156-.078.39-.312.39-1.873.468-4.449.858-7.258 1.092-2.03 2.03-4.918 4.761-8.039 8.898-1.093 1.405-2.186 3.356-2.966 4.917-.391.624-1.327 2.498-1.093 3.2.078.234.234.234.468.234 1.015-.078 2.654-1.092 3.512-1.639a91.448 91.448 0 004.059-2.888c2.654-1.95 5.307-4.292 8.117-6.087l.39-.313c.156-.156.391-.078.547.078.156.157.078.39-.078.547-2.498 1.639-4.995 3.746-7.415 5.541-1.483 1.093-3.044 2.264-4.683 3.356-1.015.78-2.576 1.717-3.824 2.03-3.356.858-2.264-1.561-.781-4.293.859-1.64 1.951-3.59 3.044-5.073-2.107 1.639-4.449 3.668-6.166 4.995-1.483 1.093-3.044 2.263-4.683 3.356-1.092.702-2.575 1.639-3.824 2.03-.703.155-1.561.155-1.873-.547-.39-1.015.624-2.888 1.092-3.825.859-1.56 2.81-4.526 3.903-6.01 2.185-3.043 4.605-5.775 6.712-7.96-4.527 0-8.663-.156-11.395-.312-.234 0-.39-.156-.39-.39.078-.157.234-.39.468-.313zm5.463 9.522c-1.092 1.405-3.043 4.37-3.824 5.932-.39.702-1.327 2.575-1.093 3.278.078.234.235.234.469.234 1.014-.078 2.653-1.093 3.512-1.639a132.493 132.493 0 004.058-2.966c2.576-2.03 6.088-5.307 8.82-7.18l.468-.313c2.264-2.887 4.059-4.604 5.698-6.243-3.512.234-7.337.39-10.927.39-2.264 2.42-4.995 5.541-7.181 8.507z"
		/>
		<path
			fill="#111"
			d="M128.702 17.327c-.546.858-.858 1.483-1.248 2.42-.156.233-.234.546-.391.78 0 .078-.078.39 0 .468.235.078.859-.156 1.093-.234 1.327-.702 3.512-2.966 4.527-4.058.546-.547 1.093-1.171 1.639-1.796.156-.156.312-.312.546-.312.156 0 .312.078.312.234v.234c0 .079-.156.39-.156.39-.468 1.171-.936 2.42-1.483 3.59 2.654-1.17 5.386-2.028 8.118-2.497.156 0 .234-.078.39-.078s.39.078.468.313c0 .234-.156.39-.39.468-1.327.156-2.576.468-3.903.858-1.717.469-3.434 1.171-5.073 1.952-.312.702-.702 1.404-1.014 2.107-1.249 2.654-3.435 6.166-6.01 7.805a6.54 6.54 0 01-3.2 1.092c-1.327 0-1.873-.858-1.483-2.029.624-1.873 2.81-3.98 4.371-5.307a36.206 36.206 0 016.712-4.215c.39-.936.78-1.795 1.093-2.732-.469.469-.937 1.015-1.405 1.561-.937.859-1.952 1.874-2.966 2.576-.625.468-1.795 1.093-2.576.702-.546-.312-.468-.858-.312-1.326.078-.234.234-.547.312-.78.39-.937.937-1.718 1.483-2.654.078 0 .078.156.234.234.234.156.39 0 .312.234zm3.435 3.356c-2.498 1.327-4.839 2.966-6.791 4.76-1.014 1.016-2.731 2.81-3.044 4.216-.156.624 0 .936.703.936.78 0 1.561-.312 2.185-.624 2.732-1.483 5.073-5.308 6.4-8.04.156-.39.312-.78.547-1.248z"
		/>
	</svg>
