 <svg xmlns="http://www.w3.org/2000/svg" view-box="0 0 279.86 1008.36">
      <g>
        <g>
          <path
            d="M67.84 129.6c-1.61-13 4.51-25.66 8-38.86.84-3.17 2-6.26 3-9.39.62-2 .82-4.24 2-5.87 1.63-2.35 3.92-4.24 5.93-6.33.37 2.46 1.08 4.93 1.06 7.39a254.51 254.51 0 01-5.68 50.18c-2 9.73-6.13 19.07-9.85 28.37-4 9.87-8.45 19.53-12.86 29.2-3.3 7.23-3.08 14.42-.22 21.63 3.28 8.27 6.91 16.42 9.95 24.77 1.52 4.16 1.92 8.71 3.14 13 .32 1.12 1.85 1.88 2.82 2.81a10.56 10.56 0 001.73-2.91 50.4 50.4 0 001.5-9.59c.06-2.53 0-6-1.57-7.47-7.1-6.57-7.12-15.53-8.49-23.84-1-6.14-.38-12.58-.25-18.89 0-1.18 1.18-2.33 1.81-3.49 1.23.91 3.07 1.58 3.59 2.8 2.51 6 4.55 12.2 7 18.24a28.16 28.16 0 004.16 7.09c.42.51 3.2-6.86 2.25-9.56-2.68-7.62-2.27-15.61-2.56-23.41-.49-13.5 4-26.37 6.63-39.47a124.08 124.08 0 014.31-15.44c.48-1.4 2.32-2.35 3.54-3.5a22.07 22.07 0 012.62 3.3 8.54 8.54 0 01.78 3.45c.65 12.84 1.4 25.68 1.76 38.54.09 3.16-1.08 6.37-1.74 9.55a118 118 0 01-2.7 12.1c-2.61 8.17-5.63 16.22-8.37 24.36a16.31 16.31 0 00-.34 3.92 12.57 12.57 0 003.12-1.37c4.17-3.42 8.64-6.59 12.21-10.57 3.1-3.44 5-7.93 7.73-11.76.84-1.18 2.59-1.71 3.92-2.54a20 20 0 011.57 4.33c.5 3.94.57 7.93 1.07 11.87 1.09 8.37-3 13.74-11.7 16.64a189.11 189.11 0 00-21 8.7c-1.52.72-2.59 3.27-3 5.18-2.09 8.61-4.22 17.24-5.58 26-.41 2.57 1.59 5.55 2.58 8.3 1.19 3.29 2.48 6.55 3.73 9.82 2-2.87 3.73-6.05 6.14-8.54 5-5.12 10.24-10 15.65-14.65.81-.7 3.3 0 4.6.7.6.34.65 2.61.18 3.67-3.47 7.92-6.87 15.89-10.85 23.55a21.12 21.12 0 01-7 7.87c-4.1 2.56-3.23 6-2.46 9.12 1.28 5.14 3.41 10.07 5.22 15.08 3.61 10 7.22 20 10.91 30a9.74 9.74 0 001.86 2.31c.51-.68 1.27-1.28 1.48-2a42.81 42.81 0 001.75-7.82c.81-10.12.71-20.37 2.24-30.37 1.87-12.31 5.84-23.65 15.74-32.73 7.29-6.69 14.35-13.72 21.57-20.53 1.86-1.76 3.62-2.6 5.18-.78.69.8.08 3.42-.74 4.69-2.27 3.52-4.93 6.79-7.5 10.1-2.13 2.74-4.27 5.26-4.08 9.23.09 1.79-1.28 4.14-2.71 5.44-5.78 5.27-8.86 13.56-17.76 15.54-1.74.39-3.73 3.26-4.14 5.29a140.49 140.49 0 00-2 16.78c-.12 1.5.7 3.07 1.08 4.61 1.3-1.17 3.14-2.11 3.79-3.57 2.16-4.85 3.79-9.94 5.87-14.83.6-1.39 2-2.43 3.07-3.63.81 1.32 2 2.55 2.32 4 .5 2.32.23 4.81.62 7.17 1.93 11.62-.44 17.64-10.77 23.32-4.74 2.61-6.61 5.81-8.83 10.79-5 11.27-2.38 21.28.82 31.83 2.66 8.76 5.07 17.6 7.36 26.46.94 3.67 3 5.75 6.64 6.18 1.79.21 3.62.13 5.4.38 6.55.93 7.3.64 5.1-4.86-3.83-9.6-2.85-19.42-2.87-29.23 0-7.75 1.12-15.6-3-22.81a4.13 4.13 0 01-.44-2.6c.21-1.1.59-2.58 1.38-3a3.13 3.13 0 012.92 1.07c2.33 4.69 4.45 9.49 6.5 14.32.56 1.32.23 3.13 1 4.25 8.41 12.42 4.59 25.55 2.46 38.59-3.67 2.18.74 3.68.46 5.58a23.61 23.61 0 003-2.15c4.21-4.05 5.78-9.52 7.42-14.84.69-2.22 1.23-4.37 3.79-3.82.88.19 1.32 2.72 1.84 4.22.18.53-.08 1.21 0 1.79 2.23 11-1.88 19.44-10.49 26.15-1 .74-2.09 2.7-1.74 3.42a174.23 174.23 0 008.34 15.38c1.4 2.25 3 1.34 3.42-1.08 2.59-16.74 8.83-32.54 12.53-49a122.38 122.38 0 0114.55-36.06c3.06-5.1 1.08-9.19.06-13.68-.21-.94-2.12-1.86-3.38-2.12a16 16 0 00-5.39 0c-8.54 1.29-14.84-3.57-21.34-7.75-1-.66-1.32-2.42-2-3.67 1.22-.56 2.48-1.67 3.64-1.58 7.39.63 14.76 1.55 22.15 2.28a17.15 17.15 0 003.53-.37 12.12 12.12 0 01-2.08-2.5c-4.5-10-12.89-18-15.08-29.24a82.21 82.21 0 00-1.81-8.72c-1.31-4.18-3.1-8.21-4.46-12.38-.41-1.26 0-2.78 0-4.18 1.63.07 3.87-.54 4.81.3 6.46 5.77 12.15 12.24 16.16 20 4.24 8.23 5.76 17.21 7.34 26.19 1 5.85 2.23 11.68 3.5 17.48a15.22 15.22 0 001.8 3.55 17.66 17.66 0 003.35-2.73c4.47-6 8.74-12.11 13.23-18.07 1.73-2.29 1.72-4.27.12-6.53-2.55-3.63-4.65-7.66-7.6-10.92-4.11-4.53-7.09-9.23-7.9-15.5-1.2-9.25-3.25-18.39-4.51-27.63-.2-1.42 1.86-3.15 2.88-4.73a20.84 20.84 0 012.31 3.15c4.42 9.38 9 18.7 13.05 28.22 2.56 5.94 4.32 12.22 6.66 18.26.55 1.44 2 2.53 3 3.79.8-1.79 2.59-3.83 2.22-5.33-1.26-5-3.33-9.8-5-14.71-.75-2.2-2.13-4.64-1.75-6.7 1.4-7.57 3.36-15 5.26-22.5.24-.92 1.41-2.35 2-2.29 1.29.13 3.25.8 3.6 1.75 1.34 3.57 3 7.33 2.95 11 0 5.28-1.38 10.56-2.18 15.84-.26 1.74-.94 3.55-.66 5.19.38 2.24 1.51 4.35 2.32 6.52 1.62-1.32 3.25-2.63 4.86-4a30.06 30.06 0 009.61-14.55c3.64-11.57 8.29-22.67 18.33-30.71 3.61-2.88 5.75-7.53 8.9-11.07 1-1.1 3.06-1.19 4.63-1.75.14 1.49.73 3.11.34 4.44-3.36 11.19-7.25 22.16-14.23 31.73-1.22 1.68-2.27 4.08-3.95 4.74-8.65 3.39-11.56 12.38-18 17.89-1.89 1.62-4.42 5.24-3.79 6.52 1.46 3 4.86 3.57 8.54 2.6a19.69 19.69 0 019.09-.28c2.23.52 3-.31 4.56-1.36a94.87 94.87 0 0111.32-6.52c2-1 4.32 1.17 4 3.39-.66 5-14.72 18-20 17.67a128.21 128.21 0 01-20.22-2.55c-5.67-1.25-9.72-.52-12.81 4.74-2.56 4.36-5.69 8.38-8.5 12.6a9.81 9.81 0 00-.82 2.45c.81 0 1.75.37 2.4.07 5.78-2.63 11.73-1.2 17.67-1.08S247 331.18 253 331c1.17-.05 2.46-.69 3.48-.37a34.21 34.21 0 0017.19 1.37c1.39-.27 3.11 1.25 4.68 2-.81 1.43-1.26 3.52-2.49 4.17a108.39 108.39 0 01-13.78 6.19c-8.95 3.24-18.08.37-27.06-.17-4.78-.3-9.35-3.52-14.09-5.23-6-2.14-12.41-.14-15.38 4.81-3.32 5.53-6.72 11-9.57 16.82-7.93 16.06-13.16 33.1-17.67 50.37a8.13 8.13 0 00.23 2.65 11.34 11.34 0 002.78-.71c4.13-2.33 8-5.17 12.35-7.07 6.68-2.94 9.25-8.73 9.27-14.91 0-8.34 3.65-14.87 7.61-21.52 2.13-3.58 4.32-7.14 6.61-10.62a2.61 2.61 0 012.14-1 2.74 2.74 0 011.74 1.77c.3 1.75.67 3.72.16 5.33-2.8 8.93-2.32 18.81-7.85 27a3.07 3.07 0 00.41 3 3.69 3.69 0 003.11.27c6.65-2.46 13.34-4.84 19.8-7.73a26.55 26.55 0 007.94-5.75c8.07-8.39 16.46-16.37 26.43-22.49 1.26-.77 3-.73 4.54-1.06a42.88 42.88 0 01.07 4.67c-.1 1.15-.21 2.73-1 3.34-6.6 5.32-8.65 14.27-14.65 19.77-8.77 8.12-18.67 15.21-32 13.56-2.47-.31-5.13.59-7.67 1.13-6.61 1.42-13.5 2.09-19 6.6a38 38 0 00-2.88 2.93c1.34.58 2.64 1.54 4 1.68 5.54.55 11.17 1.54 16.66 1.1 14.26-1.15 26.83 3.16 38.76 10.36 2 1.22 4.59 1.69 6.36 3.17 1 .85 1.37 3.08 1.14 4.56-.1.68-2.33 1.52-3.56 1.46-3.2-.17-6.37-1-9.58-1.2a56.27 56.27 0 01-22-5.64c-11.86-5.86-24.43-10.36-37.76-10.22a21.6 21.6 0 00-14.12 6.36c-4.2 4.53-6.77 10.49-7.84 17.4-2.16 14-6.09 27.81-9.29 41.68-.39 1.73-1.33 3.55-1 5.15.58 3.26-2.17 7.56 1.77 9.6 2.1 1.09 8.82-7.28 8.88-10.59a59.59 59.59 0 017.08-26.51c2.69-5.23 5-10.67 7.47-16 .35-.73 1.1-2 1.41-1.88 1.07.26 2.45.75 2.93 1.59a7.15 7.15 0 01.89 4.25c-1 6.59-2.24 13.14-3.46 19.7-.21 1.14-1 2.19-1.14 3.33-.57 3.67-1 7.36-1.48 11 3.81-.28 8.71.82 11.21-1.14 4.52-3.53 9.77-2.79 13.81-2.54 10.67.67 21.21-1.52 31.79-.42 1.19.13 3.07 1.08 3.22 1.91a4 4 0 01-1.81 3.38c-12.17 5.76-24.31 12-38.4 6.39-.53-.22-1.36-.67-1.63-.46-5.61 4.29-11.26.91-16.9.21a5.48 5.48 0 00-3.34.35q-10.89 6.85-21.6 14c-2.29 1.52-3.81 8-2.47 10.71.35.71 2.31 1.5 2.76 1.18 5.57-4 12.08-2.66 18.17-3.76 4.71-.84 8.92-4.19 13.5-6.09a49.8 49.8 0 019.33-2.67c1.43-.28 3.05.36 4.58.58-.73 1.51-1.07 3.59-2.27 4.42a95.14 95.14 0 01-10.58 6.05c-3 1.57-3.08 2.76-.31 5 3.45 2.79 7.1 5.47 10 8.78 5.22 5.94 11.39 9.36 19.35 9.62 1.24 0 2.46 1 3.68 1.59a40.43 40.43 0 01-2.65 4 3.28 3.28 0 01-2.3 1.28c-8.86-1.45-18.87 1.59-26.25-5.65-3.31-3.24-5.63-7.55-8.18-11.52a17.38 17.38 0 00-16.54-8.34c-2.43.18-5.21-.73-7.27.16-6.33 2.72-8.9 7.67-9 14.85-.13 8-1.8 16-2.86 23.93-.66 5-1.55 10-2.14 15-.57 4.81.18 9.56-3.23 14.17-1.43 1.92-2.58 7.53 2 10.32.73.45.87 2.16 1 3.31 1.28 17 2.37 34.1 3.79 51.13.9 10.83 2.39 21.61 3.38 32.44.91 10.05 1.48 20.13 2.29 30.19a9.18 9.18 0 001.26 2.73c.59-.59 1.57-1.11 1.7-1.78 1.07-5.89 9.26-4 10.44-9.67.79.28 2.17.43 2.26.87.48 2.12 1.56 4.86.69 6.38a69.79 69.79 0 01-9.27 12.89c-3.8 4.07-6.44 7.66-5.87 14 1.31 14.51 2.2 29 5.39 43.31.78 3.45 0 7.22.36 10.79.86 8.58 2 17.13 3 25.69.07.59.37 1.15.41 1.74.95 11.53 1.83 23.07 2.81 34.6.77 9.13 1.76 18.25 2.45 27.38a84 84 0 01.05 13c-.11 1.38-1.94 2.62-3 3.93-1.23-1.13-2.82-2.07-3.58-3.46-.65-1.21-.45-2.92-.48-4.42-.14-8.6.09-17.22-.44-25.8-.65-10.71-1.93-21.38-2.9-32.07-.71-7.83-1.24-15.68-2.07-23.5-1.7-15.95-3.71-31.86-5.28-47.82-.94-9.53-1.35-19.11-1.91-28.67-.67-11.63-.38-23.39-2.06-34.86A294.76 294.76 0 01149 649.9c0-1.46.09-3.33-.71-4.31-3-3.6-3-7.71-2.9-12a10.37 10.37 0 00-.64-2.55 11.65 11.65 0 00-.77 2.29c-1.26 9.4-2.53 18.79-3.68 28.2-.71 5.8.88 11.5-.28 17.51-1.51 7.8-1.37 16-1.45 24-.05 5 1.93 10.28 1 15-1.07 5.24-.24 9.83.41 14.83.79 6.07.36 12.32.2 18.49-.33 12.68-1.12 25.35-1.17 38 0 9.52 1.1 19 1.09 28.58 0 7.64-1.19 15.27-1.38 22.92-.09 3.51 1.22 7 1.37 10.58.27 6.17-.09 12.38.22 18.56.44 8.67 1.21 17.33 1.93 26 .32 3.72 1.4 7.43 1.25 11.11-.54 13.71 3.36 27.08 1.36 41.08-1.92 13.4-.61 27.25-1.08 40.89a89.26 89.26 0 01-2.24 15.91c-.31 1.4-2.89 3.48-4.05 3.26-2.15-.4-2.19-2.34-1.81-4.91 1.54-10.46 2.71-21 3.33-31.56.75-12.73 1.74-25.57.93-38.25-1.28-20.06-1.17-40.24-4.71-60.18-1.09-6.13.42-12.72.73-19.1.09-1.77.26-3.55.22-5.32-.19-8.92-.43-17.84-.67-26.76-.22-8.36-.63-16.72-.68-25.08-.11-17.15.16-34.31-.12-51.46-.19-11.3-1.4-22.59-1.53-33.89-.08-7.55.88-15.12 1.45-22.68.59-7.73.94-15.5 2-23.18 1.17-8.38-2.27-14.85-7.13-21.07a105.1 105.1 0 01-7.64-10.82c-.89-1.49-.57-3.69-.8-5.56 1.94.32 4.23.1 5.74 1.08 3 1.92 5.45 4.54 8.19 6.81a11 11 0 002.25 1.12 7.38 7.38 0 001-2.23c.79-10.6 1.48-21.21 2.26-31.81.43-5.91 1.56-11.83 1.36-17.7-.3-8.63-1.46-17.23-2.35-25.83-.92-9-2.05-17.89-2.91-26.86q-1.14-12-1.84-24.09c-.35-5.94-10.28-10.14-13.84-6.21-6.82 7.54-15.86 5.15-23.9 7-4.14.94-8.62.47-13 .34-1 0-1.93-1.29-2.9-2 .66-.86 1.14-2.16 2-2.49 3.56-1.38 7.24-2.48 10.88-3.64.86-.27 2.07 0 2.61-.56 5-4.93 11.93-4.71 17.94-6.85 3.32-1.18 2.92-2.17 1.18-4.1-5.5-6.15-9.62-13.25-14.28-20-4.26-6.15-5.7-13.37-10-19.35-3.79-5.25-6.17-11.5-9.72-16.95-1.55-2.36-4.61-3.68-6.67-5.78-.8-.81-.76-2.46-1.1-3.73 1.08 0 2.43-.33 3.19.18 4.36 3 9 5.72 12.76 9.36 5.9 5.72 12.78 10.62 16.69 18.22a165.48 165.48 0 017 15.16c2 5.14 1.16 10.73 4 15.38a10.8 10.8 0 002.55 2.15 16.34 16.34 0 011-2.81c2.75-4.85 2.5-11 6.57-15.3a5.62 5.62 0 001.43-4.11c-1.09-7-2.26-14-4-20.89-.38-1.5-2.85-2.87-4.64-3.57-6.61-2.56-13.27-5-20-7.09-2.42-.73-5.9-1.54-4.9-3.75a10.27 10.27 0 017.32-5c5.33-.39 10.77.78 16.18 1.17.78.06 2.27-.6 2.28-1a4.38 4.38 0 00-.91-3.1c-3.17-3-6.61-5.65-9.81-8.59a5.78 5.78 0 01-1.86-3.31c-.05-.52 1.69-1.53 2.76-1.8 6.79-1.68 6.63-1.59 4.76-8.29-2.45-8.82-4.62-17.73-6.9-26.6a7.9 7.9 0 00-.41-1.74c-1.45-2.67-4.81-6.13-4.07-7.78 1.57-3.51-.56-5.88-1-8.49-1.62-8.68-12.87-18.37-21.51-19.35-3.59-.4-11 5-12.85 9.47-1.13 2.75-2.55 5.49-3 8.37-1.74 9.51-9.75 11.51-16.69 14.45-4.07 1.7-5.66-.4-4.5-5 .65-2.58 1.46-5.14 1.89-7.77 1.48-9 6.59-14.29 15.52-16.06a20.65 20.65 0 004.1-1.61c2-.92 4.08-1.89 6.12-2.84-1.76-1.42-3.46-2.94-5.31-4.24-6.3-4.4-11.76-4.35-19.39-.73-14.32 6.81-29.73 7.47-43.89-2.21a17.15 17.15 0 01-2.35-2.32 10.94 10.94 0 012.65-2q11.12-3.87 22.31-7.53c9.48-3.11 18.83-2.88 27.49 2.32 4.67 2.81 10.09 3.54 14.61 7.31 3.77 3.15 9.9 3.45 15 5.1 2.25.74 4.44 1.69 6.64 2.59 2.5 1 5 2.08 7.47 3.13-.67-2.51-1.19-5.07-2-7.51-3.36-9.5-6.59-19-10.4-28.37-1-2.43-3.67-4.39-6-6-5-3.63-11.52-5.08-15.45-10.45-1.58-2.16-3.2-1.63-5.17.09C47.5 292 42 292.24 27.21 285.58c-5.24-2.37-10.7-5.45-17.06-4.41-.83.13-2.51-.88-2.63-1.56a3.68 3.68 0 011.33-3c3.21-2.14 6.41-4.71 10-5.72 2.74-.78 5.42-2 9.19-1 7.33 1.83 15.48-.34 22.7 3.59.57.31 2.21 0 2.28-.33a4.33 4.33 0 00-.16-3.07 21.43 21.43 0 00-4.66-5.38c-10.11-7.32-16.26-18-23-27.9-4.78-7-7.76-15.21-11.52-22.9q-3.68-7.61-7.36-15.2c-.89-1.88-2.07-3.7-2.48-5.7-.44-2.2-1-6 0-6.57 3.27-1.88 3 2.46 4.63 3.78C19.21 199 26 211.11 34.08 222.1c3.81 5.22 4.66 12.62 6.78 19.06 1.58 4.77 3 9.62 4.67 14.35.31.84 1.85 1.24 2.82 1.84.5-.93 1.5-1.91 1.42-2.78-.42-4.12-1.15-8.2-1.72-12.31-1-7.48-1.9-15-3.14-22.44-.39-2.37.37-3.15 2.35-3.88s3.38-1.18 4.38 1.14c4.82 11.26 12 21.89 10.22 35-.52 3.86-2.13 7.57-3.13 11.37-.31 1.21-.83 3.13-.25 3.67q9.34 8.88 19.09 17.35c2 1.74 3.26.81 3-1.78a17.81 17.81 0 00-.78-4.37c-7.19-20.73-14.22-41.51-21.76-62.11-2.54-7-5.42-13.7-6.83-21.1-.59-3.1-4.1-5.68-6.39-8.41-3.43-4.07-6.28-9.31-10.66-11.73-4.07-2.25-9.83-1.38-14.82-2a7.68 7.68 0 01-3.85-1.55c-3.35-2.91-6.5-6-9.72-9.09-1.69-1.59-2.76-3.62-1-5.47.8-.84 3-.87 4.37-.58 3.39.73 6.68 1.91 10.05 2.79 1 .25 2.68.43 2.91 0a3.83 3.83 0 00.22-3.27 135.27 135.27 0 00-8.68-12.51c-7.18-8.84-9.51-19-8.8-30.06.09-1.23 1.17-3 2.07-3.23 1.2-.28 3.41.28 3.95 1.2 3 5.12 7 10.21 8 15.77 2.19 12.76 6 24.74 13.08 35.48 3.86 5.83 8.58 11.08 13 16.54.29.37 1.37.64 1.57.44.55-.55 1.27-1.46 1.15-2.07-1.14-5.8-2.1-11.67-3.78-17.32-2.91-9.78-4.85-19.66-4.76-29.87 0-4-1.34-6.36-5-8.55-7.9-4.74-15.68-9.91-20.45-18.28-1.75-3.08-4-6-5-9.39C5.49 82.86 2.76 71.63.05 60.41c-.27-1.13.67-2.56 1.06-3.85 1.33.66 3.33 1 3.9 2 2.51 4.74 5.33 9.44 6.72 14.56 3.08 11.26 10.62 19.44 17.71 28 1.12 1.36 1.8 3.11 3 4.4a4.76 4.76 0 002.9 1.06c.23 0 .92-1.45.87-2.19-.64-9.13-1.08-18.28-2.24-27.34-.47-3.63-3.15-7-3.79-10.6-1.31-7.46-2.95-14.8-3.32-22.55-.32-6.53-2.11-13.16-1.61-20 .54-7.38.77-14.79 1.25-22.17A2.39 2.39 0 0127.92 0a2.68 2.68 0 012.3.9 90.62 90.62 0 014.57 9.6c7.1 18.22 12 36.71 6.94 56.46-1.35 5.26-3.26 10.62-3.26 15.93 0 8.31 1.4 16.61 2.28 24.91a8.94 8.94 0 001 2.42c1-.52 2.2-.83 2.84-1.61 3.24-4 5.66-8 5.28-13.69-.86-12.66 2.52-24.85 5.54-37 1.28-5.12 3.42-10 5.31-15a9.27 9.27 0 012.43-3.68c1-.85 2.78-1.77 3.72-1.4a4.68 4.68 0 012.18 3.47c.36 4.64.25 9.31.48 14 .83 16.13-4 31-10.84 45.18-2.79 5.74-7.41 10.76-11.88 15.44-3.56 3.74-3.12 8.1-3.2 12.21-.3 17.14 6.68 33.16 8.23 50 .09.94 1.32 1.77 2 2.65.55-.62 1.11-1.24 1.66-1.87a5.59 5.59 0 00.55-.71c7-11.45 6.56-12.07-1.84-23.57-5.56-7.6-6.26-16.53-3.12-25.51.41-1.19 1.94-3 2.68-2.86a5.9 5.9 0 013.93 2.6c2.6 5.31 4.77 10.83 7.16 16.25a23.59 23.59 0 001.83 2.88 9 9 0 001.1-2.78c.11-4.77.05-9.57.05-15.62zM136 480.32c1 6 2.19 10.36 2.2 14.78 0 5.16.51 9.3 6 11.56 2.56 1 4.6 3.36 6.88 5.09 1.11-2.91 2.24-5.8 3.31-8.73a6.57 6.57 0 00.14-1.79c.5-11 1.17-21.91 5-32.46 1.5-4.11 1.79-8.73 2.08-13.16.12-1.85-.93-3.94-1.91-5.66-1.17-2.06-3.29-3.63-4.21-5.76-2.71-6.23-7.76-6.58-13.31-5.76a55.14 55.14 0 00-6 1.69c-5.66 1.52-5.67 1.51-4.35 6.92a29.73 29.73 0 011 4.3c.38 4.3 1.74 5.61 5.5 2.39 1.64-1.4 5.51-1.43 4.82.55-1.64 4.76 2.38 9.61-1.51 14.32-2.81 3.54-4.09 8.4-5.64 11.72zM28.19 328.15c.11.38.21.76.32 1.13 6.1-2 12.36-3.69 18.24-6.24 4.67-2 4.52-3.63.07-6a12.09 12.09 0 00-5.07-1.33c-6.56-.22-13.09-.29-19 3.52-2.81 1.82-5.94 3.17-8.92 4.73 3.58 1.39 7.13 2.88 10.76 4.13 1.1.37 2.41.06 3.6.06zm70.88-172.24c-.51-5.32-.73-8.89-1.26-12.42-.16-1.08-1.15-2-1.77-3.05a22 22 0 00-1 2.92c-1.82 8.68-3.89 17.33-5.25 26.08-.67 4.32-.19 8.85.14 13.26.13 1.63 1.31 3.19 2 4.78.82-1.42 2.09-2.75 2.38-4.26 1.78-9.62 3.37-19.22 4.76-27.31zm41.18 360.93h-.29c1.3 10 2.54 20 4 29.92.16 1.11 1.51 2.05 2.31 3.06.9-1.24 2.48-2.43 2.58-3.73.4-5.37-1.12-11.37.79-16 3.55-8.68-2.94-12.26-6.63-17.43-.27-.38-1.36-.69-1.59-.48a3.81 3.81 0 00-1.11 2 12.58 12.58 0 00-.06 2.66zM39.05 51.65c-.26-4.34-.08-7.59-.71-10.68-1.29-6.32-3-12.56-4.62-18.79-.24-.9-1.43-1.54-2.17-2.29-.49 1-1.46 2-1.39 2.9.73 10.65 1.58 21.3 2.49 31.94a28.85 28.85 0 001.21 6.12c.32 1 1.33 1.84 2 2.75a9.7 9.7 0 001.39-2.5c.75-3.5 1.36-7.04 1.8-9.45zm43.57 45.18c-.55-2.46-.85-3.77-1.14-5.08a18.06 18.06 0 00-2.37 3.58c-3.41 9.16-5 18.73-6.08 28.4a23.35 23.35 0 00-.41 5.24c.2 1.58 1.11 3.07 1.7 4.6.76-1.25 2-2.41 2.22-3.75 2.19-11.31 4.2-22.65 6.08-32.99zM64.28 61.27A53 53 0 0064.2 55c-.1-.85-1.09-1.59-1.68-2.38-.49.68-1.26 1.29-1.43 2-2 9-4.07 18-5.9 27.1a13.58 13.58 0 00.45 5A2.72 2.72 0 0057 88.28c.22.11 1.18-.56 1.33-1 2.76-8.51 6.51-16.78 5.95-26.01zM30 275.12l-7.79 1.18c2 1.1 4 2.18 5.92 3.31a8 8 0 012.1 1.43c6 6.94 12.87 3.15 19.51 1.45.65-.17 1.63-1.59 1.48-1.84-.53-.88-1.4-2-2.3-2.16-6.33-1.25-12.71-2.3-18.92-3.37zM100.79 217c3.28-1.25 7.46-2.13 10.8-4.31a10.26 10.26 0 004.91-10 3.31 3.31 0 00-1-2.26 2.67 2.67 0 00-2.31.58q-7.19 6-14.21 12.29a7.93 7.93 0 00-1.25 2.28zm30.94 205c.82.12-.07-.11-.95-.1a24.59 24.59 0 00-3 .4c.31 1.38.21 3.62 1 4 5.54 2.76 11.08 5.84 17.64 4.88a1.69 1.69 0 00.62-1.42c-1.69-2.85-2.38-6.71-6.53-7.25-2.29-.34-4.69-.33-8.78-.51zM18.24 210.08c-.25.73-.83 1.53-.64 2a71.51 71.51 0 003.63 7.92q4.32 7.73 9 15.24c.48.77 1.78 1 2.7 1.54a8.19 8.19 0 00.22-2.57c-2.42-9.1-8.84-15.85-13.87-23.41-.14-.23-.47-.34-1.04-.72zm44.59 137.59c-.5-1.88-.87-3.25-1.23-4.62-1.58.44-3.88.39-4.6 1.42a32.55 32.55 0 00-4.13 8.53c-.65 2-.3 4.34-.39 6.53 2.05-1.11 4.69-1.77 6-3.45 1.99-2.46 3.02-5.69 4.35-8.41zm78.62-75.09c-.33-.59-.53-1.44-.88-1.5a3.48 3.48 0 00-2.43.25c-3.92 3-11 11.64-12.94 15.87a3.6 3.6 0 000 2.23c1.06.15 2.62.48 3.18-.08 3.34-3.39 6.59-6.9 9.58-10.6 1.53-1.81 2.38-4.13 3.49-6.17zm-39.27-5.09l-.7-1.8c-.53.23-1.25.31-1.58.72-2.27 2.76-4.89 5.36-6.54 8.47-1.49 2.82-5.4 5.25-2.74 9.38 2.58-2.33 5.68-4.31 7.59-7.1s2.73-6.49 3.97-9.67zM28.74 109.73a5.3 5.3 0 00-.43-.94q-6.82-9.32-13.72-18.6c-.27-.36-1-.36-1.54-.53-.14.53-.56 1.2-.38 1.57 3.55 7.24 7.34 14.33 14.14 19.17a5.91 5.91 0 001.59.58c.12-.45.25-.9.34-1.25zm-5.65 60.08l4-1.26c-.63-1-1.05-2.43-1.93-2.81a64.69 64.69 0 00-7.54-2.37c-1.7-.51-3.42-1-5.13-1.48 1.31 1.56 2.38 3.46 4 4.59a44 44 0 006.6 3.33zm38.39-21.4l-5.14-10.59c-.36.27-1.07.59-1 .82.38 3.68.69 7.39 1.43 11 .24 1.17 1.7 2.09 2.6 3.12.53-1.15 1.09-2.3 2.11-4.35zM16.8 134.35c-1.54-3.12-3.14-6.39-4.78-9.65a4.3 4.3 0 00-.69.23c1 3.46 2 6.92 3.17 10.35a1.62 1.62 0 001.42.68c.34-.08.51-.89.88-1.61zm40 110.32c-1.14-3.25-2.28-6.6-3.49-9.91-.19-.51-.73-.89-1.1-1.33-.21.83-.74 1.73-.58 2.48.66 3.14 1.46 6.26 2.4 9.33.15.51 1.28.73 2 1.08.24-.52.49-1.03.8-1.65z"
            className="cls-1"
            data-name="43"
          ></path>
        </g>
      </g>
    </svg>
