<svg xmlns="http://www.w3.org/2000/svg" viewBox="0 0 1079.67 767.23"><defs><style>.cls-1{fill:#606161;}</style></defs><g id="Layer_2" data-name="Layer 2"><g id="Layer_1-2" data-name="Layer 1"><path class="cls-1" d="M501,69.81c-.87-7,2.42-13.82,4.31-20.93.45-1.71,1.06-3.37,1.6-5.06A11.52,11.52,0,0,1,508,40.66a29.29,29.29,0,0,1,3.19-3.41,25.81,25.81,0,0,1,.58,4,137.78,137.78,0,0,1-3.06,27c-1.09,5.24-3.31,10.27-5.31,15.28-2.13,5.32-4.55,10.52-6.93,15.73a14.29,14.29,0,0,0-.12,11.65c1.77,4.46,3.73,8.84,5.37,13.34.81,2.24,1,4.69,1.69,7,.17.6,1,1,1.51,1.51a5.69,5.69,0,0,0,.94-1.57,27,27,0,0,0,.84-5.18c0-1.36,0-3.26-.84-4-3.83-3.53-3.84-8.36-4.58-12.83-.55-3.32-.2-6.78-.13-10.18,0-.64.63-1.26,1-1.88.67.49,1.66.85,1.93,1.51,1.36,3.23,2.46,6.57,3.78,9.82a14.8,14.8,0,0,0,2.24,3.82c.22.27,1.72-3.7,1.21-5.15-1.44-4.1-1.22-8.41-1.38-12.61-.26-7.27,2.17-14.21,3.57-21.26a66.52,66.52,0,0,1,2.33-8.31c.25-.76,1.25-1.27,1.9-1.89a11.37,11.37,0,0,1,1.41,1.78,4.44,4.44,0,0,1,.42,1.85c.35,6.92.75,13.84,1,20.76a22.72,22.72,0,0,1-.94,5.15,62.08,62.08,0,0,1-1.45,6.52c-1.41,4.41-3,8.75-4.51,13.13a8.64,8.64,0,0,0-.18,2.11,6.7,6.7,0,0,0,1.68-.74,57.8,57.8,0,0,0,6.57-5.69c1.67-1.86,2.71-4.27,4.17-6.34.45-.63,1.39-.92,2.11-1.37a11.18,11.18,0,0,1,.85,2.34c.26,2.12.3,4.27.57,6.39.59,4.51-1.61,7.4-6.3,9a103.2,103.2,0,0,0-11.31,4.69c-.82.39-1.4,1.76-1.64,2.79-1.13,4.64-2.28,9.29-3,14-.22,1.39.86,3,1.39,4.48.64,1.77,1.34,3.52,2,5.28a37.21,37.21,0,0,1,3.31-4.59c2.68-2.76,5.51-5.39,8.43-7.9.43-.37,1.77,0,2.48.38.31.19.34,1.41.09,2-1.87,4.27-3.7,8.56-5.84,12.68a11.26,11.26,0,0,1-3.8,4.24c-2.2,1.38-1.74,3.25-1.32,4.92a85.66,85.66,0,0,0,2.81,8.12c2,5.39,3.89,10.77,5.88,16.14a5,5,0,0,0,1,1.24,4.12,4.12,0,0,0,.8-1.1,23,23,0,0,0,.94-4.21c.44-5.45.38-11,1.2-16.36,1-6.63,3.15-12.74,8.49-17.63,3.92-3.6,7.72-7.39,11.61-11.06,1-.94,2-1.4,2.8-.42.37.43,0,1.84-.4,2.53-1.23,1.89-2.66,3.65-4.05,5.44-1.14,1.48-2.29,2.83-2.19,5a4.34,4.34,0,0,1-1.46,2.93c-3.12,2.84-4.78,7.31-9.57,8.37-.93.21-2,1.76-2.23,2.85a78,78,0,0,0-1.09,9,8.57,8.57,0,0,0,.59,2.49c.69-.64,1.68-1.14,2-1.93,1.17-2.61,2-5.35,3.17-8a8.6,8.6,0,0,1,1.65-2,7.82,7.82,0,0,1,1.25,2.14c.27,1.25.12,2.58.34,3.86,1,6.26-.24,9.5-5.81,12.56-2.55,1.41-3.56,3.13-4.76,5.81-2.71,6.07-1.27,11.47.45,17.15,1.43,4.72,2.73,9.48,4,14.25a3.92,3.92,0,0,0,3.58,3.33c1,.11,2,.07,2.91.21,3.53.49,3.93.34,2.75-2.63-2.07-5.17-1.54-10.46-1.55-15.74,0-4.18.6-8.4-1.62-12.29a2.2,2.2,0,0,1-.24-1.4c.11-.59.32-1.39.75-1.61a1.67,1.67,0,0,1,1.57.57c1.25,2.53,2.4,5.12,3.5,7.72.3.71.12,1.68.53,2.29,4.54,6.68,2.48,13.76,1.33,20.78-2,1.18.4,2,.25,3a13.36,13.36,0,0,0,1.63-1.16c2.26-2.18,3.11-5.13,4-8,.36-1.2.66-2.36,2-2.06.47.1.7,1.46,1,2.27.1.29,0,.65,0,1,1.2,5.93-1,10.47-5.66,14.08-.51.4-1.12,1.46-.93,1.84a91.73,91.73,0,0,0,4.53,8.4c.75,1.21,1.64.72,1.84-.59,1.39-9,4.75-17.52,6.75-26.39A65.84,65.84,0,0,1,568,192.25c1.65-2.75.59-4.95,0-7.37-.12-.51-1.14-1-1.82-1.14a8.37,8.37,0,0,0-2.91,0c-4.6.69-8-1.92-11.49-4.18-.55-.35-.71-1.3-1.06-2,.66-.3,1.34-.91,2-.85,4,.33,8,.83,11.93,1.22a8.92,8.92,0,0,0,1.91-.2,6.38,6.38,0,0,1-1.12-1.34c-2.43-5.4-7-9.72-8.13-15.75a43.5,43.5,0,0,0-1-4.7c-.71-2.25-1.67-4.42-2.4-6.67a7.36,7.36,0,0,1,0-2.25c.88,0,2.08-.29,2.59.16A37.93,37.93,0,0,1,565.24,158c2.28,4.43,3.1,9.27,4,14.11.55,3.15,1.2,6.29,1.88,9.41a8.66,8.66,0,0,0,1,1.92,9.76,9.76,0,0,0,1.81-1.47c2.41-3.22,4.7-6.53,7.13-9.74a2.64,2.64,0,0,0,.06-3.52,61,61,0,0,0-4.1-5.88,15,15,0,0,1-4.25-8.35c-.65-5-1.75-9.9-2.43-14.88-.11-.77,1-1.7,1.55-2.55a10.54,10.54,0,0,1,1.24,1.7c2.39,5.05,4.83,10.07,7,15.2,1.37,3.2,2.32,6.58,3.58,9.83a8.65,8.65,0,0,0,1.63,2.05c.43-1,1.39-2.07,1.19-2.87-.68-2.7-1.79-5.28-2.69-7.93-.4-1.19-1.15-2.5-.94-3.61.75-4.07,1.81-8.1,2.83-12.12.13-.5.76-1.26,1.09-1.23.7.07,1.75.43,1.94.94.72,1.92,1.6,4,1.59,5.94,0,2.84-.75,5.69-1.17,8.53a9.49,9.49,0,0,0-.36,2.8,20.45,20.45,0,0,0,1.25,3.51c.87-.71,1.75-1.42,2.61-2.14a16.12,16.12,0,0,0,5.15-7.93c2-6.23,4.47-12.21,9.88-16.54,1.94-1.56,3.1-4.06,4.8-6,.52-.59,1.64-.64,2.49-.94a7.07,7.07,0,0,1,.18,2.39c-1.81,6-3.9,11.94-7.66,17.09-.66.91-1.23,2.2-2.13,2.56-4.66,1.82-6.23,6.67-9.69,9.63-1,.88-2.39,2.83-2,3.52.79,1.59,2.62,1.92,4.6,1.4a10.55,10.55,0,0,1,4.9-.15c1.2.28,1.63-.17,2.45-.74a53.52,53.52,0,0,1,6.1-3.51c1.07-.53,2.33.63,2.17,1.83-.35,2.7-7.93,9.68-10.75,9.51a67.42,67.42,0,0,1-10.89-1.37c-3.05-.67-5.24-.28-6.9,2.55-1.38,2.35-3.07,4.52-4.58,6.79a5.2,5.2,0,0,0-.44,1.33c.43,0,.94.19,1.29,0,3.11-1.42,6.32-.64,9.52-.58s6.44-.16,9.65-.27c.63,0,1.33-.37,1.87-.2a18.4,18.4,0,0,0,9.28.76c.75-.14,1.67.68,2.52,1.06-.44.77-.68,1.9-1.34,2.25a60.06,60.06,0,0,1-7.42,3.33c-4.83,1.75-9.75.2-14.58-.09-2.58-.16-5-1.9-7.59-2.82a6.87,6.87,0,0,0-8.29,2.6c-1.78,3-3.62,5.94-5.15,9.05-4.27,8.65-7.09,17.83-9.52,27.14a4.66,4.66,0,0,0,.12,1.42,5.89,5.89,0,0,0,1.5-.38c2.23-1.25,4.33-2.78,6.65-3.81a8.25,8.25,0,0,0,5-8c0-4.49,2-8,4.1-11.59,1.15-1.93,2.32-3.84,3.56-5.72a1.38,1.38,0,0,1,1.15-.55,1.5,1.5,0,0,1,.94,1,6.55,6.55,0,0,1,.09,2.88c-1.51,4.8-1.25,10.13-4.24,14.52a1.67,1.67,0,0,0,.23,1.61,2,2,0,0,0,1.67.14c3.58-1.32,7.19-2.6,10.67-4.16a14.43,14.43,0,0,0,4.27-3.1c4.35-4.52,8.87-8.82,14.24-12.11a8,8,0,0,1,2.45-.58,23.57,23.57,0,0,1,0,2.52c-.05.62-.11,1.47-.51,1.8-3.58,2.91-4.7,7.74-7.9,10.7-4.72,4.37-10.06,8.19-17.24,7.3a13.26,13.26,0,0,0-4.13.61c-3.56.76-7.27,1.13-10.25,3.55a21.3,21.3,0,0,0-1.56,1.59,7.93,7.93,0,0,0,2.17.9,51.27,51.27,0,0,0,9,.59c7.68-.62,14.45,1.71,20.87,5.58,1.1.66,2.48.91,3.43,1.71a3.09,3.09,0,0,1,.61,2.46c0,.36-1.26.82-1.91.78-1.73-.09-3.44-.54-5.17-.64a30.47,30.47,0,0,1-11.83-3c-6.39-3.16-13.16-5.58-20.34-5.51a11.69,11.69,0,0,0-7.61,3.43,17.4,17.4,0,0,0-4.22,9.37c-1.16,7.56-3.28,15-5,22.46a7.84,7.84,0,0,0-.57,2.77c.31,1.75-1.17,4.07,1,5.17,1.14.58,4.76-3.92,4.79-5.71A32.2,32.2,0,0,1,560.31,247c1.45-2.81,2.68-5.74,4-8.61.18-.4.59-1.06.76-1a2.61,2.61,0,0,1,1.57.86,3.79,3.79,0,0,1,.48,2.29c-.54,3.55-1.2,7.08-1.86,10.61-.12.61-.52,1.18-.61,1.79-.31,2-.54,4-.8,6,2-.15,4.69.44,6-.62,2.44-1.9,5.27-1.5,7.44-1.37,5.75.36,11.43-.81,17.13-.22.64.07,1.65.58,1.74,1a2.2,2.2,0,0,1-1,1.82c-6.56,3.1-13.1,6.48-20.68,3.44-.29-.12-.74-.36-.89-.25-3,2.31-6.06.49-9.1.11a3,3,0,0,0-1.8.19q-5.87,3.7-11.63,7.53c-1.24.82-2,4.29-1.33,5.77.19.39,1.24.81,1.48.64,3-2.16,6.51-1.44,9.79-2,2.54-.45,4.81-2.26,7.27-3.28a26.3,26.3,0,0,1,5-1.43,7.69,7.69,0,0,1,2.47.31c-.4.81-.58,1.93-1.23,2.38a51.55,51.55,0,0,1-5.7,3.26c-1.63.84-1.66,1.48-.16,2.69a42.74,42.74,0,0,1,5.39,4.73,13.92,13.92,0,0,0,10.42,5.18,6,6,0,0,1,2,.86,22.43,22.43,0,0,1-1.43,2.16,1.74,1.74,0,0,1-1.24.69c-4.77-.78-10.16.86-14.14-3a34.58,34.58,0,0,1-4.4-6.21,9.39,9.39,0,0,0-8.91-4.49c-1.31.1-2.81-.39-3.92.09-3.41,1.46-4.79,4.13-4.86,8-.07,4.3-1,8.59-1.54,12.89-.35,2.69-.83,5.36-1.15,8.06s.09,5.15-1.74,7.63c-.77,1-1.39,4.06,1.07,5.56.4.24.47,1.16.52,1.78.68,9.18,1.27,18.37,2,27.55.49,5.83,1.29,11.64,1.83,17.47.49,5.41.79,10.84,1.23,16.26a4.64,4.64,0,0,0,.68,1.47c.31-.32.84-.59.91-1,.58-3.17,5-2.15,5.63-5.2.42.15,1.16.23,1.22.46.25,1.14.84,2.62.37,3.44a37.31,37.31,0,0,1-5,6.94c-2,2.2-3.47,4.13-3.16,7.54.7,7.82,1.19,15.63,2.91,23.33.41,1.86,0,3.89.19,5.81.46,4.62,1.06,9.23,1.61,13.84,0,.32.2.62.22.93.51,6.22,1,12.43,1.51,18.65.42,4.91,1,9.82,1.32,14.74a45.44,45.44,0,0,1,0,7c-.06.74-1.05,1.41-1.61,2.11a8.78,8.78,0,0,1-1.93-1.86,5.61,5.61,0,0,1-.26-2.38c-.07-4.64.05-9.28-.23-13.9-.35-5.77-1-11.52-1.57-17.28-.38-4.21-.67-8.44-1.11-12.66-.92-8.59-2-17.16-2.85-25.75-.5-5.13-.72-10.3-1-15.45-.36-6.26-.21-12.6-1.11-18.78a157.88,157.88,0,0,1-1.92-25.95,3.88,3.88,0,0,0-.39-2.32c-1.59-1.94-1.59-4.15-1.56-6.44a5.39,5.39,0,0,0-.34-1.37,7,7,0,0,0-.42,1.24c-.68,5.06-1.36,10.12-2,15.19-.38,3.12.48,6.19-.15,9.43a72.12,72.12,0,0,0-.78,12.92c0,2.71,1,5.54.52,8.09-.58,2.82-.13,5.29.22,8a63.64,63.64,0,0,1,.1,10c-.17,6.83-.6,13.66-.62,20.49,0,5.13.59,10.26.58,15.39,0,4.12-.64,8.23-.74,12.35,0,1.89.66,3.79.74,5.7.14,3.32,0,6.67.12,10,.23,4.68.64,9.34,1,14,.17,2,.75,4,.67,6-.29,7.38,1.81,14.59.73,22.13-1,7.22-.33,14.68-.58,22a47.94,47.94,0,0,1-1.21,8.57c-.16.75-1.55,1.87-2.18,1.75-1.16-.22-1.18-1.26-1-2.65.83-5.63,1.46-11.31,1.79-17,.4-6.86.94-13.78.5-20.61-.69-10.81-.63-21.68-2.54-32.42-.58-3.3.23-6.85.4-10.28,0-1,.14-1.91.12-2.87q-.16-7.2-.36-14.41c-.13-4.51-.34-9-.37-13.51-.06-9.24.08-18.49-.07-27.72-.1-6.09-.75-12.17-.82-18.26,0-4.06.47-8.14.78-12.21s.51-8.36,1.08-12.49c.63-4.52-1.22-8-3.84-11.35a56.16,56.16,0,0,1-4.11-5.83c-.48-.8-.31-2-.43-3,1,.17,2.27.05,3.09.58a50.74,50.74,0,0,1,4.41,3.67,5.93,5.93,0,0,0,1.21.6,4.16,4.16,0,0,0,.55-1.2c.42-5.71.79-11.43,1.21-17.14.24-3.18.85-6.37.74-9.53-.16-4.65-.79-9.28-1.27-13.91-.5-4.83-1.11-9.64-1.56-14.47q-.63-6.48-1-13c-.19-3.2-5.54-5.46-7.45-3.34-3.68,4.06-8.55,2.77-12.88,3.75a27.93,27.93,0,0,1-7,.19c-.53,0-1-.7-1.56-1.07.35-.46.61-1.17,1.07-1.34,1.92-.75,3.9-1.34,5.86-2,.46-.15,1.12,0,1.41-.31,2.68-2.65,6.43-2.53,9.66-3.69,1.79-.63,1.57-1.16.64-2.21-3-3.31-5.19-7.13-7.7-10.75-2.29-3.32-3.07-7.2-5.4-10.43-2-2.82-3.32-6.19-5.24-9.12-.83-1.28-2.47-2-3.59-3.12-.43-.44-.4-1.32-.59-2,.58,0,1.31-.18,1.72.1a49.94,49.94,0,0,1,6.87,5c3.18,3.08,6.89,5.72,9,9.81a89,89,0,0,1,3.78,8.17c1.08,2.77.62,5.78,2.14,8.28.29.49.91.78,1.37,1.16a8.71,8.71,0,0,1,.53-1.51c1.48-2.61,1.34-5.9,3.53-8.24a3,3,0,0,0,.77-2.21c-.58-3.78-1.22-7.55-2.13-11.26-.2-.81-1.54-1.54-2.5-1.92-3.56-1.38-7.15-2.7-10.8-3.82-1.3-.39-3.17-.83-2.63-2a5.52,5.52,0,0,1,3.94-2.71c2.87-.21,5.8.42,8.72.63.41,0,1.22-.32,1.23-.52a2.46,2.46,0,0,0-.49-1.67c-1.72-1.59-3.57-3-5.29-4.62a3.11,3.11,0,0,1-1-1.79c0-.28.91-.82,1.48-1,3.66-.91,3.57-.86,2.57-4.47-1.32-4.75-2.49-9.55-3.72-14.33a4.16,4.16,0,0,0-.22-.94c-.78-1.43-2.59-3.3-2.19-4.19.84-1.89-.3-3.17-.56-4.57-.87-4.67-6.94-9.89-11.59-10.42-1.93-.22-5.93,2.69-6.92,5.1a21.82,21.82,0,0,0-1.64,4.51c-.87,5.08-5.19,6.15-8.93,7.72-2.19.91-3-.22-2.42-2.7.35-1.39.79-2.77,1-4.18.8-4.83,3.55-7.7,8.36-8.65a11.15,11.15,0,0,0,2.21-.87c1.1-.49,2.2-1,3.3-1.53-.95-.77-1.87-1.58-2.86-2.28-3.4-2.38-6.34-2.35-10.45-.4-7.74,3.67-16,4-23.64-1.19a8.81,8.81,0,0,1-1.27-1.25A5.78,5.78,0,0,1,467,173q6-2.1,12-4.06c5.1-1.68,10.14-1.56,14.8,1.25,2.52,1.51,5.44,1.9,7.88,3.94,2,1.69,5.33,1.85,8.05,2.74,1.21.4,2.39.91,3.58,1.4l4,1.68c-.36-1.35-.64-2.73-1.1-4-1.81-5.12-3.55-10.26-5.6-15.28-.54-1.31-2-2.37-3.21-3.26-2.72-1.95-6.21-2.74-8.32-5.63-.86-1.16-1.73-.88-2.79.05-6.29,5.51-9.28,5.65-17.22,2.06-2.82-1.28-5.76-2.94-9.19-2.38a1.67,1.67,0,0,1-1.42-.84,2,2,0,0,1,.72-1.63c1.73-1.15,3.45-2.53,5.39-3.08,1.48-.42,2.92-1.06,4.95-.55,3.95,1,8.34-.18,12.23,1.94.31.16,1.19,0,1.23-.18a2.31,2.31,0,0,0-.09-1.65,12,12,0,0,0-2.51-2.91c-5.45-3.94-8.76-9.67-12.42-15-2.57-3.77-4.18-8.2-6.2-12.34q-2-4.06-3.94-8.16a13.7,13.7,0,0,1-1.34-3.08c-.24-1.18-.53-3.23,0-3.53,1.76-1,1.62,1.32,2.49,2,5.8,4.74,9.48,11.27,13.81,17.19,2.05,2.81,2.51,6.79,3.65,10.26.85,2.57,1.59,5.19,2.52,7.73.16.46,1,.67,1.52,1,.27-.51.81-1,.76-1.5-.22-2.22-.62-4.42-.93-6.63-.56-4-1-8.08-1.68-12.09-.22-1.28.19-1.7,1.26-2.09s1.82-.64,2.36.61c2.6,6.07,6.44,11.79,5.5,18.85a50.58,50.58,0,0,1-1.68,6.12c-.17.65-.45,1.69-.14,2q5,4.77,10.29,9.34c1.07.94,1.75.44,1.63-.95a9.27,9.27,0,0,0-.42-2.36c-3.87-11.17-7.66-22.36-11.71-33.46-1.38-3.75-2.93-7.38-3.69-11.36-.31-1.67-2.2-3.07-3.44-4.53-1.85-2.2-3.38-5-5.74-6.32-2.19-1.21-5.29-.74-8-1.11a4.11,4.11,0,0,1-2.08-.83c-1.8-1.57-3.5-3.26-5.23-4.9-.91-.86-1.49-2-.56-2.94a3,3,0,0,1,2.36-.31c1.82.38,3.6,1,5.41,1.49.51.14,1.44.24,1.57,0a2.07,2.07,0,0,0,.11-1.76,72.82,72.82,0,0,0-4.67-6.74c-3.87-4.76-5.12-10.24-4.74-16.19a2.23,2.23,0,0,1,1.11-1.7,2.41,2.41,0,0,1,2.13.65c1.59,2.75,3.78,5.49,4.3,8.49,1.18,6.87,3.21,13.33,7,19.11,2.08,3.14,4.62,6,7,8.91.16.2.74.35.84.24.3-.3.69-.79.62-1.12-.61-3.12-1.13-6.28-2-9.33a54.72,54.72,0,0,1-2.56-16.09,4.73,4.73,0,0,0-2.69-4.6c-4.25-2.56-8.45-5.34-11-9.85a24.56,24.56,0,0,1-2.67-5.06c-1.7-6-3.17-12-4.63-18.07-.15-.61.36-1.38.57-2.07.72.35,1.79.52,2.1,1.09a39.58,39.58,0,0,1,3.62,7.83c1.66,6.06,5.72,10.47,9.54,15.1.61.73,1,1.67,1.61,2.37a2.6,2.6,0,0,0,1.56.57,1.9,1.9,0,0,0,.47-1.19c-.35-4.91-.59-9.84-1.21-14.72-.25-2-1.7-3.75-2-5.71a95.34,95.34,0,0,1-1.79-12.15c-.17-3.52-1.14-7.09-.87-10.75.29-4,.42-8,.67-11.94a1.35,1.35,0,0,1,.78-1,1.42,1.42,0,0,1,1.24.49,49.72,49.72,0,0,1,2.46,5.16c3.83,9.82,6.48,19.78,3.74,30.42-.73,2.83-1.76,5.72-1.76,8.58a132.24,132.24,0,0,0,1.23,13.42,4.92,4.92,0,0,0,.56,1.3,4.9,4.9,0,0,0,1.54-.87c1.74-2.13,3-4.31,2.84-7.37-.46-6.82,1.36-13.39,3-19.93a71.54,71.54,0,0,1,2.86-8.06,5.09,5.09,0,0,1,1.31-2c.53-.45,1.5-.95,2-.75a2.53,2.53,0,0,1,1.18,1.87c.19,2.5.13,5,.26,7.52.44,8.69-2.14,16.71-5.84,24.34-1.5,3.09-4,5.79-6.4,8.31-1.92,2-1.68,4.37-1.72,6.58-.17,9.23,3.59,17.86,4.43,27,0,.5.71,1,1.08,1.42.3-.33.6-.66.89-1a2.63,2.63,0,0,0,.3-.38c3.76-6.17,3.54-6.51-1-12.7-3-4.09-3.37-8.9-1.68-13.74.22-.64,1-1.61,1.44-1.54a3.17,3.17,0,0,1,2.12,1.4c1.4,2.86,2.57,5.83,3.86,8.75a12.92,12.92,0,0,0,.95,1.53,4.62,4.62,0,0,0,.6-1.5C501,75.65,501,73.07,501,69.81Zm36.72,188.92c.5,3.21,1.18,5.58,1.18,8,0,2.78.27,5,3.26,6.23,1.38.56,2.48,1.8,3.7,2.74.6-1.57,1.21-3.13,1.79-4.7a3.42,3.42,0,0,0,.07-1c.28-5.92.64-11.8,2.7-17.49a26.12,26.12,0,0,0,1.12-7.08,6,6,0,0,0-1-3c-.63-1.11-1.77-2-2.27-3.1-1.46-3.36-4.18-3.55-7.17-3.11a30.77,30.77,0,0,0-3.21.92c-3,.81-3,.81-2.34,3.72a15.9,15.9,0,0,1,.54,2.32c.2,2.31.93,3,3,1.29.88-.76,3-.78,2.6.29-.89,2.57,1.28,5.18-.82,7.72C539.24,254.32,538.56,257,537.73,258.73Zm-58.08-82c.05.2.11.41.17.61,3.29-1.1,6.66-2,9.82-3.36,2.52-1.1,2.44-2,0-3.23a6.47,6.47,0,0,0-2.73-.71c-3.53-.12-7.05-.16-10.22,1.89-1.51,1-3.19,1.71-4.8,2.55,1.93.75,3.84,1.55,5.79,2.22A6.21,6.21,0,0,0,479.65,176.76ZM517.83,84c-.28-2.86-.4-4.79-.68-6.69a5.29,5.29,0,0,0-.95-1.64,11.3,11.3,0,0,0-.56,1.57c-1,4.68-2.09,9.34-2.83,14a31.6,31.6,0,0,0,.08,7.14A8.93,8.93,0,0,0,514,101a8.63,8.63,0,0,0,1.28-2.3C516.22,93.51,517.08,88.31,517.83,84ZM540,278.4l-.16,0c.7,5.37,1.37,10.75,2.15,16.11.09.6.82,1.1,1.24,1.65.49-.67,1.34-1.31,1.39-2,.22-2.89-.6-6.12.43-8.63,1.91-4.67-1.58-6.6-3.57-9.39-.15-.2-.73-.37-.85-.26A2.11,2.11,0,0,0,540,277,7,7,0,0,0,540,278.4ZM485.5,27.82a44.93,44.93,0,0,0-.39-5.75c-.69-3.4-1.58-6.77-2.49-10.13-.12-.48-.76-.82-1.16-1.23-.27.52-.79,1.06-.75,1.57.39,5.73.85,11.47,1.34,17.2a15.55,15.55,0,0,0,.65,3.3,5.58,5.58,0,0,0,1.1,1.48,5.17,5.17,0,0,0,.75-1.35C485,31,485.26,29.12,485.5,27.82ZM509,52.16l-.62-2.74a10.77,10.77,0,0,0-1.28,1.93,63.94,63.94,0,0,0-3.27,15.3,12.29,12.29,0,0,0-.22,2.82A11.48,11.48,0,0,0,504.5,72a7.14,7.14,0,0,0,1.19-2C506.87,63.84,508,57.73,509,52.16ZM499.09,33a27.53,27.53,0,0,0,0-3.4c-.05-.45-.58-.85-.9-1.28-.27.37-.68.7-.77,1.1-1.1,4.86-2.19,9.72-3.18,14.6a7.42,7.42,0,0,0,.24,2.71,1.44,1.44,0,0,0,.74.82c.12.06.64-.3.72-.55C497.37,42.43,499.39,38,499.09,33ZM480.63,148.19l-4.2.64,3.19,1.78a4.29,4.29,0,0,1,1.13.78c3.25,3.74,6.93,1.69,10.51.77.35-.08.88-.85.8-1-.29-.47-.76-1.06-1.24-1.16C487.4,149.34,484,148.77,480.63,148.19Zm38.12-31.29c1.77-.67,4-1.15,5.82-2.32a5.53,5.53,0,0,0,2.64-5.36,1.76,1.76,0,0,0-.56-1.22,1.45,1.45,0,0,0-1.25.31q-3.85,3.27-7.65,6.62a4.53,4.53,0,0,0-.67,1.23Zm16.67,110.39c.44.06,0-.06-.51,0a10.83,10.83,0,0,0-1.59.21c.17.74.11,2,.54,2.17,3,1.48,6,3.14,9.51,2.62.15,0,.42-.61.33-.76-.91-1.54-1.28-3.61-3.52-3.91C538.92,227.41,537.62,227.41,535.42,227.29ZM474.29,113.16c-.14.4-.45.82-.35,1.08a38.2,38.2,0,0,0,2,4.26q2.33,4.17,4.85,8.21c.26.42,1,.56,1.46.83a4.39,4.39,0,0,0,.11-1.38c-1.3-4.9-4.76-8.54-7.47-12.61C474.77,113.43,474.59,113.37,474.29,113.16Zm24,74.11-.67-2.49c-.85.24-2.08.21-2.47.77a17.4,17.4,0,0,0-2.23,4.61,13.65,13.65,0,0,0-.21,3.52c1.11-.6,2.53-1,3.25-1.86A24.74,24.74,0,0,0,498.31,187.27Zm42.34-40.44c-.17-.32-.28-.78-.47-.81a1.92,1.92,0,0,0-1.31.13,33.22,33.22,0,0,0-7,8.55,1.91,1.91,0,0,0,0,1.2c.57.09,1.41.26,1.71,0,1.8-1.83,3.55-3.71,5.17-5.71A20.65,20.65,0,0,0,540.65,146.83Zm-21.15-2.74-.37-1c-.29.12-.68.17-.86.38a29.46,29.46,0,0,0-3.52,4.57c-.8,1.52-2.91,2.82-1.47,5.05,1.39-1.26,3.06-2.32,4.09-3.82S518.83,145.8,519.5,144.09Zm-39.56-85a2.25,2.25,0,0,0-.23-.51c-2.45-3.34-4.9-6.69-7.39-10-.14-.19-.55-.19-.83-.29-.07.29-.3.65-.2.85,1.91,3.9,3.95,7.72,7.61,10.33a3.38,3.38,0,0,0,.86.31C479.83,59.54,479.89,59.3,479.94,59.11Zm-3,32.36,2.16-.68c-.34-.52-.56-1.31-1-1.52A37.48,37.48,0,0,0,474,88l-2.77-.8a13.65,13.65,0,0,0,2.15,2.48A24.71,24.71,0,0,0,476.9,91.47Zm20.68-11.53c-.88-1.8-1.82-3.75-2.77-5.7-.2.15-.57.31-.56.44.21,2,.37,4,.77,5.92.13.63.91,1.13,1.4,1.69Zm-24.07-7.57c-.83-1.68-1.69-3.44-2.57-5.2a1.47,1.47,0,0,0-.37.13c.54,1.86,1.09,3.72,1.7,5.57a.85.85,0,0,0,.77.36C473.22,73.19,473.31,72.76,473.51,72.37Zm21.56,59.43c-.61-1.76-1.22-3.56-1.88-5.34-.1-.28-.39-.48-.59-.72-.11.45-.39.93-.31,1.34.36,1.69.79,3.37,1.29,5,.09.28.69.39,1.06.58C494.77,132.4,494.91,132.13,495.07,131.8Z"/><path class="cls-1" d="M148.56,598.07c-7.3,0-9.5,2.48-11.84,9.78l-25.61,79.71h-5.78l-31-84.67L44.61,687.56H38.83L12,607.85c-2.48-7.44-4.68-9.78-12-9.78v-1.38H26.43v1.38c-10.87,0-11.15,2.34-8.67,9.78l24.65,73.38,29.73-84.54h5.79l30.84,84.54,23.68-73.38c2.34-7.3,2.06-9.78-8.81-9.78v-1.38h24.92Z"/><path class="cls-1" d="M246.58,686.19v1.37H218.5v-1.37c12.11,0,12.25-2.34,9.22-9.36l-13.91-33.19H178.43l-14,33.19c-3,7-2.89,9.36,9.22,9.36v1.37H147.18v-1.37c7.29,0,9.77-2.34,12.8-9.36l30.29-71.32c2.2-5.51,1.65-7.44-6.61-7.44v-1.38h16.11l34,80.14C236.81,683.85,239.29,686.19,246.58,686.19ZM212,639.51l-15.84-37.58-16,37.58Zm-22.58-32.08.55-1.37Z"/><path class="cls-1" d="M334.14,669.8l-2.61,16.39-.28,1.37H272.74v-1.37c6.06,0,6.88-2.62,6.88-10.33V608.4c0-7.71-.82-10.33-6.88-10.33v-1.38H292v1.38c-6.05,0-6.88,2.62-6.88,10.33v75h35.11c7.71,0,10.6-1.79,12.67-13.76Z"/><path class="cls-1" d="M424.46,669.8l-2.61,16.39-.28,1.37H363.06v-1.37c6.05,0,6.88-2.62,6.88-10.33V608.4c0-7.71-.83-10.33-6.88-10.33v-1.38h19.27v1.38c-6.06,0-6.88,2.62-6.88,10.33v75h35.11c7.71,0,10.6-1.79,12.66-13.76Z"/><path class="cls-1" d="M514.78,617.76l-1.38.28c-2.48-15-5.5-17.21-13.22-17.21H465.76v42.68h27.4c7.71,0,10.33-.83,10.33-6.89h1.38v17.9h-1.38c0-6.06-2.62-6.88-10.33-6.88h-27.4v28.22c0,7.71.83,10.33,6.89,10.33v1.37H453.37v-1.37c6.06,0,6.89-2.62,6.89-10.33V608.4c0-7.71-.83-10.33-6.89-10.33v-1.38H511.2l.14.69Z"/><path class="cls-1" d="M606.47,669.8l-2.61,16.39-.28,1.37H545.07v-1.37c6,0,6.88-2.62,6.88-10.33V608.4c0-7.71-.83-10.33-6.88-10.33v-1.38h19.27v1.38c-6.06,0-6.88,2.62-6.88,10.33v75h35.11c7.71,0,10.6-1.79,12.66-13.76Z"/><path class="cls-1" d="M673.25,595.32c25.47,0,40.61,20,40.61,46.81s-15.14,46.81-40.61,46.81-40.62-20-40.62-46.81S647.77,595.32,673.25,595.32Zm3,89.35c21.21-1.51,33.87-20,32-45s-16.66-41.58-38-40.06-33.74,20-32,45S654.93,686.19,676.27,684.67Z"/><path class="cls-1" d="M880.32,598.07c-7.3,0-9.5,2.48-11.84,9.78l-25.61,79.71h-5.78l-31-84.67-29.74,84.67h-5.78l-26.85-79.71c-2.48-7.44-4.68-9.78-12-9.78v-1.38h26.43v1.38c-10.87,0-11.15,2.34-8.67,9.78l24.64,73.38,29.74-84.54h5.79l30.84,84.54,23.68-73.38c2.34-7.3,2.06-9.78-8.81-9.78v-1.38h24.92Z"/><path class="cls-1" d="M967.88,669.8l-2.62,16.39-.27,1.37H906.47v-1.37c6.06,0,6.89-2.62,6.89-10.33V608.4c0-7.71-.83-10.33-6.89-10.33v-1.38h57.14l.28,1.38,2.61,16.39-1.24.13c-2.06-12-5-13.76-12.66-13.76H918.86v38.55h24.65c7.71,0,10.33-.83,10.33-6.89h1.37v17.9h-1.37c0-6.06-2.62-6.88-10.33-6.88H918.86v39.92H954c7.71,0,10.61-1.79,12.67-13.76Z"/><path class="cls-1" d="M1079.67,686.19v1.37c-15.55,0-22.85-1.51-29.05-19.13-2.75-7.71-4.95-14.87-7.16-21.21a67.35,67.35,0,0,1-10,.69c-6.74,0-16.66-1.51-22.85-5.78v33.73c0,7.71.83,10.33,6.88,10.33v1.37H998.17v-1.37c6.06,0,6.88-2.62,6.88-10.33V608.4c0-7.71-.82-10.33-6.88-10.33v-1.38h31.11c14,0,35.25,1.24,35.25,25.61,0,15.15-7.71,21.34-16.25,24,1.93,5,3.86,10.46,6.06,16.25C1062.19,683.57,1065.49,686.19,1079.67,686.19Zm-69.11-85.36v20.65c2.75-1.79,6.75-2.62,11.56-2.62,12.4,0,18.59,8.95,24.51,23.13,8.26-2.89,12.39-9.08,12.39-19.69,0-15.14-8.53-21.47-28.36-21.47Zm31.53,42.26c-4.82-12.25-10-20.1-20.79-20.1-8,0-10.74,3.17-10.74,8.54,0,9.5,11.43,12.25,22.85,12.25A54.65,54.65,0,0,0,1042.09,643.09Z"/><path class="cls-1" d="M394.82,764.24v3H381V741.06h3.17v23.18Z"/><path class="cls-1" d="M426.45,760.78H415.21l-2.32,6.45h-3.28L419,741.06h3.58l9.43,26.17h-3.28Zm-1.1-3-4.54-12.61-4.53,12.61Z"/><path class="cls-1" d="M473,744v8.22h9.14v3H473v12H469.8V741.06h14v3Z"/><path class="cls-1" d="M502.24,744v8.15h8.4v3h-8.4v9.07h10.87v3h-14V741.06h14v3Z"/><path class="cls-1" d="M555.91,741.06v26.17h-3.17V746.81l-9.36,15.11h-1.44l-9.36-15.11v20.42h-3.14V741.06h3.14l10.1,16.21,10.06-16.21Z"/><path class="cls-1" d="M572.2,741.06h3.17v26.17H572.2Z"/><path class="cls-1" d="M612.53,741.06v26.17h-3.17L594.54,746.4v20.83h-3.17V741.06h3.17l14.82,20.82V741.06Z"/><path class="cls-1" d="M628.53,741.06h3.17v26.17h-3.17Z"/><path class="cls-1" d="M668.85,741.06v26.17h-3.17L650.87,746.4v20.83H647.7V741.06h3.17l14.81,20.82V741.06Z"/><path class="cls-1" d="M687.84,744v8.15h8.4v3h-8.4v9.07h10.87v3h-14V741.06h14v3Z"/></g></g></svg>