<svg width="176" height="40" viewBox="0 0 176 40" fill="none" xmlns="http://www.w3.org/2000/svg">
<path d="M0.936599 39.1589C0.80475 39.1303 0.713023 39.0758 0.661418 38.9956C0.567395 38.9199 0.475668 38.8655 0.386237 38.8323C0.377051 38.7474 0.391371 38.6815 0.429197 38.6345C0.467022 38.5875 0.502552 38.5193 0.535784 38.4298C0.57361 38.3828 0.606843 38.2934 0.635482 38.1615C0.621703 38.0343 0.654936 37.9448 0.73518 37.8932C0.810832 37.7992 0.86757 37.7287 0.905396 37.6817C1.02347 37.5831 1.15356 37.3973 1.29568 37.1244L1.90602 36.2215L2.52325 35.3822C2.59891 35.2881 2.63673 35.2411 2.63673 35.2411C2.79263 35.0955 2.85909 34.9166 2.83613 34.7045C2.81316 34.4925 2.79938 34.3652 2.79479 34.3228C2.71671 33.6017 2.69942 33.0456 2.74292 32.6547C2.77723 32.1789 2.81844 31.7667 2.86653 31.4182C2.95245 31.0226 3.02175 30.6718 3.07444 30.3657L3.22398 29.9632L3.35286 29.3699C3.33449 29.2002 3.39352 29.1509 3.52997 29.222C4.01035 29.2987 4.2781 29.5916 4.33322 30.1006L4.34902 32.0301L4.31133 32.8711C4.46263 32.683 4.69418 32.4434 5.00597 32.1521L5.81409 31.2921L5.99119 31.1442C6.05766 30.9654 6.1379 30.9137 6.23193 30.9894C6.35918 30.9756 6.44173 30.9452 6.47955 30.8982L6.72717 30.807C6.89685 30.7887 7.11354 30.8081 7.37723 30.8654L8.11848 31.1714C8.2125 31.247 8.26641 31.3485 8.28018 31.4757C8.28937 31.5606 8.21372 31.6546 8.05323 31.7578C7.72766 31.9218 7.43478 32.1896 7.17459 32.5611C7.17459 32.5611 6.8909 32.9136 6.32352 33.6188L5.52229 34.5424L4.94112 35.1204C4.94572 35.1628 4.9268 35.1863 4.88438 35.1909C4.88438 35.1909 4.90789 35.2098 4.9549 35.2476C4.87925 35.3416 4.84142 35.3887 4.84142 35.3887C4.75659 35.3978 4.69755 35.4471 4.66432 35.5366C4.62649 35.5836 4.63338 35.6472 4.68499 35.7275C4.82035 36.1849 4.98894 36.5529 5.19077 36.8314C5.43501 37.1054 5.76464 37.177 6.17964 37.0462C6.72649 36.9441 7.30198 36.7101 7.90611 36.3443C8.0666 36.2411 8.20817 36.1614 8.33084 36.1052C8.49133 36.002 8.65181 35.8988 8.8123 35.7956C10.0297 35.1487 10.7777 34.7244 11.0563 34.5226L11.9058 34.0444C11.986 33.9928 12.1087 33.9366 12.2738 33.8758C12.4767 33.768 12.6349 33.6436 12.7483 33.5025C12.8286 33.4509 13.1685 33.221 13.768 32.8127C13.8953 32.799 13.9543 32.7497 13.9451 32.6648C14.0964 32.4768 14.2735 32.3288 14.4764 32.221C14.7172 32.0662 14.8776 31.963 14.9579 31.9114L16.4866 31.1665C16.6895 31.0587 16.8735 30.9744 17.0386 30.9136C17.2415 30.8058 17.4444 30.698 17.6473 30.5902L18.7444 30.0208C19.3577 29.7398 19.7446 29.5477 19.9051 29.4445C20.1504 29.3321 20.4806 29.2105 20.8956 29.0798C21.306 28.9066 21.7754 28.6841 22.3039 28.4123C22.5068 28.3045 22.7544 28.2133 23.0468 28.1387C23.3391 28.0642 23.5489 28.02 23.6762 28.0062C23.7988 27.95 23.9049 27.9385 23.9943 27.9718C24.0791 27.9626 24.164 27.9534 24.2488 27.9442C24.4701 28.0061 24.5899 28.1218 24.6083 28.2915C24.6129 28.3339 24.516 28.4303 24.3177 28.5805C24.2421 28.6745 24.0604 28.78 23.7726 28.897C23.7772 28.9394 23.7371 28.9652 23.6522 28.9744C23.4918 29.0776 23.1049 29.2697 22.4915 29.5507C22.3219 29.5691 22.2181 29.6018 22.1803 29.6488C22.0622 29.7474 21.8805 29.8529 21.6352 29.9653C21.3899 30.0777 21.187 30.1855 21.0265 30.2887C20.8706 30.4343 20.6511 30.5869 20.3679 30.7463C20.0847 30.9057 19.8629 31.037 19.7024 31.1402C19.6222 31.1918 19.5207 31.2457 19.3981 31.3019C19.2708 31.3157 19.1671 31.3484 19.0868 31.4C19.0444 31.4046 18.9808 31.4114 18.8959 31.4206C18.8489 31.3828 18.7853 31.3897 18.7051 31.4413C18.6202 31.4505 18.5377 31.4809 18.4574 31.5325C18.4196 31.5795 18.3818 31.6265 18.344 31.6735C18.1881 31.8192 18.0041 31.9034 17.792 31.9264C17.7541 31.9734 17.6928 32.0015 17.608 32.0107C17.5231 32.0199 17.4618 32.048 17.424 32.095C17.3483 32.189 17.1666 32.2945 16.8789 32.4115C16.5063 32.5377 16.2255 32.7183 16.0363 32.9534C15.9561 33.005 15.8311 33.04 15.6614 33.0583L15.4774 33.1426C15.2035 33.3869 15.0453 33.5113 15.0029 33.5159L13.7494 34.4241C13.5889 34.5273 13.4662 34.5835 13.3814 34.5927L13.5516 34.3812L13.3676 34.4655L12.305 35.353L12.0642 35.5078C11.8521 35.5308 11.675 35.6787 11.5329 35.9516L11.3627 36.1631L11.0652 36.3885C11.0228 36.3931 10.9827 36.4189 10.9449 36.4659C10.9024 36.4705 10.8978 36.4281 10.9311 36.3386L10.7333 36.2957C10.6152 36.3943 10.476 36.4952 10.3155 36.5984C10.1928 36.6546 10.0535 36.7555 9.89762 36.9011L9.41616 37.2108C9.25567 37.314 9.05276 37.4218 8.80744 37.5342C8.5667 37.689 8.28125 37.8272 7.95109 37.9488C7.45125 38.0887 7.09529 38.1702 6.88319 38.1932C6.54384 38.2299 6.28474 38.215 6.10588 38.1486C5.31019 37.9343 4.63487 37.6427 4.07991 37.2736C3.99048 37.2403 3.82135 37.0655 3.57251 36.7492C3.51631 36.6265 3.43147 36.6357 3.318 36.7767C3.09104 37.0588 2.95636 37.2021 2.91394 37.2067C2.61133 37.5828 2.40788 37.8838 2.30359 38.1097L2.06286 38.2645L1.71554 38.624L1.42496 38.9129C1.23583 39.148 1.07304 39.23 0.936599 39.1589Z" fill="black"/>
<path d="M19.8516 37.0464C19.6727 36.98 19.5575 36.9066 19.5059 36.8264L19.1602 36.6063L19.0759 36.4223C19.1091 36.3329 19.0742 36.2079 18.9709 36.0474C18.8769 35.9718 18.8723 35.9294 18.9572 35.9202C19.0282 35.7837 18.9932 35.6588 18.8522 35.5453C18.8006 35.4651 18.7937 35.4014 18.8315 35.3544C18.8224 35.2696 18.8132 35.1848 18.804 35.0999C18.8418 35.0529 18.8538 34.9658 18.84 34.8385C18.7414 34.7204 18.7231 34.5508 18.7849 34.3295C18.8182 34.2401 18.8233 34.0893 18.8003 33.8772L18.9223 33.2202C18.9085 33.093 18.9303 32.8975 18.9876 32.6338C19.0208 32.5444 19.0804 32.3019 19.1663 31.9064C19.2992 31.5486 19.3777 31.2826 19.4018 31.1084L19.651 30.4376C19.7267 30.3436 19.8453 30.0518 20.0068 29.5622L20.4263 28.68L20.9094 27.7908L21.1793 27.3109L21.1655 27.1837C21.1563 27.0989 21.2154 27.0495 21.3426 27.0358C21.3426 27.0358 21.3805 26.9888 21.4561 26.8947C21.5409 26.8855 21.5834 26.881 21.5834 26.881C21.6258 26.8764 21.7364 26.9073 21.9153 26.9738L21.9927 27.0941C22.0821 27.1274 22.1268 27.144 22.1268 27.144L22.2971 26.9324L22.4243 26.9186C22.5137 26.9519 22.5585 26.9685 22.5585 26.9685L22.6152 26.898C22.7 26.8888 22.8227 26.8326 22.9832 26.7294C23.2663 26.57 23.4784 26.547 23.6195 26.6605C23.7089 26.6937 23.7771 26.7292 23.8241 26.7671C23.8665 26.7625 23.9113 26.7791 23.9583 26.8169C24.0901 26.8456 24.1796 26.8788 24.2266 26.9166C24.316 26.9499 24.3842 26.9854 24.4312 27.0232C24.4782 27.061 24.5442 27.0754 24.629 27.0662C24.9019 27.2083 25.0664 27.3407 25.1226 27.4633C25.1696 27.5012 25.2 27.5837 25.2138 27.711C25.246 28.0079 25.3371 28.2555 25.4874 28.4538L25.5011 28.5811C25.4771 28.7554 25.472 28.9061 25.4857 29.0334C25.5374 29.1136 25.5677 29.1962 25.5769 29.281L25.6183 29.6628C25.6275 29.7476 25.6745 29.7854 25.7593 29.7762L26.7911 29.7933C27.0927 29.8035 27.3495 29.7972 27.5616 29.7742C27.7691 29.7088 27.9576 29.667 28.1273 29.6486L28.8272 29.5728C28.8697 29.5682 28.8932 29.5871 28.8978 29.6295C29.1523 29.602 29.3409 29.5601 29.4635 29.5039L29.6475 29.4196C29.7323 29.4104 29.7725 29.3846 29.7679 29.3422L30.0929 29.3714C30.2156 29.3152 30.3829 29.2756 30.595 29.2526L30.7154 29.1752L30.779 29.1683C30.826 29.2062 30.8708 29.2228 30.9132 29.2182C30.951 29.1712 30.9911 29.1454 31.0335 29.1408C31.1184 29.1316 31.2009 29.1012 31.2812 29.0496C31.4038 28.9934 31.5076 28.9607 31.5924 28.9515L31.6492 28.881L31.7695 28.8036C31.9014 28.8322 31.9839 28.8018 32.0171 28.7124C32.055 28.6654 32.0762 28.6631 32.0808 28.7055C32.1702 28.7387 32.255 28.7296 32.3353 28.678C32.458 28.6218 32.5617 28.5891 32.6465 28.5799C32.7314 28.5707 32.8139 28.5403 32.8942 28.4887C33.0168 28.4325 33.1206 28.3998 33.2054 28.3906C33.3751 28.3722 33.5213 28.335 33.6439 28.2788C33.7666 28.2226 33.868 28.1687 33.9483 28.1171C34.0331 28.1079 34.0945 28.0798 34.1323 28.0328L34.2595 28.019C34.2974 27.972 34.3587 27.9439 34.4435 27.9347C34.5662 27.8785 34.6464 27.8269 34.6843 27.7799C35.2219 27.5929 35.512 27.4971 35.5544 27.4925L36.1769 27.2964L36.3609 27.2121C36.479 27.1135 36.585 27.102 36.679 27.1776L36.7427 27.1707C36.8183 27.0767 36.8819 27.0698 36.9335 27.1501L37.0539 27.0727L37.2379 26.9884L37.5491 26.8903L37.6764 26.8765C37.6856 26.9614 37.669 27.0061 37.6266 27.0107L37.4701 27.3495C37.4323 27.3965 37.4203 27.4836 37.4341 27.6109L37.4478 27.7381C37.4524 27.7806 37.4335 27.8041 37.3911 27.8087C37.3017 27.7754 37.2191 27.8058 37.1435 27.8998C37.03 28.0409 36.9497 28.0925 36.9027 28.0547L36.662 28.2095C36.5772 28.2187 36.537 28.2445 36.5416 28.2869L36.2871 28.3144C36.2493 28.3614 36.188 28.3895 36.1031 28.3987L35.8555 28.4899C35.8177 28.5369 35.7586 28.5862 35.6784 28.6378C35.5936 28.647 35.5064 28.635 35.417 28.6018L35.4377 28.7927C35.3482 28.7594 35.2634 28.7686 35.1832 28.8202C35.1029 28.8718 35.0393 28.8787 34.9923 28.8409L34.865 28.8547L34.6243 29.0095C34.497 29.0233 34.3107 29.0863 34.0654 29.1987C33.9382 29.2125 33.792 29.2498 33.6269 29.3106C33.5042 29.3668 33.3793 29.4018 33.252 29.4156C33.1718 29.4672 33.068 29.4999 32.9408 29.5136C32.9029 29.5606 32.8628 29.5864 32.8204 29.591C32.8158 29.5486 32.7946 29.5509 32.7568 29.5979C32.6719 29.6071 32.6295 29.6117 32.6295 29.6117C32.5917 29.6587 32.5304 29.6868 32.4455 29.696C32.4031 29.7006 32.3607 29.7052 32.3183 29.7098L32.2546 29.7167L32.0139 29.8715L31.7027 29.9696L31.4413 29.9335L30.6348 30.2139L30.3802 30.2415C30.0501 30.3631 29.7979 30.4119 29.6236 30.3878L28.6761 30.5548L27.5308 30.6788L26.965 30.8044L26.64 30.7752L26.5763 30.7821L26.456 30.8595C26.2817 30.8355 26.0461 30.8395 25.7492 30.8717C25.6643 30.8809 25.603 30.909 25.5652 30.956C25.5274 31.003 25.513 31.0689 25.5222 31.1538L25.3658 31.4926L25.2025 31.7678L25.1028 32.036L25.0598 32.2338L24.9532 32.4385L24.7899 32.7137L24.6695 32.7911L24.6059 32.798C24.5394 32.9768 24.4684 33.1133 24.3927 33.2073L24.2363 33.5461L24.1366 33.8144L23.9165 34.1601L23.8598 34.2306L23.7532 34.4353C23.6019 34.6233 23.5262 34.7173 23.5262 34.7173L23.3062 35.063C23.1789 35.0768 23.0987 35.1284 23.0654 35.2179C23.0322 35.3073 23.0179 35.3732 23.0225 35.4156L22.9726 35.5498C22.8454 35.5636 22.7296 35.6834 22.6253 35.9093C22.4362 36.1443 22.3416 36.2618 22.3416 36.2618L22.1078 36.4803L21.7467 36.7125L21.1311 36.9723L21.138 37.0359L20.4449 37.1753L19.8516 37.0464ZM20.6269 35.2888C20.863 35.0915 21.0166 34.9247 21.0877 34.7883L21.7187 34.0762C21.7519 33.9868 21.8064 33.895 21.882 33.801C22.0001 33.7024 22.0735 33.5872 22.1021 33.4553C22.0975 33.4129 22.0952 33.3917 22.0952 33.3917C22.1376 33.3871 22.1588 33.3848 22.1588 33.3848C22.2013 33.3802 22.2414 33.3544 22.2792 33.3074C22.3549 33.2134 22.3904 33.1451 22.3858 33.1027L22.5491 32.8275C22.7004 32.6395 22.8162 32.5197 22.8964 32.4681L23.2162 31.8541L23.6855 30.8377C23.6809 30.7952 23.6574 30.7763 23.615 30.7809L23.4877 30.7947C23.3983 30.7615 23.3112 30.7494 23.2263 30.7586C23.1369 30.7254 23.0475 30.6922 22.958 30.6589L22.8944 30.6658L22.3647 30.53C22.0024 30.3547 21.6779 30.1323 21.3913 29.863C21.3442 29.8251 21.3018 29.8297 21.264 29.8767L21.1351 30.4701C21.1019 30.5595 21.04 30.7808 20.9495 31.1339C20.883 31.3128 20.8258 31.5765 20.7777 31.925L20.6557 32.5819C20.5846 32.7184 20.5348 32.8525 20.5061 32.9844C20.4775 33.1162 20.4466 33.2269 20.4133 33.3163C20.4179 33.3587 20.4248 33.4223 20.434 33.5072C20.481 33.545 20.4879 33.6086 20.4547 33.6981C20.4066 34.0466 20.3894 34.2845 20.4032 34.4118C20.3551 34.7603 20.3379 34.9982 20.3517 35.1254L20.3724 35.3163L20.6269 35.2888ZM24.0705 29.6372L24.0928 29.2486C24.1215 29.1167 24.0842 28.9706 23.981 28.8101L23.9603 28.6192C23.716 28.3452 23.5704 28.1893 23.5234 28.1515C23.2884 27.9624 23.0717 27.9429 22.8734 28.0931C22.7885 28.1023 22.7272 28.1304 22.6894 28.1774L22.6257 28.1843L22.3283 28.4096C22.2148 28.5507 22.1626 28.6636 22.1718 28.7485L22.3335 29.0528C22.5216 29.2041 22.7027 29.2918 22.877 29.3158L22.9406 29.309C23.0817 29.4224 23.3264 29.5032 23.675 29.5513L23.9433 29.651L24.0705 29.6372ZM27.8436 30.0012C28.0649 30.063 28.2535 30.0212 28.4094 29.8755L28.5298 29.7981C28.5298 29.7981 28.4828 29.7603 28.3887 29.6847L28.332 29.7552C28.2896 29.7598 28.2707 29.7833 28.2752 29.8257C28.2328 29.8303 28.089 29.8888 27.8436 30.0012ZM29.8023 29.6603C29.7083 29.5847 29.659 29.5257 29.6544 29.4832L29.6046 29.6174C29.6137 29.7022 29.6395 29.7423 29.682 29.7377L29.8023 29.6603Z" fill="black"/>
<path d="M34.493 35.5255C34.3611 35.4968 34.2694 35.4424 34.2178 35.3622C34.1238 35.2865 34.032 35.2321 33.9426 35.1988C33.9334 35.114 33.9477 35.0481 33.9856 35.001C34.0234 34.954 34.0589 34.8858 34.0921 34.7964C34.13 34.7494 34.1632 34.6599 34.1918 34.5281C34.1781 34.4008 34.2113 34.3114 34.2915 34.2598C34.3672 34.1658 34.4239 34.0953 34.4618 34.0483C34.5798 33.9496 34.7099 33.7639 34.852 33.491L35.4624 32.5881L36.0796 31.7487C36.1553 31.6547 36.1931 31.6077 36.1931 31.6077C36.349 31.4621 36.4155 31.2832 36.3925 31.0711C36.3695 30.859 36.3557 30.7318 36.3512 30.6893C36.2731 29.9682 36.2558 29.4122 36.2993 29.0212C36.3336 28.5454 36.3748 28.1333 36.4229 27.7847C36.5088 27.3892 36.5781 27.0384 36.6308 26.7322L36.7803 26.3298L36.9092 25.7365C36.8908 25.5668 36.9499 25.5175 37.0863 25.5886C37.5667 25.6653 37.8345 25.9582 37.8896 26.4672L37.9054 28.3967L37.8677 29.2376C38.019 29.0496 38.2505 28.81 38.5623 28.5187L39.3704 27.6587L39.5476 27.5108C39.614 27.3319 39.6943 27.2803 39.7883 27.356C39.9155 27.3422 39.9981 27.3118 40.0359 27.2648L40.2835 27.1736C40.4532 27.1552 40.6699 27.1747 40.9336 27.232L41.6748 27.5379C41.7689 27.6136 41.8228 27.715 41.8365 27.8423C41.8457 27.9271 41.7701 28.0212 41.6096 28.1244C41.284 28.2884 40.9911 28.5561 40.731 28.9276C40.731 28.9276 40.4473 29.2802 39.8799 29.9854L39.0786 30.909L38.4975 31.4869C38.5021 31.5293 38.4832 31.5528 38.4407 31.5574C38.4407 31.5574 38.4642 31.5764 38.5113 31.6142C38.4356 31.7082 38.3978 31.7552 38.3978 31.7552C38.3129 31.7644 38.2539 31.8137 38.2207 31.9031C38.1829 31.9502 38.1897 32.0138 38.2413 32.094C38.3767 32.5514 38.5453 32.9194 38.7471 33.198C38.9914 33.472 39.321 33.5436 39.736 33.4128C40.2828 33.3107 40.8583 33.0767 41.4625 32.7109C41.623 32.6076 41.7645 32.5279 41.8872 32.4717C42.0477 32.3685 42.2082 32.2653 42.3687 32.1621C43.5861 31.5153 44.3341 31.091 44.6127 30.8892L45.4621 30.4109C45.5424 30.3593 45.665 30.3031 45.8301 30.2423C46.033 30.1345 46.1912 30.0101 46.3047 29.8691C46.3849 29.8175 46.7248 29.5876 47.3244 29.1793C47.4516 29.1655 47.5107 29.1162 47.5015 29.0314C47.6528 28.8433 47.8299 28.6954 48.0328 28.5876C48.2735 28.4328 48.434 28.3296 48.5142 28.278L50.0429 27.5331C50.2459 27.4253 50.4298 27.341 50.5949 27.2802C50.7978 27.1724 51.0007 27.0646 51.2037 26.9568L52.3007 26.3874C52.914 26.1064 53.3009 25.9143 53.4614 25.8111C53.7068 25.6987 54.0369 25.5771 54.4519 25.4463C54.8623 25.2731 55.3318 25.0507 55.8603 24.7789C56.0632 24.671 56.3108 24.5799 56.6031 24.5053C56.8955 24.4307 57.1053 24.3865 57.2325 24.3728C57.3552 24.3166 57.4612 24.3051 57.5507 24.3383C57.6355 24.3291 57.7203 24.3199 57.8052 24.3108C58.0265 24.3726 58.1463 24.4884 58.1646 24.6581C58.1692 24.7005 58.0724 24.7968 57.8741 24.947C57.7984 25.0411 57.6167 25.1466 57.329 25.2636C57.3336 25.306 57.2934 25.3318 57.2086 25.341C57.0481 25.4442 56.6612 25.6363 56.0479 25.9173C55.8782 25.9356 55.7745 25.9683 55.7366 26.0153C55.6186 26.114 55.4369 26.2195 55.1916 26.3319C54.9462 26.4443 54.7433 26.5521 54.5828 26.6553C54.4269 26.8009 54.2074 26.9534 53.9243 27.1128C53.6411 27.2722 53.4193 27.4035 53.2588 27.5067C53.1786 27.5584 53.0771 27.6123 52.9544 27.6685C52.8272 27.6822 52.7234 27.7149 52.6432 27.7665C52.6008 27.7711 52.5371 27.778 52.4523 27.7872C52.4053 27.7494 52.3417 27.7563 52.2614 27.8079C52.1766 27.8171 52.094 27.8474 52.0138 27.8991C51.976 27.9461 51.9381 27.9931 51.9003 28.0401C51.7444 28.1857 51.5604 28.27 51.3483 28.293C51.3105 28.34 51.2492 28.3681 51.1643 28.3773C51.0795 28.3865 51.0182 28.4146 50.9803 28.4616C50.9047 28.5556 50.723 28.6611 50.4352 28.7781C50.0627 28.9043 49.7818 29.0849 49.5927 29.3199C49.5124 29.3715 49.3875 29.4065 49.2178 29.4249L49.0338 29.5092C48.7598 29.7534 48.6016 29.8779 48.5592 29.8825L47.3057 30.7907C47.1452 30.8939 47.0226 30.9501 46.9377 30.9593L47.1079 30.7477L46.924 30.832L45.8613 31.7196L45.6206 31.8744C45.4085 31.8973 45.2314 32.0453 45.0893 32.3182L44.9191 32.5297L44.6216 32.755C44.5792 32.7596 44.539 32.7854 44.5012 32.8324C44.4588 32.837 44.4542 32.7946 44.4874 32.7052L44.2897 32.6622C44.1716 32.7608 44.0323 32.8618 43.8718 32.965C43.7492 33.0212 43.6099 33.1221 43.454 33.2677L42.9725 33.5773C42.812 33.6805 42.6091 33.7883 42.3638 33.9007C42.1231 34.0556 41.8376 34.1938 41.5075 34.3153C41.0076 34.4553 40.6516 34.5368 40.4396 34.5597C40.1002 34.5965 39.8411 34.5816 39.6622 34.5151C38.8665 34.3009 38.1912 34.0092 37.6363 33.6401C37.5468 33.6069 37.3777 33.4321 37.1289 33.1157C37.0727 32.9931 36.9878 33.0022 36.8744 33.1433C36.6474 33.4253 36.5127 33.5687 36.4703 33.5733C36.1677 33.9494 35.9642 34.2504 35.86 34.4762L35.6192 34.631L35.2719 34.9905L34.9813 35.2795C34.7922 35.5145 34.6294 35.5965 34.493 35.5255Z" fill="black"/>
<path d="M53.408 33.413C53.2291 33.3465 53.1139 33.2732 53.0623 33.1929L52.7166 32.9729L52.6323 32.7889C52.6655 32.6995 52.6305 32.5745 52.5273 32.414C52.4333 32.3384 52.4287 32.2959 52.5135 32.2868C52.5846 32.1503 52.5496 32.0253 52.4086 31.9119C52.357 31.8316 52.3501 31.768 52.3879 31.721C52.3787 31.6362 52.3695 31.5513 52.3603 31.4665C52.3982 31.4195 52.4102 31.3323 52.3964 31.2051C52.2978 31.087 52.2794 30.9173 52.3413 30.6961C52.3745 30.6066 52.3797 30.4559 52.3567 30.2438L52.4787 29.5868C52.4649 29.4596 52.4867 29.2641 52.5439 29.0004C52.5772 28.911 52.6367 28.6685 52.7227 28.2729C52.8556 27.9152 52.9341 27.6492 52.9581 27.4749L53.2074 26.8042C53.283 26.7102 53.4016 26.4184 53.5632 25.9288L53.9827 25.0465L54.4658 24.1574L54.7357 23.6775L54.7219 23.5503C54.7127 23.4654 54.7717 23.4161 54.899 23.4023C54.899 23.4023 54.9368 23.3553 55.0125 23.2613C55.0973 23.2521 55.1397 23.2475 55.1397 23.2475C55.1821 23.2429 55.2928 23.2739 55.4716 23.3403L55.5491 23.4607C55.6385 23.4939 55.6832 23.5105 55.6832 23.5105L55.8534 23.299L55.9807 23.2852C56.0701 23.3184 56.1148 23.3351 56.1148 23.3351L56.1716 23.2645C56.2564 23.2554 56.3791 23.1992 56.5395 23.0959C56.8227 22.9365 57.0348 22.9136 57.1758 23.0271C57.2653 23.0603 57.3335 23.0958 57.3805 23.1336C57.4229 23.129 57.4676 23.1457 57.5146 23.1835C57.6465 23.2121 57.7359 23.2454 57.7829 23.2832C57.8724 23.3164 57.9406 23.3519 57.9876 23.3898C58.0346 23.4276 58.1005 23.4419 58.1854 23.4327C58.4582 23.5748 58.6228 23.7072 58.679 23.8299C58.726 23.8677 58.7564 23.9503 58.7702 24.0775C58.8023 24.3745 58.8935 24.6221 59.0437 24.8204L59.0575 24.9476C59.0335 25.1219 59.0283 25.2727 59.0421 25.3999C59.0937 25.4802 59.1241 25.5627 59.1333 25.6476L59.1746 26.0293C59.1838 26.1142 59.2308 26.152 59.3157 26.1428L60.3475 26.1598C60.649 26.1701 60.9058 26.1637 61.1179 26.1408C61.3254 26.0754 61.514 26.0335 61.6837 26.0151L62.3836 25.9394C62.426 25.9348 62.4495 25.9537 62.4541 25.9961C62.7086 25.9685 62.8972 25.9267 63.0199 25.8705L63.2039 25.7862C63.2887 25.777 63.3288 25.7512 63.3242 25.7088L63.6493 25.7379C63.7719 25.6817 63.9393 25.6422 64.1514 25.6192L64.2718 25.5418L64.3354 25.5349C64.3824 25.5727 64.4271 25.5893 64.4695 25.5847C64.5074 25.5377 64.5475 25.5119 64.5899 25.5073C64.6748 25.4982 64.7573 25.4678 64.8375 25.4162C64.9602 25.36 65.0639 25.3273 65.1488 25.3181L65.2055 25.2476L65.3259 25.1702C65.4577 25.1988 65.5403 25.1684 65.5735 25.079C65.6113 25.032 65.6325 25.0297 65.6371 25.0721C65.7266 25.1053 65.8114 25.0961 65.8917 25.0445C66.0143 24.9883 66.1181 24.9556 66.2029 24.9464C66.2877 24.9373 66.3703 24.9069 66.4505 24.8553C66.5732 24.7991 66.6769 24.7664 66.7618 24.7572C66.9315 24.7388 67.0776 24.7015 67.2003 24.6453C67.323 24.5891 67.4244 24.5352 67.5046 24.4836C67.5895 24.4744 67.6508 24.4463 67.6886 24.3993L67.8159 24.3855C67.8537 24.3385 67.9151 24.3104 67.9999 24.3013C68.1226 24.2451 68.2028 24.1934 68.2406 24.1464C68.7783 23.9595 69.0683 23.8637 69.1107 23.8591L69.7333 23.6629L69.9172 23.5786C70.0353 23.48 70.1414 23.4685 70.2354 23.5442L70.299 23.5373C70.3747 23.4433 70.4383 23.4364 70.4899 23.5166L70.6103 23.4392L70.7943 23.3549L71.1055 23.2569L71.2328 23.2431C71.242 23.3279 71.2253 23.3726 71.1829 23.3772L71.0265 23.716C70.9887 23.7631 70.9766 23.8502 70.9904 23.9774L71.0042 24.1047C71.0088 24.1471 70.9899 24.1706 70.9475 24.1752C70.858 24.142 70.7755 24.1724 70.6998 24.2664C70.5864 24.4074 70.5061 24.459 70.4591 24.4212L70.2184 24.576C70.1335 24.5852 70.0934 24.611 70.098 24.6534L69.8435 24.681C69.8057 24.728 69.7443 24.7561 69.6595 24.7653L69.4119 24.8565C69.374 24.9035 69.315 24.9528 69.2348 25.0044C69.1499 25.0136 69.0628 25.0016 68.9734 24.9683L68.994 25.1592C68.9046 25.126 68.8198 25.1352 68.7395 25.1868C68.6593 25.2384 68.5956 25.2453 68.5486 25.2074L68.4214 25.2212L68.1806 25.376C68.0534 25.3898 67.8671 25.4529 67.6218 25.5653C67.4945 25.5791 67.3483 25.6164 67.1833 25.6772C67.0606 25.7334 66.9356 25.7683 66.8084 25.7821C66.7281 25.8337 66.6244 25.8664 66.4971 25.8802C66.4593 25.9272 66.4192 25.953 66.3768 25.9576C66.3722 25.9152 66.351 25.9175 66.3131 25.9645C66.2283 25.9737 66.1859 25.9783 66.1859 25.9783C66.1481 26.0253 66.0867 26.0534 66.0019 26.0626C65.9595 26.0672 65.917 26.0718 65.8746 26.0763L65.811 26.0832L65.5703 26.2381L65.259 26.3361L64.9976 26.3001L64.1911 26.5805L63.9366 26.6081C63.6064 26.7296 63.3542 26.7784 63.18 26.7544L62.2324 26.9213L61.0871 27.0454L60.5214 27.171L60.1963 27.1418L60.1327 27.1487L60.0123 27.2261C59.8381 27.2021 59.6025 27.2061 59.3055 27.2383C59.2207 27.2474 59.1594 27.2755 59.1215 27.3226C59.0837 27.3696 59.0694 27.4355 59.0786 27.5203L58.9221 27.8591L58.7588 28.1343L58.6591 28.4026L58.6162 28.6004L58.5096 28.805L58.3462 29.0802L58.2259 29.1576L58.1623 29.1645C58.0958 29.3434 58.0247 29.4798 57.9491 29.5739L57.7926 29.9127L57.6929 30.181L57.4729 30.5267L57.4161 30.5972L57.3096 30.8018C57.1582 30.9899 57.0826 31.0839 57.0826 31.0839L56.8625 31.4296C56.7353 31.4434 56.655 31.495 56.6218 31.5844C56.5886 31.6738 56.5742 31.7398 56.5788 31.7822L56.529 31.9163C56.4017 31.9301 56.286 32.0499 56.1817 32.2758C55.9925 32.5109 55.898 32.6284 55.898 32.6284L55.6641 32.8468L55.303 33.0791L54.6874 33.3388L54.6943 33.4025L54.0013 33.5419L53.408 33.413ZM54.1833 31.6553C54.4194 31.4581 54.573 31.2913 54.6441 31.1548L55.2751 30.4428C55.3083 30.3533 55.3627 30.2616 55.4384 30.1676C55.5565 30.069 55.6298 29.9537 55.6585 29.8219C55.6539 29.7795 55.6516 29.7583 55.6516 29.7583C55.694 29.7537 55.7152 29.7514 55.7152 29.7514C55.7576 29.7468 55.7977 29.721 55.8356 29.674C55.9112 29.5799 55.9468 29.5117 55.9422 29.4693L56.1055 29.1941C56.2568 29.0061 56.3726 28.8862 56.4528 28.8346L56.7726 28.2206L57.2419 27.2042C57.2373 27.1618 57.2138 27.1429 57.1714 27.1475L57.0441 27.1613C56.9547 27.128 56.8675 27.116 56.7827 27.1252C56.6933 27.092 56.6038 27.0587 56.5144 27.0255L56.4508 27.0324L55.9211 26.8966C55.5588 26.7213 55.2343 26.4989 54.9476 26.2295C54.9006 26.1917 54.8582 26.1963 54.8204 26.2433L54.6915 26.8366C54.6583 26.9261 54.5964 27.1473 54.5059 27.5005C54.4394 27.6793 54.3821 27.943 54.334 28.2916L54.212 28.9485C54.141 29.085 54.0911 29.2191 54.0625 29.3509C54.0339 29.4828 54.0029 29.5934 53.9697 29.6829C53.9743 29.7253 53.9812 29.7889 53.9904 29.8738C54.0374 29.9116 54.0443 29.9752 54.011 30.0646C53.9629 30.4132 53.9458 30.6511 53.9596 30.7783C53.9115 31.1269 53.8943 31.3648 53.9081 31.492L53.9288 31.6829L54.1833 31.6553ZM57.6269 26.0038L57.6492 25.6151C57.6778 25.4833 57.6405 25.3371 57.5373 25.1766L57.5167 24.9857C57.2724 24.7118 57.1268 24.5559 57.0798 24.5181C56.8447 24.3289 56.628 24.3095 56.4297 24.4597C56.3449 24.4689 56.2835 24.497 56.2457 24.544L56.1821 24.5509L55.8846 24.7762C55.7711 24.9172 55.719 25.0302 55.7282 25.115L55.8899 25.4194C56.0779 25.5707 56.2591 25.6584 56.4334 25.6824L56.497 25.6755C56.638 25.789 56.8828 25.8698 57.2313 25.9179L57.4996 26.0176L57.6269 26.0038ZM61.4 26.3677C61.6213 26.4296 61.8099 26.3877 61.9658 26.2421L62.0861 26.1647C62.0861 26.1647 62.0391 26.1269 61.9451 26.0512L61.8884 26.1217C61.8459 26.1263 61.827 26.1498 61.8316 26.1923C61.7892 26.1968 61.6453 26.2553 61.4 26.3677ZM63.3587 26.0269C63.2647 25.9513 63.2154 25.8922 63.2108 25.8498L63.1609 25.9839C63.1701 26.0688 63.1959 26.1089 63.2383 26.1043L63.3587 26.0269Z" fill="black"/>
<path d="M83.5008 31.3133C83.2417 31.2985 82.9241 31.1397 82.548 30.8371C82.36 30.6858 82.2401 30.5701 82.1885 30.4898L82.0974 30.2422C82.0549 30.2468 82.0314 30.2279 82.0268 30.1855C81.8858 30.072 81.7522 29.8289 81.626 29.4564C81.5698 29.3337 81.5537 29.1852 81.5778 29.011C81.5594 28.8413 81.5456 28.714 81.5365 28.6292L81.5227 28.5019C81.4287 28.4263 81.4218 28.3627 81.502 28.3111L81.4882 28.1838L81.5381 28.0497C81.5197 27.88 81.5271 27.7504 81.5604 27.661C81.5466 27.5337 81.5683 27.3383 81.6256 27.0746C81.6543 26.9427 81.7494 26.632 81.9109 26.1424L82.4868 24.9213L82.7928 24.1801L83.1555 23.3683L83.716 22.5995L84.5035 21.5487C84.735 21.309 84.9431 21.0504 85.1276 20.773L85.5953 20.3361C85.7466 20.148 85.8624 20.0282 85.9426 19.9766C86.533 19.4835 86.8683 19.2112 86.9485 19.1596C87.0998 18.9715 87.2156 18.8517 87.2958 18.8001C87.5079 18.7771 87.6375 18.7846 87.6845 18.8224C87.8209 18.8934 87.9362 18.9668 88.0302 19.0424C88.1666 19.1135 88.3031 19.1846 88.4395 19.2556C88.5759 19.3267 88.6981 19.4637 88.8059 19.6666L88.94 19.7164C89.2083 19.8161 89.2903 19.9789 89.186 20.2048L88.88 20.946C88.88 20.946 88.8422 20.993 88.7666 21.0871C88.7666 21.0871 88.7287 21.1341 88.6531 21.2281L88.6032 21.3622L88.4966 21.5669L88.5035 21.6305C88.3809 21.6867 88.2651 21.8065 88.1562 21.99C88.0897 22.1689 88.0187 22.3053 87.943 22.3993L87.8794 22.4062C87.8508 22.5381 87.7797 22.6745 87.6662 22.8155C87.5528 22.9566 87.4582 23.0741 87.3825 23.1681L86.9785 23.5981L86.9286 23.7323L86.8083 23.8097L86.5177 24.0986C86.4753 24.1032 86.2603 24.2982 85.8729 24.6835L85.2212 25.2046C85.0607 25.3078 84.8246 25.5051 84.5128 25.7963C84.4371 25.8904 84.3357 25.9443 84.2084 25.958C83.9253 26.1174 83.661 26.2533 83.4157 26.3657C83.246 26.3841 83.1257 26.4615 83.0546 26.598C83.026 26.7298 82.9927 26.8192 82.9549 26.8663C82.7417 27.2756 82.5968 27.7204 82.5201 28.2008C82.4765 28.5918 82.4898 28.9122 82.5598 29.1621C82.6951 29.6196 83.3945 29.737 84.6579 29.5143L84.9691 29.4162C85.0069 29.3692 85.0895 29.3388 85.2168 29.3251C85.3864 29.3067 85.5257 29.2058 85.6346 29.0223C85.6678 28.9329 85.7481 28.8813 85.8753 28.8675C86.0072 28.8961 86.1533 28.8589 86.3138 28.7557L87.1564 28.2138L87.5106 27.918L87.631 27.8405C87.7204 27.8738 87.8029 27.8434 87.8786 27.7494C87.9588 27.6978 88.0746 27.5779 88.2259 27.3899L89.5431 26.4748C89.7322 26.2397 89.9471 26.0448 90.1879 25.89C90.3013 25.7489 90.4051 25.7162 90.4991 25.7919C90.5415 25.7873 90.6195 25.7145 90.7329 25.5734C90.804 25.437 90.8986 25.3195 91.0166 25.2209C91.1771 25.1176 91.2763 25.0425 91.3141 24.9955C91.4654 24.8075 91.6614 24.636 91.9022 24.4812C92.0156 24.3402 92.1337 24.2416 92.2564 24.1854C92.3744 24.0868 92.4713 23.9904 92.547 23.8964L92.8444 23.6711C92.9201 23.5771 92.9625 23.5725 92.9717 23.6573L93.0422 23.714L93.0989 23.6435C93.0852 23.5163 93.1797 23.3987 93.3826 23.2909C93.5053 23.2347 93.5855 23.1831 93.6234 23.1361C93.7036 23.0845 93.7626 23.0352 93.8005 22.9882C93.8761 22.8942 93.9564 22.8426 94.0412 22.8334L94.5794 22.4532C94.6642 22.4441 94.7067 22.4395 94.7067 22.4395C94.8385 22.4681 94.8975 22.4188 94.8838 22.2915C94.8884 22.334 94.8907 22.3552 94.8907 22.3552C94.9331 22.3506 94.9543 22.3483 94.9543 22.3483C95.0013 22.3861 95.0437 22.3815 95.0815 22.3345C95.1194 22.2875 95.136 22.2428 95.1314 22.2004C95.1222 22.1155 95.1176 22.0731 95.1176 22.0731C95.1554 22.0261 95.2191 22.0192 95.3085 22.0524C95.3509 22.0478 95.3698 22.0243 95.3652 21.9819C95.4031 21.9349 95.4409 21.8879 95.4787 21.8409C95.559 21.7893 95.6415 21.7589 95.7263 21.7497C95.8536 21.7359 95.955 21.682 96.0307 21.588C96.276 21.4756 96.4789 21.3678 96.6394 21.2646L97.482 20.7227L97.6798 20.7657C97.666 20.6384 97.7439 20.5656 97.9136 20.5472C97.9893 20.4532 98.0483 20.4039 98.0907 20.3993L98.3452 20.3718C98.383 20.3247 98.4444 20.2966 98.5292 20.2875C98.5716 20.2829 98.5928 20.2806 98.5928 20.2806C98.5882 20.2382 98.586 20.2169 98.586 20.2169C98.68 20.2926 98.7201 20.2668 98.7063 20.1395C98.6971 20.0547 98.7396 20.0501 98.8336 20.1258C98.8336 20.1258 98.8806 20.1636 98.9746 20.2392C99.017 20.2346 99.0405 20.2536 99.0451 20.296C99.0921 20.3338 99.0967 20.3762 99.0589 20.4232C99.0016 20.6869 98.914 20.8681 98.7959 20.9667L98.562 21.1851C98.5242 21.2322 98.3849 21.3331 98.1442 21.4879L97.6558 21.7339C97.2168 22.0389 96.9549 22.196 96.87 22.2052C96.7898 22.2568 96.6906 22.3319 96.5725 22.4305C96.4969 22.5246 96.3765 22.602 96.2114 22.6628C96.1266 22.672 96.0252 22.7259 95.9071 22.8245C95.8268 22.8761 95.7466 22.9277 95.6664 22.9793L95.6732 23.0429C95.5082 23.1037 95.3265 23.2092 95.1282 23.3594C94.9723 23.5051 94.8542 23.6037 94.7739 23.6553L94.1721 24.0423C93.9738 24.1925 93.8557 24.2912 93.8179 24.3382C93.7468 24.4746 93.6099 24.5967 93.4069 24.7045L92.8756 25.1483C92.5214 25.4442 92.3443 25.5921 92.3443 25.5921C92.3065 25.6391 92.1672 25.74 91.9265 25.8948C91.813 26.0359 91.6359 26.1838 91.3952 26.3386C91.1922 26.4464 91.0129 26.5731 90.857 26.7188C90.8615 26.7612 90.7624 26.8363 90.5595 26.9441L89.7376 27.6768C89.4166 27.8832 89.1782 28.0593 89.0223 28.2049L88.6044 28.5076L88.4841 28.585L88.3139 28.7966L87.6622 29.3178L87.5418 29.3952C87.4146 29.409 87.3578 29.4795 87.3716 29.6067L87.1876 29.691L86.6563 30.1348C86.3445 30.4261 86.0848 30.6044 85.8773 30.6698L85.1551 31.1342C85.0279 31.148 84.9241 31.1807 84.8439 31.2323C84.8061 31.2793 84.7447 31.3074 84.6599 31.3166L83.5008 31.3133ZM85.3189 23.1341C85.3613 23.1295 85.3848 23.1484 85.3894 23.1908L85.2621 23.2046L85.3189 23.1341ZM84.4334 23.8737C84.6455 23.8507 84.7704 23.8158 84.8082 23.7687C85.049 23.6139 85.245 23.4425 85.3963 23.2545C85.4387 23.2499 85.4788 23.2241 85.5167 23.177C85.5545 23.13 85.5499 23.0876 85.5029 23.0498L85.5596 22.9793C85.6915 23.0079 85.7482 22.9374 85.7298 22.7677C85.7768 22.8055 85.8216 22.8222 85.864 22.8176C85.9064 22.813 85.9276 22.8107 85.9276 22.8107C86.1167 22.5756 86.2113 22.4581 86.2113 22.4581L86.3746 22.1829L86.4881 22.0419C86.5638 21.9479 86.6394 21.8538 86.7151 21.7598C86.7861 21.6234 86.8784 21.4846 86.9919 21.3436L87.4887 20.5817L87.475 20.4544L87.3477 20.4682L86.7528 20.9189L86.2283 21.4263C85.7652 21.9056 85.4414 22.284 85.2569 22.5614L85.2638 22.6251L84.8666 23.1187L84.76 23.3234C84.7222 23.3704 84.6133 23.5538 84.4334 23.8737Z" fill="black"/>
<path d="M109.919 29.9334L109.339 29.9318C109.245 29.8562 109.111 29.8063 108.937 29.7823C108.805 29.7536 108.718 29.7416 108.675 29.7462C108.675 29.7462 108.654 29.7485 108.612 29.7531C108.612 29.7531 108.609 29.7319 108.605 29.6895C108.558 29.6516 108.468 29.6184 108.337 29.5898C108.247 29.5565 108.177 29.4998 108.125 29.4195L107.956 29.0516C107.905 28.9713 107.872 28.8676 107.858 28.7403C107.845 28.613 107.835 28.5282 107.831 28.4858C107.732 28.3677 107.672 28.0095 107.65 27.411C107.671 26.808 107.821 26.0192 108.102 25.0446C108.093 24.9598 108.109 24.9151 108.152 24.9105L108.195 24.7127C108.27 24.6187 108.266 24.5762 108.181 24.5854L108.167 24.4582L108.337 24.2466C108.333 24.2042 108.368 24.136 108.444 24.042C108.477 23.9525 108.534 23.882 108.614 23.8304C108.69 23.7364 108.744 23.6447 108.778 23.5552L108.827 23.4211L108.8 23.1666C108.951 22.9785 109.027 22.8845 109.027 22.8845L109.133 22.6798C109.129 22.6374 109.105 22.6185 109.063 22.6231L108.985 22.5027L109.106 22.4253C109.148 22.4207 109.165 22.376 109.156 22.2912L109.206 22.157C109.248 22.1524 109.265 22.1077 109.255 22.0229C109.246 21.938 109.284 21.891 109.369 21.8818L109.334 21.5637C109.287 21.5259 109.221 21.5116 109.137 21.5207C109.094 21.5253 109.054 21.5511 109.016 21.5982C108.941 21.6922 108.858 21.7226 108.769 21.6893L108.719 21.8235L108.549 22.035L108.485 22.0419C108.4 22.0511 108.362 22.0981 108.371 22.183L108.378 22.2466C108.374 22.2042 108.35 22.1853 108.308 22.1899C108.261 22.152 108.218 22.1566 108.181 22.2036C108.181 22.2036 108.159 22.2059 108.117 22.2105L107.706 22.5769L107.345 22.8091L107.281 22.816L107.274 22.7524C107.232 22.757 107.213 22.7805 107.218 22.8229L107.111 23.0276C107.111 23.0276 107.113 23.0488 107.118 23.0912C107.118 23.0912 107.097 23.0935 107.054 23.0981C106.927 23.1119 106.847 23.1635 106.814 23.2529C106.776 23.2999 106.658 23.3985 106.459 23.5487L106.155 23.7104C106.113 23.715 106.072 23.7408 106.035 23.7878C106.039 23.8303 106.02 23.8538 105.978 23.8584L105.921 23.9289C105.874 23.8911 105.813 23.9192 105.737 24.0132L105.56 24.1611C105.39 24.1795 105.315 24.2735 105.333 24.4432L105.276 24.5137L105.092 24.598L104.738 24.8938L104.618 24.9712C104.627 25.0561 104.568 25.1054 104.441 25.1192L104.15 25.4081L103.916 25.6266C103.841 25.7206 103.723 25.8192 103.562 25.9224C103.524 25.9694 103.467 26.04 103.392 26.134C103.312 26.1856 103.25 26.2137 103.208 26.2183L103.087 26.2957C103.097 26.3805 103.038 26.4298 102.91 26.4436L102.719 26.4643L102.706 26.337L102.649 26.4075L102.585 26.4144L102.465 26.4918C102.347 26.5904 102.243 26.6231 102.154 26.5899L102.09 26.5968C101.963 26.6106 101.852 26.5796 101.758 26.504L101.751 26.4404C101.666 26.4495 101.577 26.4163 101.483 26.3407L101.406 26.2203C101.401 26.1779 101.378 26.159 101.335 26.1636L101.271 26.1704C101.224 26.1326 101.177 26.0948 101.13 26.057C101.083 26.0191 101.079 25.9767 101.117 25.9297C101.103 25.8025 101.054 25.7434 100.969 25.7526L100.955 25.6254C100.993 25.5783 100.988 25.5359 100.941 25.4981L100.92 25.3072C100.902 25.1375 100.91 25.008 100.943 24.9186C100.934 24.8337 100.905 24.7724 100.858 24.7346C100.854 24.6921 100.852 24.6709 100.852 24.6709C100.889 24.6239 100.932 24.6193 100.979 24.6572C100.965 24.5299 100.932 24.4261 100.881 24.3459C100.872 24.2611 100.888 24.2164 100.931 24.2118C100.973 24.2072 101.032 24.1579 101.108 24.0638C101.179 23.9274 101.233 23.8357 101.271 23.7887C101.313 23.7841 101.332 23.7606 101.328 23.7181C101.323 23.6757 101.321 23.6545 101.321 23.6545C101.397 23.5605 101.434 23.5135 101.434 23.5135L101.491 23.443L101.484 23.3793L101.364 23.4567C101.35 23.3295 101.364 23.2636 101.407 23.259C101.445 23.2119 101.48 23.1437 101.513 23.0543C101.547 22.9649 101.606 22.9156 101.691 22.9064C101.728 22.8594 101.726 22.8381 101.684 22.8427C101.679 22.8003 101.733 22.7086 101.847 22.5676C101.96 22.4265 102.015 22.3348 102.01 22.2924C102.044 22.2029 102.14 22.1066 102.301 22.0034C102.424 21.9472 102.499 21.8532 102.528 21.7213C102.519 21.6365 102.495 21.6176 102.457 21.6646L102.387 21.6079L102.38 21.5442C102.503 21.488 102.578 21.394 102.607 21.2622L102.777 21.0506C102.853 20.9566 102.891 20.9096 102.891 20.9096L102.947 20.8391L102.813 20.7892L102.763 20.9234C102.65 21.0644 102.572 21.1372 102.529 21.1418L102.466 21.1487C102.47 21.1911 102.433 21.2381 102.352 21.2897C102.314 21.3367 102.274 21.3625 102.232 21.3671L102.168 21.374C102.168 21.374 102.074 21.4916 101.885 21.7266C101.724 21.8298 101.606 21.9284 101.53 22.0225C101.45 22.0741 101.349 22.128 101.226 22.1842C101.146 22.2358 101.049 22.3321 100.935 22.4731L100.886 22.6073L100.652 22.8257L100.475 22.9736L100.361 23.1147C100.319 23.1193 100.26 23.1686 100.184 23.2626L99.9503 23.481L99.8866 23.4879C99.811 23.582 99.7732 23.629 99.7732 23.629C99.7307 23.6336 99.6717 23.6829 99.5961 23.7769L99.4327 24.0521L99.1353 24.2774L98.965 24.489L98.5541 24.8553L97.9162 25.5038L97.6755 25.6586L97.3281 26.0181L97.0376 26.307L96.6266 26.6734L96.5699 26.7439C96.5412 26.8758 96.4633 26.9486 96.336 26.9623C96.2512 26.9715 96.2134 27.0185 96.2225 27.1034C96.2271 27.1458 96.2082 27.1693 96.1658 27.1739C96.0856 27.2255 96.0122 27.3407 95.9457 27.5196L95.889 27.5901L95.5984 27.8791L95.3577 28.0339C95.2728 28.0431 95.235 28.0901 95.2442 28.1749L95.1806 28.1818C94.9398 28.3366 94.7983 28.4163 94.7559 28.4209C94.6802 28.515 94.5742 28.5264 94.4377 28.4554L94.3036 28.4055L94.233 28.3488C94.1058 28.3626 94.0187 28.3505 93.9716 28.3127C93.8868 28.3219 93.8209 28.3076 93.7739 28.2698L93.5554 28.0359L93.2665 27.7453C93.13 27.6743 93.0549 27.5751 93.0411 27.4479C93.0365 27.4054 93.032 27.363 93.0274 27.3206C92.9803 27.2828 92.9758 27.2404 93.0136 27.1933C93.0514 27.1463 93.0703 27.1228 93.0703 27.1228C93.0233 27.085 92.9998 27.0661 92.9998 27.0661L93.2474 26.9749C93.2898 26.9703 93.3088 26.9468 93.3042 26.9044C93.2101 26.8287 93.2245 26.7628 93.3471 26.7066L93.3832 26.4452C93.4588 26.3512 93.4944 26.283 93.4898 26.2405C93.5322 26.236 93.5488 26.1912 93.5396 26.1064L93.66 26.029C93.6554 25.9866 93.6743 25.9631 93.7167 25.9585L93.7305 26.0857L93.7941 26.0788L93.9575 25.8037C93.9483 25.7188 93.9202 25.6575 93.8732 25.6197C93.8308 25.6243 93.8095 25.6266 93.8095 25.6266C93.8049 25.5841 93.8027 25.5629 93.8027 25.5629L93.9935 25.5423L94.1569 25.2671C94.1569 25.2671 94.2325 25.1731 94.3838 24.985L94.5471 24.7098C94.538 24.625 94.5758 24.578 94.6606 24.5688L94.781 24.4914C94.7672 24.3641 94.8239 24.2936 94.9512 24.2798C95.0314 24.2282 95.0693 24.1812 95.0647 24.1388C95.0601 24.0964 95.0767 24.0517 95.1145 24.0047L95.1007 23.8774L95.4412 23.4543L95.718 23.0381L95.7111 22.9744C95.6171 22.8988 95.6314 22.8329 95.7541 22.7767C95.7965 22.7721 95.8154 22.7486 95.8108 22.7062L95.9243 22.5651C95.9667 22.5605 95.9879 22.5582 95.9879 22.5582C96.0257 22.5112 96.0211 22.4688 95.9741 22.431L96.024 22.2968C96.0664 22.2922 96.1443 22.2194 96.2578 22.0784L96.5484 21.7894C96.6619 21.6484 96.6739 21.5613 96.5845 21.528L96.6343 21.3939C96.7524 21.2953 96.8068 21.2035 96.7976 21.1187C96.8733 21.0247 96.9323 20.9754 96.9747 20.9708C96.9701 20.9284 96.9678 20.9071 96.9678 20.9071C97.0103 20.9025 97.0315 20.9003 97.0315 20.9003L97.0177 20.773C97.0601 20.7684 97.079 20.7449 97.0744 20.7025C97.1169 20.6979 97.1358 20.6744 97.1312 20.632L97.3306 20.0954C97.326 20.053 97.3449 20.0295 97.3873 20.0249C97.3781 19.94 97.35 19.8787 97.303 19.8409C97.3879 19.8317 97.428 19.8059 97.4234 19.7635C97.4658 19.7589 97.4847 19.7354 97.4801 19.6929L97.4165 19.6998L97.346 19.6431L97.2187 19.6569L97.3391 19.5795L97.5162 19.4315L97.8137 19.2062L98.1042 18.9172C98.1799 18.8232 98.2435 18.8163 98.2951 18.8966L98.4224 18.8828C98.4648 18.8782 98.5754 18.9091 98.7543 18.9756L98.8179 18.9687C98.8604 18.9641 98.8839 18.983 98.8885 19.0255C99.1005 19.0025 99.2983 19.0455 99.4818 19.1543C99.5242 19.1497 99.5477 19.1687 99.5523 19.2111C99.5993 19.2489 99.6039 19.2913 99.5661 19.3383C99.4904 19.4324 99.4194 19.5688 99.3529 19.7477L99.0761 20.1639L99.0262 20.298L98.8062 20.6437L98.6858 20.7211C98.6858 20.7211 98.648 20.7681 98.5723 20.8622C98.5861 20.9894 98.5506 21.0576 98.4657 21.0668C98.3901 21.1608 98.3569 21.2503 98.3661 21.3351L98.2027 21.6103C98.1271 21.7043 98.056 21.8408 97.9895 22.0196L97.8193 22.2312L97.6629 22.57L97.5632 22.8383L97.3999 23.1135L97.3569 23.3112C97.2388 23.4098 97.1087 23.5956 96.9666 23.8685L96.6967 24.3483C96.6635 24.4378 96.5712 24.5765 96.4199 24.7645C96.4199 24.7645 96.4222 24.7858 96.4268 24.8282C96.4268 24.8282 96.4056 24.8305 96.3632 24.8351L96.1431 25.1808C96.1477 25.2232 96.1122 25.2914 96.0365 25.3854C95.9987 25.4324 96.0056 25.4961 96.0572 25.5763C96.0618 25.6187 96.0853 25.6376 96.1277 25.633C96.2034 25.539 96.2813 25.4662 96.3616 25.4146C96.4418 25.363 96.522 25.3114 96.6023 25.2598L96.659 25.1893L96.7794 25.1119C96.8218 25.1073 96.8808 25.058 96.9565 24.9639C96.9851 24.8321 97.0465 24.804 97.1405 24.8796C97.2678 24.8659 97.3457 24.7931 97.3743 24.6612C97.3697 24.6188 97.4053 24.5506 97.4809 24.4565C97.6082 24.4428 97.6695 24.4147 97.6649 24.3722L98.0191 24.0764L98.1893 23.8648C98.2272 23.8178 98.265 23.7708 98.3028 23.7238C98.3406 23.6768 98.3808 23.651 98.4232 23.6464C98.5034 23.5948 98.5625 23.5455 98.6003 23.4985C98.6759 23.4044 98.7327 23.3339 98.7705 23.2869C98.7659 23.2445 98.7848 23.221 98.8272 23.2164C98.9121 23.2072 99.0726 23.104 99.3087 22.9068C99.3511 22.9022 99.37 22.8787 99.3654 22.8363C99.4033 22.7892 99.4434 22.7634 99.4858 22.7588C99.5282 22.7543 99.5471 22.7307 99.5426 22.6883C99.5426 22.6883 99.6182 22.5943 99.7695 22.4063C99.7649 22.3638 99.7838 22.3403 99.8262 22.3357C99.9535 22.322 100.031 22.2491 100.06 22.1173L100.485 21.8782C100.636 21.6901 100.712 21.5961 100.712 21.5961C100.707 21.5537 100.705 21.5325 100.705 21.5325C100.747 21.5279 100.769 21.5256 100.769 21.5256C100.891 21.4694 101.028 21.3473 101.179 21.1592C101.175 21.1168 101.173 21.0956 101.173 21.0956C101.215 21.091 101.236 21.0887 101.236 21.0887L101.3 21.0818C101.333 20.9924 101.451 20.8938 101.654 20.786L101.774 20.7086C101.774 20.7086 101.85 20.6145 102.001 20.4265C102.039 20.3795 102.117 20.3067 102.235 20.2081L102.476 20.0532C102.603 20.0395 102.683 19.9879 102.717 19.8984C102.712 19.856 102.71 19.8348 102.71 19.8348C102.752 19.8302 102.797 19.8468 102.844 19.8846L102.908 19.8778C102.95 19.8732 102.971 19.8709 102.971 19.8709C102.967 19.8284 102.964 19.8072 102.964 19.8072C102.917 19.7694 102.894 19.7505 102.894 19.7505C102.932 19.7035 102.972 19.6777 103.014 19.6731L103.502 19.4271L103.616 19.2861C103.649 19.1966 103.732 19.1662 103.864 19.1949L104.464 19.3874C104.737 19.5295 104.885 19.7066 104.908 19.9187C104.931 20.1308 104.925 20.2815 104.892 20.371L104.899 20.4346C104.828 20.571 104.764 20.7711 104.707 21.0348L104.65 21.1053L104.437 21.5147C104.394 21.5193 104.375 21.5428 104.38 21.5852C104.389 21.67 104.377 21.7572 104.344 21.8466C104.306 21.8936 104.268 21.9406 104.23 21.9876L104.181 22.1218C104.181 22.1218 104.048 22.2863 103.783 22.6154L103.79 22.679C103.799 22.7639 103.766 22.8533 103.691 22.9473C103.653 22.9943 103.636 23.039 103.641 23.0815L103.527 23.2225C103.503 23.3968 103.415 23.5779 103.264 23.766L103.285 23.9568L103.412 23.9431L103.787 23.8381C103.914 23.8243 103.973 23.775 103.964 23.6902C104.125 23.587 104.226 23.5331 104.268 23.5285L104.446 23.3805L104.673 23.0985C104.71 23.0515 104.753 23.0469 104.8 23.0847C104.847 23.1225 104.889 23.1179 104.927 23.0709C105.007 23.0193 105.045 22.9723 105.041 22.9299L105.161 22.8525L105.288 22.8387L105.706 22.536C105.782 22.4419 105.824 22.4373 105.833 22.5222C105.918 22.513 105.979 22.4849 106.017 22.4379C106.084 22.259 106.261 22.1111 106.549 21.9941L106.719 21.7826C106.761 21.778 106.78 21.7545 106.775 21.712L106.839 21.7051C106.877 21.6581 106.936 21.6088 107.016 21.5572C107.096 21.5056 107.156 21.4563 107.193 21.4093C107.193 21.4093 107.231 21.3623 107.307 21.2683C107.345 21.2212 107.366 21.219 107.37 21.2614C107.455 21.2522 107.517 21.2241 107.554 21.1771C107.55 21.1347 107.548 21.1134 107.548 21.1134C107.59 21.1089 107.611 21.1066 107.611 21.1066C107.701 21.1398 107.783 21.1094 107.859 21.0154C107.897 20.9684 107.934 20.9213 107.972 20.8743C108.01 20.8273 108.071 20.7992 108.156 20.79C108.194 20.743 108.232 20.696 108.27 20.649C108.308 20.602 108.348 20.5762 108.39 20.5716C108.386 20.5292 108.383 20.508 108.383 20.508C108.426 20.5034 108.449 20.5223 108.454 20.5647L108.517 20.5578L108.822 20.3961C108.864 20.3915 108.883 20.368 108.878 20.3256C108.874 20.2832 108.914 20.2574 108.999 20.2482C108.994 20.2058 109.034 20.18 109.119 20.1708C109.105 20.0435 109.162 19.973 109.289 19.9592L109.353 19.9523C109.348 19.9099 109.348 19.9099 109.353 19.9523C109.395 19.9477 109.414 19.9242 109.41 19.8818C109.448 19.8348 109.488 19.809 109.53 19.8044C109.61 19.7528 109.669 19.7035 109.707 19.6565C109.797 19.6897 109.903 19.6782 110.025 19.622C110.148 19.5658 110.231 19.5354 110.273 19.5309C110.358 19.5217 110.374 19.477 110.323 19.3967C110.229 19.3211 110.267 19.274 110.436 19.2557L110.634 19.2986C110.69 19.4213 110.756 19.4356 110.832 19.3416L110.959 19.3278C111.002 19.3232 111.07 19.3587 111.164 19.4344L111.425 19.4705C111.51 19.4613 111.555 19.4779 111.559 19.5203C111.564 19.5627 111.587 19.5816 111.63 19.5771L111.898 19.6768C111.941 19.6722 111.943 19.6934 111.905 19.7404C111.994 19.7736 112.025 19.8562 111.996 19.988C112.005 20.0728 112.012 20.1365 112.017 20.1789L111.981 20.4403C111.905 20.5343 111.874 20.645 111.888 20.7722C111.846 20.7768 111.827 20.8003 111.831 20.8427C111.84 20.9276 111.786 21.0193 111.668 21.1179L111.355 21.7955C111.36 21.8379 111.343 21.8827 111.305 21.9297C111.263 21.9343 111.244 21.9578 111.249 22.0002C111.22 22.132 111.13 22.292 110.979 22.48L110.886 22.812C110.933 22.8498 110.916 22.8945 110.836 22.9461C110.798 22.9931 110.779 23.0166 110.779 23.0166L110.793 23.1439C110.835 23.1393 110.838 23.1605 110.8 23.2075C110.8 23.2075 110.779 23.2098 110.736 23.2144L110.679 23.2849C110.557 23.3411 110.543 23.407 110.637 23.4827L110.587 23.6168L110.473 23.7579C110.322 23.9459 110.246 24.0399 110.246 24.0399C110.171 24.134 110.175 24.1764 110.26 24.1672C110.302 24.1626 110.326 24.1815 110.331 24.2239C110.255 24.318 110.217 24.365 110.217 24.365C110.141 24.459 110.087 24.5507 110.054 24.6401C110.058 24.6826 110.063 24.725 110.068 24.7674L110.011 24.8379L109.775 25.6359L109.789 25.7632C109.723 25.942 109.642 26.1868 109.547 26.4975C109.494 26.8036 109.413 27.0484 109.304 27.2319L109.261 27.4296L109.119 27.8957L109.117 28.4753L109.138 28.6661L109.265 28.6524L110.037 28.0538L110.448 27.6874C110.689 27.5326 110.885 27.3612 111.036 27.1731L111.1 27.1662C111.147 27.204 111.189 27.1995 111.227 27.1524C111.269 27.1479 111.288 27.1243 111.284 27.0819C111.355 26.9455 111.433 26.8727 111.518 26.8635C111.683 26.8027 111.841 26.6783 111.992 26.4902C112.025 26.4008 112.122 26.3045 112.283 26.2013C112.325 26.1967 112.384 26.1474 112.46 26.0533C112.696 25.8561 112.875 25.7294 112.998 25.6732C113.159 25.57 113.255 25.4737 113.289 25.3842L113.586 25.1589C113.577 25.0741 113.591 25.0081 113.629 24.9611C113.667 24.9141 113.705 24.8671 113.743 24.8201L113.927 24.7358C114.054 24.722 114.174 24.6446 114.288 24.5036C114.312 24.3293 114.409 24.233 114.578 24.2146C114.701 24.1584 114.802 24.1045 114.883 24.0529C114.958 23.9589 115.036 23.8861 115.116 23.8345L115.35 23.616L116.002 23.0948C116.115 22.9538 116.215 22.8787 116.299 22.8695L116.406 22.6649L116.59 22.5806L116.994 22.1506L117.114 22.0732C117.242 22.0594 117.301 22.0101 117.292 21.9252C117.414 21.869 117.535 21.7916 117.653 21.693C117.766 21.552 117.863 21.4556 117.943 21.404C118.019 21.31 118.054 21.2418 118.05 21.1994L118.227 21.0515C118.265 21.0044 118.326 20.9763 118.411 20.9672C118.534 20.911 118.614 20.8594 118.652 20.8123C118.647 20.7699 118.687 20.7441 118.772 20.7349C118.819 20.7728 118.902 20.7424 119.02 20.6438L119.317 20.4184C119.44 20.3622 119.619 20.2355 119.855 20.0383L120.4 19.7218L121.3 19.1094C121.385 19.1002 121.507 19.044 121.668 18.9408L121.965 18.7155C122.003 18.6684 122.064 18.6403 122.149 18.6312L122.751 18.2441L123.246 18.0618C123.369 18.0056 123.492 17.9494 123.614 17.8932C123.737 17.837 123.838 17.7831 123.919 17.7315C124.041 17.6753 124.164 17.6191 124.287 17.5629C124.409 17.5067 124.532 17.4505 124.655 17.3943L124.895 17.2395L124.959 17.2326C125.035 17.1385 125.178 17.08 125.391 17.0571L125.511 16.9797C125.671 16.8765 125.773 16.8226 125.815 16.818C125.824 16.9028 125.81 16.9687 125.772 17.0157L125.361 17.3821L125.121 17.5369C125.121 17.5369 125.099 17.5392 125.057 17.5438C125.01 17.506 124.989 17.5083 124.993 17.5507L125.014 17.7416C124.962 17.6613 124.899 17.6682 124.823 17.7623L124.519 17.924L124.278 18.0788C124.236 18.0834 124.217 18.1069 124.221 18.1493L124.355 18.1991L124.292 18.206C124.249 18.2106 124.209 18.2364 124.171 18.2834C124.129 18.288 124.112 18.3327 124.122 18.4176C124.169 18.4554 124.135 18.5448 124.022 18.6859L123.379 18.6911L122.55 19.3603L122.493 19.4308C122.493 19.4308 122.472 19.4331 122.43 19.4377C122.43 19.4377 122.432 19.4589 122.437 19.5013L121.898 19.8814L121.848 20.0156L121.983 20.0654C122.067 20.0562 122.148 20.0046 122.223 19.9106L122.578 19.6148L122.641 19.6079L122.598 19.8056L122.535 19.8125C122.492 19.8171 122.433 19.8664 122.357 19.9605C122.357 19.9605 122.336 19.9628 122.294 19.9674C122.294 19.9674 122.296 19.9886 122.301 20.031L122.237 20.0379C122.124 20.1789 122.067 20.2494 122.067 20.2494C121.991 20.3434 121.932 20.3928 121.89 20.3973C121.932 20.3928 121.935 20.414 121.897 20.461L121.769 20.4748C121.774 20.5172 121.755 20.5407 121.713 20.5453L121.72 20.6089L121.656 20.6158L121.472 20.7001C121.434 20.7471 121.373 20.7752 121.288 20.7844C121.246 20.789 121.205 20.8148 121.168 20.8618C120.969 21.012 120.851 21.1106 120.813 21.1576C120.738 21.2517 120.679 21.301 120.636 21.3056L120.402 21.524L120.339 21.5309C120.292 21.4931 120.23 21.5212 120.155 21.6152C120.155 21.6152 120.117 21.6622 120.041 21.7562L119.921 21.8336C119.845 21.9277 119.786 21.977 119.744 21.9816C119.63 22.1226 119.552 22.1954 119.51 22.2L119.219 22.489C119.224 22.5314 119.205 22.5549 119.163 22.5595C119.116 22.5217 119.052 22.5285 118.972 22.5802C118.934 22.6272 118.894 22.653 118.851 22.6576L118.788 22.6644L118.781 22.6008L118.958 22.4529L119.008 22.3188C119.05 22.3142 119.069 22.2907 119.065 22.2482C119.06 22.2058 119.081 22.2035 119.128 22.2413L119.199 22.2981C119.241 22.2935 119.262 22.2912 119.262 22.2912C119.258 22.2488 119.256 22.2276 119.256 22.2276L119.185 22.1708L119.121 22.1777L119.001 22.2551C118.925 22.3491 118.888 22.3962 118.888 22.3962L118.824 22.403L118.71 22.5441L118.647 22.551L118.526 22.6284L118.533 22.692C118.538 22.7344 118.519 22.7579 118.477 22.7625L118.427 22.8967C118.431 22.9391 118.415 22.9838 118.377 23.0308C118.377 23.0308 118.353 23.0119 118.306 22.9741C118.306 22.9741 118.264 22.9787 118.179 22.9879C118.099 23.0395 118.021 23.1123 117.945 23.2063C117.907 23.2533 117.846 23.2814 117.761 23.2906L117.698 23.2975L117.464 23.5159C117.506 23.5113 117.53 23.5302 117.534 23.5727L117.414 23.6501L117.35 23.657L115.749 24.9247L114.169 26.3832C113.976 26.5759 113.569 26.9847 112.95 27.6096C112.336 28.2769 111.79 28.7866 111.313 29.1387C110.841 29.5332 110.419 29.7935 110.046 29.9197L109.919 29.9334ZM93.4055 26.0566C93.4479 26.052 93.4691 26.0497 93.4691 26.0497C93.5115 26.0451 93.535 26.064 93.5396 26.1064L93.476 26.1133L93.4055 26.0566ZM101.305 24.1068L101.299 24.0432L101.235 24.0501C101.193 24.0546 101.174 24.0782 101.178 24.1206C101.178 24.1206 101.181 24.1418 101.185 24.1842C101.185 24.1842 101.206 24.1819 101.249 24.1773L101.305 24.1068ZM97.1551 19.6638L97.2187 19.6569C97.2233 19.6993 97.2044 19.7228 97.162 19.7274C97.162 19.7274 97.1643 19.7486 97.1689 19.791C97.1689 19.791 97.1477 19.7933 97.1052 19.7979L97.1551 19.6638ZM116.74 24.5599C116.74 24.5599 116.742 24.5811 116.747 24.6235C116.789 24.6189 116.789 24.6189 116.747 24.6235L116.74 24.5599ZM117.73 24.1952C117.773 24.1906 117.796 24.2095 117.801 24.2519L117.674 24.2657L117.73 24.1952ZM120.784 21.4827L121.025 21.3279L121.152 21.3141L120.862 21.603L120.798 21.6099L120.784 21.4827ZM121.393 21.1593C121.351 21.1639 121.327 21.1449 121.322 21.1025C121.365 21.0979 121.384 21.0744 121.379 21.032C121.379 21.032 121.381 21.0532 121.386 21.0956C121.428 21.091 121.428 21.091 121.386 21.0956L121.393 21.1593ZM121.943 21.4859C121.977 21.3965 122.014 21.3495 122.057 21.3449C122.057 21.3449 122.019 21.3919 121.943 21.4859ZM121.479 20.7637L121.542 20.7568L121.549 20.8205L121.479 20.7637ZM121.317 20.4594L121.247 20.4026C121.251 20.445 121.232 20.4685 121.19 20.4731L121.07 20.5505L121.083 20.6778L121.317 20.4594ZM122.184 21.3311C122.184 21.3311 122.163 21.3334 122.12 21.338C122.12 21.338 122.118 21.3168 122.114 21.2744C122.114 21.2744 122.151 21.2274 122.227 21.1333L122.184 21.3311ZM121.494 20.3114C121.537 20.3068 121.558 20.3045 121.558 20.3045C121.553 20.2621 121.551 20.2409 121.551 20.2409L121.487 20.2478L121.494 20.3114ZM122.031 20.5108L122.101 20.5676C122.059 20.5722 122.04 20.5957 122.045 20.6381L121.981 20.645L122.031 20.5108ZM122.669 19.8624L122.732 19.8555L122.676 19.926L122.669 19.8624ZM122.894 20.1599C122.979 20.1507 123.017 20.1037 123.008 20.0188L123.078 20.0756L122.901 20.2235L122.894 20.1599ZM123.35 19.0162L123.42 19.0729L123.3 19.1503L123.35 19.0162ZM124.539 18.1148L124.546 18.1785L124.483 18.1854L124.539 18.1148ZM125.318 17.5799C125.347 17.448 125.423 17.354 125.545 17.2978L125.786 17.143L125.913 17.1292C125.956 17.1246 125.982 17.1648 125.991 17.2496C125.83 17.3528 125.733 17.4491 125.7 17.5385C125.667 17.628 125.627 17.6538 125.58 17.616C125.533 17.5781 125.488 17.5615 125.446 17.5661L125.318 17.5799Z" fill="black"/>
<path d="M123.071 24.9687C122.553 24.939 122.172 24.7872 121.928 24.5132C121.693 24.3241 121.575 24.2295 121.575 24.2295L121.209 23.8186C121.105 23.6581 121.017 23.4317 120.942 23.1393C120.867 22.847 120.8 22.6183 120.739 22.4532L120.725 22.3259C120.801 22.2319 120.851 22.0978 120.875 21.9235C120.856 21.7538 120.843 21.6266 120.833 21.5417L120.883 21.4076L120.869 21.2803C120.851 21.1106 120.943 20.9719 121.146 20.8641L121.139 20.8005L120.935 20.6939L120.978 20.4961C121.015 20.4491 121.03 20.3832 121.021 20.2983L121.127 20.0937C121.339 20.0707 121.472 19.9062 121.524 19.6001C121.591 19.4212 121.619 19.2893 121.61 19.2045L122.121 18.5698L122.107 18.4426C122.183 18.3486 122.221 18.3016 122.221 18.3016C122.305 18.2924 122.364 18.2431 122.398 18.1536C122.431 18.0642 122.445 17.9983 122.441 17.9559L122.491 17.8217C122.566 17.7277 122.604 17.6807 122.604 17.6807L122.47 17.6308L122.343 17.6446L122.399 17.5741C122.56 17.4709 122.635 17.3769 122.626 17.292L122.619 17.2284C122.784 17.1676 122.9 17.0478 122.967 16.8689C123.029 16.6476 123.076 16.4923 123.109 16.4028C123.176 16.224 123.249 16.1088 123.329 16.0571C123.448 15.9585 123.497 15.8244 123.479 15.6547L123.458 15.4638C123.539 15.4122 123.664 15.3772 123.833 15.3589C124.05 15.3783 124.299 15.5015 124.581 15.7285C124.863 15.9554 125.035 16.1514 125.096 16.3165C125.105 16.4014 125.09 16.4673 125.053 16.5143C125.053 16.5143 124.889 16.7895 124.563 17.3398L124.129 18.0949C124.054 18.1889 123.999 18.2806 123.966 18.3701C123.933 18.4595 123.9 18.5489 123.866 18.6383C123.753 18.7794 123.625 18.9863 123.483 19.2592L123.064 20.1415C122.931 20.4992 122.81 20.7698 122.701 20.9533L122.708 21.0169L122.627 22.0556C122.636 22.1405 122.624 22.2276 122.591 22.317C122.553 22.364 122.541 22.4512 122.555 22.5784L122.56 23.2216C122.569 23.3064 122.616 23.3443 122.701 23.3351L123.083 23.2937L124.866 22.5213L125.545 22.2546L125.786 22.0998L125.984 22.1428C126.102 22.0441 126.284 21.9386 126.529 21.8262C126.605 21.7322 126.664 21.6829 126.706 21.6783L126.82 21.5373C127.23 21.3641 127.456 21.2752 127.499 21.2706L129.007 20.3348C129.13 20.2786 129.252 20.2224 129.375 20.1662C129.498 20.11 129.62 20.0538 129.743 19.9976L130.154 19.6313L130.451 19.4059C130.536 19.3968 130.597 19.3687 130.635 19.3216C130.716 19.27 130.796 19.2184 130.876 19.1668C130.914 19.1198 130.975 19.0917 131.06 19.0825C131.145 19.0734 131.206 19.0453 131.244 18.9982C131.324 18.9466 131.468 18.8881 131.676 18.8228C131.883 18.7574 132.001 18.6588 132.03 18.5269C132.068 18.4799 132.106 18.4329 132.143 18.3859C132.224 18.3343 132.283 18.285 132.32 18.2379C132.439 18.1393 132.58 18.0596 132.745 17.9988C132.953 17.9335 133.099 17.8962 133.184 17.887C133.42 17.6897 133.625 17.6032 133.799 17.6272C133.884 17.618 133.922 17.571 133.913 17.4862C133.988 17.3921 134.069 17.3405 134.154 17.3314C134.196 17.3268 134.337 17.2471 134.578 17.0922L134.889 16.9942C135.05 16.891 135.173 16.8348 135.257 16.8256L135.385 16.8118C135.385 16.8118 135.427 16.8072 135.512 16.798C135.597 16.7888 135.635 16.7418 135.625 16.657C135.621 16.6146 135.619 16.5933 135.619 16.5933C135.661 16.5888 135.682 16.5865 135.682 16.5865C135.776 16.6621 135.903 16.6483 136.064 16.5451C136.102 16.4981 136.165 16.4912 136.255 16.5245C136.34 16.5153 136.401 16.4872 136.439 16.4402L136.75 16.3421C136.788 16.2951 136.809 16.2928 136.814 16.3352C136.856 16.3306 136.899 16.326 136.941 16.3214L137.068 16.3076C137.139 16.1712 137.238 16.0961 137.366 16.0823C137.493 16.0685 137.578 16.0593 137.62 16.0547L137.861 15.8999L138.236 15.795L138.306 15.8517C138.273 15.9411 138.242 16.0518 138.214 16.1836C138.185 16.3155 138.107 16.3883 137.98 16.4021L137.923 16.4726C137.89 16.562 137.833 16.6325 137.753 16.6841C137.673 16.7357 137.611 16.7638 137.569 16.7684C137.404 16.8292 137.22 16.9135 137.017 17.0213C136.856 17.1245 136.653 17.2323 136.408 17.3447C136.281 17.3585 136.099 17.464 135.863 17.6612L135.743 17.7387C135.573 17.757 135.323 17.827 134.993 17.9486C134.993 17.9486 134.972 17.9509 134.929 17.9555C134.929 17.9555 134.932 17.9767 134.936 18.0191C134.903 18.1085 134.801 18.1624 134.632 18.1808C134.636 18.2232 134.617 18.2467 134.575 18.2513C134.499 18.3453 134.355 18.4038 134.143 18.4268L133.903 18.5816C133.869 18.6711 133.688 18.7766 133.358 18.8981C133.358 18.8981 133.282 18.9922 133.131 19.1802C132.843 19.2972 132.685 19.4216 132.656 19.5535C132.618 19.6005 132.399 19.753 131.997 20.011C131.913 20.0202 131.851 20.0483 131.813 20.0953C131.776 20.1423 131.738 20.1893 131.7 20.2364C131.388 20.5276 131.131 20.7271 130.928 20.8349C130.89 20.882 130.829 20.9101 130.744 20.9192C130.499 21.0316 130.338 21.1348 130.262 21.2289C130.149 21.3699 129.97 21.4966 129.724 21.609C129.606 21.7076 129.382 21.8177 129.052 21.9393L128.882 22.1509C128.721 22.2541 128.62 22.308 128.577 22.3126C128.459 22.4112 128.32 22.5121 128.159 22.6153C128.037 22.6715 127.898 22.7724 127.742 22.918C127.666 23.0121 127.567 23.0872 127.444 23.1434C127.322 23.1996 127.22 23.2535 127.14 23.3051C127.06 23.3567 126.937 23.4129 126.772 23.4737C126.607 23.5345 126.489 23.6331 126.418 23.7695L126.29 23.7833C126.13 23.8865 126.028 23.9404 125.986 23.945C125.944 23.9496 125.903 23.9754 125.866 24.0224C125.828 24.0694 125.783 24.0528 125.731 23.9726C125.731 23.9726 125.71 23.9749 125.668 23.9795C125.668 23.9795 125.67 24.0007 125.675 24.0431C125.481 24.2357 125.219 24.3928 124.889 24.5144C124.809 24.566 124.728 24.6176 124.648 24.6692C124.568 24.7208 124.485 24.7512 124.401 24.7604C123.816 24.9096 123.373 24.979 123.071 24.9687ZM125.749 12.834C125.612 12.7629 125.412 12.6988 125.148 12.6415C125.012 12.5704 124.854 12.5017 124.675 12.4352C124.586 12.402 124.494 12.3475 124.4 12.2719C124.344 12.1492 124.311 12.0455 124.302 11.9606C124.378 11.8666 124.416 11.8196 124.416 11.8196L124.713 11.5943L124.954 11.4395L125.124 11.2279C125.166 11.2233 125.185 11.1998 125.181 11.1574C125.214 11.068 125.271 10.9974 125.351 10.9458C125.474 10.8896 125.556 10.8592 125.599 10.8546C125.75 10.6666 125.887 10.5445 126.01 10.4883L126.541 10.0445C126.579 9.99749 126.64 9.96939 126.725 9.96021L127.022 9.73488C127.098 9.64085 127.157 9.59154 127.199 9.58695C127.237 9.53994 127.299 9.51184 127.383 9.50265C127.426 9.49806 127.466 9.47226 127.504 9.42525C127.579 9.33122 127.605 9.37135 127.581 9.54561C127.581 9.54561 127.63 9.60465 127.729 9.72272L127.736 9.78635C127.698 9.83336 127.663 9.90158 127.629 9.99101C127.592 10.038 127.558 10.1275 127.53 10.2593C127.487 10.2639 127.471 10.3086 127.48 10.3934C127.324 10.5391 127.192 10.7036 127.083 10.8871C127.007 10.9811 126.938 11.1387 126.876 11.36C126.843 11.4495 126.751 11.5882 126.6 11.7762L126.543 11.8468C126.519 12.021 126.424 12.1386 126.259 12.1993C126.217 12.2039 126.2 12.2487 126.209 12.3335C126.194 12.5926 126.06 12.7359 125.805 12.7635C125.763 12.7681 125.744 12.7916 125.749 12.834ZM134.181 17.5859C134.181 17.5859 134.219 17.5389 134.295 17.4448C134.252 17.4494 134.229 17.4305 134.224 17.3881L134.111 17.5291L134.181 17.5859Z" fill="black"/>
<path d="M136.228 27.2134C136.228 27.2134 136.207 27.2157 136.165 27.2203C136.165 27.2203 136.162 27.1991 136.158 27.1567L135.53 26.7097L135.439 26.462C135.289 26.2637 135.106 25.9617 134.89 25.5558C134.839 25.4756 134.782 25.3529 134.722 25.1879C134.665 25.0652 134.633 24.9614 134.623 24.8766L134.441 24.3814C134.427 24.2541 134.449 24.0586 134.506 23.7949L134.408 23.4837C134.404 23.4413 134.399 23.3988 134.395 23.3564C134.343 23.2762 134.334 23.1913 134.367 23.1019C134.382 22.8428 134.354 22.5883 134.284 22.3384L134.334 22.2042C134.372 22.1572 134.429 22.0867 134.504 21.9927C134.575 21.8562 134.623 21.7009 134.647 21.5266C134.642 21.4842 134.661 21.4607 134.704 21.4561C134.525 21.3896 134.414 21.3587 134.372 21.3633L134.358 21.236C134.344 21.1088 134.356 21.0216 134.394 20.9746L134.451 20.9041C134.531 20.8525 134.609 20.7797 134.685 20.6857C134.756 20.5492 134.784 20.4174 134.771 20.2901L134.63 20.1766C134.752 20.1204 134.828 20.0264 134.857 19.8946C134.885 19.7627 134.918 19.6733 134.956 19.6263C134.98 19.452 135.104 19.0094 135.327 18.2986L136.089 16.4137C136.127 16.3667 136.162 16.2984 136.196 16.209C136.229 16.1196 136.22 16.0347 136.168 15.9545C136.116 15.8742 136.131 15.8083 136.211 15.7567C136.287 15.6627 136.324 15.6157 136.324 15.6157C136.476 15.4276 136.551 15.3336 136.551 15.3336L136.821 14.8538L137.041 14.5081L137.034 14.4444C137.025 14.3596 137.054 14.2278 137.12 14.0489L137.17 13.9147C137.119 13.8345 137.156 13.7875 137.284 13.7737C137.496 13.7507 137.63 13.6074 137.688 13.3437C137.679 13.2589 137.735 13.1884 137.858 13.1322C137.976 13.0335 138.007 12.9229 137.951 12.8002L137.994 12.6025C138.121 12.5887 138.173 12.4758 138.15 12.2637C138.324 12.2877 138.447 12.2315 138.518 12.0951L138.504 11.9678C138.457 11.93 138.472 11.8641 138.547 11.77L138.718 11.5585C138.869 11.3704 138.985 11.2506 139.065 11.199L139.228 10.9238C139.271 10.9192 139.292 10.9169 139.292 10.9169C139.287 10.8745 139.261 10.8344 139.214 10.7966L139.257 10.5988L139.378 10.5214C139.547 10.503 139.604 10.4325 139.548 10.3098L139.648 10.0415L140.038 9.48429C140.256 9.11738 140.44 8.83991 140.592 8.65186L140.812 8.30616L140.975 8.03098C141.017 8.02639 141.039 8.02409 141.039 8.02409C141.034 7.98167 141.032 7.96046 141.032 7.96046C141.009 7.74837 141.08 7.61193 141.245 7.55113C141.287 7.54654 141.384 7.45022 141.535 7.26218L141.692 6.92337C141.687 6.88095 141.685 6.85974 141.685 6.85974C141.727 6.85514 141.749 6.85285 141.749 6.85285L141.869 6.77544C141.898 6.64359 142.101 6.34261 142.479 5.87249L142.472 5.80886C142.459 5.68161 142.589 5.49585 142.863 5.25161C142.905 5.24702 142.924 5.22351 142.919 5.18109C143.099 4.8612 143.187 4.68004 143.182 4.63762L143.176 4.57399C143.162 4.44674 143.197 4.37852 143.282 4.36933C143.452 4.35096 143.53 4.27814 143.516 4.15089C143.507 4.06605 143.523 4.02133 143.566 4.01674C143.679 3.87571 143.854 3.70657 144.09 3.50934L144.147 3.43882C144.142 3.3964 144.119 3.37749 144.077 3.38208L144.204 3.3683C144.199 3.32588 144.197 3.30467 144.197 3.30467C144.239 3.30008 144.261 3.29778 144.261 3.29778C144.298 3.25077 144.336 3.20376 144.374 3.15675C144.45 3.06273 144.483 2.9733 144.474 2.88846C144.465 2.80362 144.479 2.7377 144.517 2.69068C144.554 2.64367 144.592 2.59666 144.63 2.54965C144.706 2.45563 144.722 2.41091 144.68 2.4155C144.595 2.42469 144.591 2.38227 144.666 2.28825C144.657 2.20341 144.714 2.13289 144.836 2.07669C144.917 2.02509 144.973 1.95457 145.007 1.86514C145.082 1.77112 145.139 1.7006 145.177 1.65359C145.177 1.65359 145.234 1.58307 145.347 1.44203C145.423 1.34801 145.482 1.2987 145.524 1.29411C145.651 1.28033 145.732 1.22873 145.765 1.1393C145.798 1.04987 145.834 0.981644 145.872 0.934632L145.928 0.864115C145.924 0.821697 145.919 0.779278 145.914 0.736858C145.905 0.652021 145.945 0.626219 146.035 0.659452C146.039 0.70187 146.042 0.723079 146.042 0.723079C146.08 0.676068 146.098 0.652562 146.098 0.652562C146.33 0.412911 146.679 0.267823 147.146 0.2173C147.612 0.166776 147.935 0.174747 148.114 0.241211C148.199 0.232025 148.331 0.260664 148.509 0.32713C148.688 0.393595 148.825 0.464654 148.919 0.540305L149.13 0.71052C149.139 0.795358 149.187 0.833184 149.271 0.823998C149.544 0.966115 149.626 1.1289 149.517 1.31235C149.442 1.40638 149.406 1.4746 149.411 1.51702C149.368 1.52161 149.352 1.56633 149.361 1.65116L149.375 1.77842L149.218 2.11723L149.076 2.58329C149.042 2.67272 148.99 2.78566 148.919 2.9221C148.886 3.01153 148.876 3.11988 148.89 3.24713C148.899 3.33197 148.866 3.4214 148.79 3.51542L148.464 4.06579C148.426 4.1128 148.411 4.17872 148.421 4.26356L148.371 4.39771C148.328 4.4023 148.303 4.36218 148.293 4.27734L148.216 4.15697C148.178 4.20398 148.164 4.26991 148.173 4.35475L148.25 4.47511C148.354 4.6356 148.344 4.74395 148.221 4.80014C148.136 4.80933 148.094 4.81392 148.094 4.81392C148.047 4.7761 148.007 4.8019 147.974 4.89133C147.936 4.93834 147.917 4.96185 147.917 4.96185C147.944 5.21636 147.902 5.41413 147.788 5.55517C147.708 5.60677 147.675 5.6962 147.688 5.82346C147.655 5.91289 147.617 5.9599 147.575 5.9645C147.532 5.96909 147.49 5.97368 147.448 5.97828C147.452 6.02069 147.436 6.06541 147.398 6.11242C147.402 6.15484 147.362 6.18064 147.277 6.18983C147.141 6.11877 147.084 6.18929 147.107 6.40138L147.007 6.66967C147.054 6.7075 147.021 6.79693 146.908 6.93796C146.841 7.11682 146.808 7.20626 146.808 7.20626C146.704 7.43213 146.5 7.73311 146.198 8.10921L146.041 8.44801C146.041 8.44801 145.947 8.56554 145.758 8.8006C145.758 8.8006 145.736 8.8029 145.694 8.80749C145.694 8.80749 145.696 8.8287 145.701 8.87112C145.705 8.91354 145.651 9.00527 145.538 9.1463L145.261 9.56252L145.097 9.8377L144.857 9.99251L144.58 10.4087C144.584 10.4511 144.566 10.4747 144.523 10.4792C144.504 10.6959 144.374 10.8817 144.133 11.0365C143.972 11.1397 143.876 11.236 143.842 11.3255C143.809 11.4149 143.674 11.5582 143.438 11.7555C143.438 11.7555 143.4 11.8025 143.325 11.8965C143.325 11.8965 143.249 11.9905 143.098 12.1786C143.098 12.1786 143.058 12.2044 142.977 12.256C142.94 12.303 142.944 12.3454 142.991 12.3832L142.934 12.4537C142.85 12.4629 142.769 12.5145 142.694 12.6086C142.66 12.698 142.625 12.7662 142.587 12.8132C142.587 12.8132 142.493 12.9307 142.303 13.1658C142.228 13.2598 142.131 13.3562 142.013 13.4548C141.937 13.5488 141.843 13.6663 141.729 13.8074C141.616 13.9484 141.474 14.0281 141.304 14.0465C141.304 14.0465 141.307 14.0677 141.311 14.1101C141.311 14.1101 141.333 14.1078 141.375 14.1032C141.516 14.2167 141.504 14.3038 141.339 14.3646C141.263 14.4586 141.204 14.5079 141.162 14.5125C140.973 14.7476 140.878 14.8651 140.878 14.8651C140.845 14.9546 140.769 15.0486 140.651 15.1472C140.528 15.2034 140.448 15.255 140.41 15.302C140.221 15.5371 140.127 15.6546 140.127 15.6546L139.779 16.0141L139.659 16.0915C139.512 16.3219 139.281 16.5616 138.964 16.8104C138.681 16.9698 138.417 17.1057 138.172 17.2181L138.115 17.2887C138.001 17.4297 137.817 17.514 137.563 17.5415L136.94 17.7377C136.822 17.8363 136.728 17.9538 136.657 18.0903L136.371 19.0224L136.208 19.2976C136.137 19.434 136.153 19.5825 136.256 19.743C136.299 19.7384 136.301 19.7596 136.263 19.8066C136.141 19.8628 136.067 19.9781 136.043 20.1523C136.057 20.2796 136.066 20.3644 136.071 20.4068L135.928 20.8729C135.862 21.0518 135.833 21.1836 135.842 21.2684L135.761 22.3072L135.719 22.5049C135.685 22.5944 135.673 22.6815 135.682 22.7663C135.729 22.8042 135.755 22.8443 135.76 22.8867L135.71 23.0209C135.672 23.0679 135.66 23.155 135.674 23.2823C135.688 23.4095 135.678 23.5179 135.645 23.6073C135.649 23.6497 135.656 23.7133 135.665 23.7982C135.67 23.8406 135.653 23.8853 135.616 23.9323C135.616 23.9323 135.618 23.9535 135.622 23.9959C135.627 24.0384 135.653 24.0785 135.7 24.1163C135.808 24.3192 135.807 24.5124 135.698 24.6959C135.712 24.8231 135.745 24.9269 135.796 25.0071L135.881 25.1911C136.002 25.5213 136.115 25.7666 136.218 25.9271C136.279 26.0922 136.398 26.2079 136.577 26.2744L136.895 26.24C137.145 26.17 137.516 26.0226 138.006 25.7978C138.171 25.737 138.353 25.6315 138.551 25.4813C138.792 25.3265 138.972 25.1997 139.09 25.1011C139.33 24.9463 139.545 24.7514 139.734 24.5163L140.5 23.8541L141.499 22.9734C141.494 22.931 141.513 22.9075 141.555 22.9029C141.763 22.8375 141.963 22.7085 142.157 22.5159C142.346 22.2808 142.5 22.114 142.618 22.0154L143.149 21.5716C143.503 21.2758 143.699 21.1043 143.737 21.0573L144.148 20.6909C144.304 20.5453 144.462 20.4209 144.623 20.3177C144.821 20.1675 144.998 20.0195 145.154 19.8739L145.919 19.2117C145.915 19.1693 145.912 19.1481 145.912 19.1481C145.955 19.1435 145.976 19.1412 145.976 19.1412C146.065 19.1744 146.127 19.1463 146.16 19.0569C146.236 18.9629 146.273 18.9158 146.273 18.9158C146.358 18.9067 146.439 18.8551 146.514 18.761C146.557 18.7564 146.616 18.7071 146.691 18.6131L146.812 18.5357C147.015 18.4279 147.194 18.3012 147.35 18.1556C147.506 18.0099 147.685 17.8832 147.888 17.7754C147.926 17.7284 147.964 17.6814 148.002 17.6344C148.039 17.5874 148.098 17.5381 148.179 17.4864L148.781 17.0994L149.439 16.6419C149.604 16.5811 149.805 16.4521 150.041 16.2548L150.402 16.0226C150.529 16.0088 150.673 15.9503 150.834 15.8471L151.322 15.6011C151.487 15.5403 151.688 15.4113 151.924 15.2141C152.009 15.2049 152.131 15.1487 152.292 15.0455L152.971 14.7788L153.212 14.624L153.318 14.4193C153.375 14.542 153.485 14.5729 153.65 14.5121C153.773 14.456 153.915 14.3762 154.075 14.273C154.231 14.1274 154.391 14.0242 154.557 13.9634C154.641 13.9542 154.686 13.9708 154.691 14.0133L154.952 14.0493L154.775 14.1973C154.742 14.2867 154.749 14.3503 154.796 14.3881C154.838 14.3835 154.902 14.3767 154.987 14.3675C154.996 14.4523 154.92 14.5463 154.76 14.6495L153.917 15.1914L153.245 15.5217L153.181 15.5286C153.152 15.6604 153.056 15.7567 152.89 15.8175C152.763 15.8313 152.659 15.864 152.579 15.9156L152.225 16.2115L152.105 16.2889C151.94 16.3497 151.777 16.4317 151.616 16.5349C151.456 16.6381 151.293 16.7201 151.128 16.7809C151.09 16.8279 151.01 16.8795 150.887 16.9357C150.802 16.9449 150.743 16.9942 150.71 17.0836C150.715 17.126 150.675 17.1518 150.59 17.161L150.399 17.1817C150.323 17.2757 150.205 17.3743 150.045 17.4775C149.922 17.5337 149.823 17.6088 149.747 17.7029C149.422 17.8669 149.24 17.9724 149.202 18.0194L148.855 18.3789L148.203 18.9C147.882 19.1065 147.644 19.2825 147.488 19.4281L146.886 19.8152C146.735 20.0032 146.659 20.0972 146.659 20.0972C146.664 20.1396 146.645 20.1631 146.602 20.1677L146.368 20.3862L146.312 20.4567L146.248 20.4636C146.163 20.4728 146.064 20.5479 145.951 20.6889C145.879 20.8254 145.804 20.9194 145.724 20.971L145.256 21.4079C145.015 21.5627 144.8 21.7576 144.611 21.9927C144.535 22.0867 144.38 22.2323 144.143 22.4296C143.95 22.6222 143.749 22.7512 143.542 22.8166C143.499 22.8212 143.421 22.894 143.308 23.0351C143.232 23.1291 143.173 23.1784 143.131 23.183C143.088 23.1876 143.029 23.2369 142.953 23.3309L142.733 23.6766L142.436 23.9019L141.954 24.2116L141.905 24.3457C141.829 24.4397 141.791 24.4867 141.791 24.4867L141.664 24.5005C141.644 24.7172 141.474 24.9288 141.153 25.1352L140.692 25.6357C140.532 25.7389 140.414 25.8375 140.338 25.9315C140.263 26.0256 140.185 26.0984 140.104 26.15L139.332 26.7486L139.148 26.8329C138.62 27.1047 138.08 27.2704 137.528 27.3301C137.019 27.3853 136.586 27.3463 136.228 27.2134ZM134.322 21.4974C134.369 21.5353 134.399 21.6178 134.413 21.745C134.422 21.8299 134.406 21.8746 134.363 21.8792L134.322 21.4974ZM139.01 10.69L139.13 10.6126L139.137 10.6762L139.017 10.7536L139.01 10.69ZM137.809 15.6481C137.889 15.5965 137.988 15.5214 138.106 15.4228C138.219 15.2817 138.338 15.1831 138.46 15.1269C138.503 15.1223 138.524 15.12 138.524 15.12C138.562 15.073 138.583 15.0707 138.587 15.1131C138.672 15.104 138.715 15.0994 138.715 15.0994L138.885 14.8878C138.923 14.8408 139.138 14.6459 139.53 14.303L139.827 14.0777L140.295 13.6408C140.366 13.5043 140.442 13.4103 140.522 13.3587C140.692 13.3403 140.807 13.2205 140.869 12.9992C141.02 12.8112 141.24 12.6587 141.528 12.5417C141.613 12.5325 141.65 12.4855 141.641 12.4006C141.679 12.3536 141.696 12.3089 141.691 12.2665C141.729 12.2195 141.767 12.1725 141.805 12.1255C141.885 12.0739 142.076 11.86 142.379 11.4839C142.417 11.4369 142.431 11.371 142.422 11.2861C142.408 11.1589 142.441 11.0695 142.521 11.0179C142.606 11.0087 142.644 10.9617 142.635 10.8768C142.635 10.8768 142.73 10.7593 142.919 10.5242L142.982 10.5173L142.989 10.581L142.932 10.6515L142.939 10.7151L143.003 10.7082L143.173 10.4967C143.362 10.2616 143.445 10.038 143.422 9.82594C143.418 9.78353 143.453 9.7153 143.529 9.62128L143.563 9.93942L143.734 9.72787C143.885 9.53982 143.973 9.35866 143.997 9.18439L144.117 9.10699L144.28 8.83181L144.437 8.493L144.763 7.94264C144.877 7.8016 145.005 7.59464 145.147 7.32176L145.48 6.83502C145.509 6.70317 145.599 6.54323 145.75 6.35518C145.821 6.21874 145.89 6.06108 145.957 5.88222C146.065 5.69877 146.172 5.4941 146.276 5.26823L146.753 4.31543L146.952 3.77885L147.208 3.17175L147.407 2.63517L147.55 2.1691C147.588 2.12209 147.583 2.07967 147.536 2.04184C147.489 2.00402 147.447 2.00861 147.409 2.05562C147.239 2.074 147.114 2.10898 147.034 2.16059L146.283 2.95006C146.122 3.05327 146.021 3.10717 145.978 3.11177C145.851 3.12555 145.754 3.22187 145.688 3.40073C145.693 3.44315 145.657 3.51137 145.581 3.60539C145.539 3.60998 145.522 3.6547 145.531 3.73954C145.536 3.78196 145.519 3.82667 145.482 3.87368C145.439 3.87828 145.394 3.86166 145.347 3.82383L145.227 3.90124L145.248 4.09212L145.121 4.1059C145.168 4.14373 145.172 4.18615 145.134 4.23316C145.096 4.28017 145.08 4.32489 145.084 4.36731L144.404 5.21352L143.957 5.84129C143.923 5.93072 143.831 6.06946 143.68 6.2575C143.557 6.3137 143.481 6.40772 143.453 6.53957L143.126 7.08994C143.088 7.13695 143.032 7.20747 142.956 7.30149C142.923 7.39092 142.864 7.44023 142.779 7.44941L142.786 7.51304L142.339 8.14081C142.221 8.23943 142.126 8.35696 142.055 8.4934C142.022 8.58283 141.967 8.67456 141.892 8.76858L141.622 9.24843C141.47 9.43647 141.286 9.71395 141.068 10.0809L140.458 10.9838L140.011 11.6116C139.897 11.7526 139.77 11.9596 139.627 12.2325L139.514 12.3735L139.414 12.6418C139.263 12.8298 139.192 12.9663 139.201 13.0511L139.151 13.1853C139.151 13.1853 139.094 13.2558 138.981 13.3968C138.986 13.4392 138.929 13.5097 138.811 13.6084C138.726 13.6175 138.688 13.6646 138.697 13.7494L138.641 13.8199C138.565 13.9139 138.572 13.9776 138.661 14.0108L138.668 14.0744C138.588 14.126 138.477 14.2883 138.335 14.5612L138.235 14.8295L137.738 15.5914L137.745 15.655L137.809 15.6481ZM152.416 16.1908L152.479 16.1839L152.359 16.2613L152.416 16.1908ZM153.857 14.0392C153.899 14.0346 153.923 14.0535 153.927 14.0959L153.863 14.1028L153.857 14.0392ZM154.168 13.9411L154.231 13.9342L154.182 14.0684L154.118 14.0753L154.168 13.9411ZM155.107 14.2901L155.114 14.3537L154.987 14.3675L155.107 14.2901ZM155.081 13.456C155.086 13.4984 155.067 13.5219 155.024 13.5265L154.961 13.5334L155.081 13.456Z" fill="black"/>
<path d="M155.003 37.476C154.923 37.5276 154.798 37.5625 154.628 37.5809C154.501 37.5947 154.369 37.5661 154.233 37.495C154.186 37.4572 154.028 37.3884 153.76 37.2887C153.581 37.2222 153.442 37.13 153.344 37.0119C153.287 36.8892 153.271 36.7408 153.295 36.5665L153.488 35.9663C153.588 35.698 153.695 35.3002 153.809 34.7728C153.843 34.6833 153.873 34.5727 153.902 34.4409C153.978 34.3468 154.051 34.2316 154.122 34.0952C154.118 34.0527 154.136 34.0292 154.179 34.0246C154.264 34.0154 154.325 33.9873 154.363 33.9403L154.803 33.2489C154.803 33.2489 154.798 33.2065 154.789 33.1217C154.827 33.0747 154.801 33.0346 154.712 33.0013C154.585 33.0151 154.559 32.975 154.634 32.881C154.909 32.2503 155.085 31.888 155.16 31.794C155.156 31.7516 155.244 31.5704 155.423 31.2505L155.466 31.0528C155.542 30.9587 155.578 30.8905 155.573 30.8481L155.594 31.039C155.669 30.945 155.705 30.8767 155.7 30.8343L155.573 30.8481C155.521 30.7679 155.552 30.6572 155.666 30.5162C155.694 30.3843 155.78 30.182 155.922 29.9091L156.128 29.4361L156.164 29.1747L156.157 29.1111C156.238 29.0595 156.292 28.9678 156.321 28.8359C156.354 28.7465 156.368 28.6806 156.364 28.6381L156.62 28.031L156.663 27.8333C156.776 27.6922 156.831 27.6005 156.826 27.5581L157.225 26.4849C157.301 26.3909 157.36 26.3416 157.402 26.337C157.407 26.3794 157.447 26.3536 157.522 26.2596L157.693 26.048C157.599 25.9724 157.585 25.8451 157.651 25.6663C157.689 25.6193 157.744 25.5275 157.815 25.3911C157.933 25.2925 157.964 25.1818 157.907 25.0592C157.907 25.0592 157.886 25.0615 157.844 25.0661C157.848 25.1085 157.827 25.1108 157.78 25.0729L157.653 25.0867L157.703 24.9526C157.778 24.8586 157.849 24.7221 157.916 24.5432C158.016 24.275 158.084 24.1173 158.122 24.0703C158.155 23.9809 158.208 23.8679 158.279 23.7315C158.35 23.595 158.381 23.4844 158.371 23.3996L158.358 23.2723C158.349 23.1875 158.379 23.0768 158.451 22.9404C158.564 22.7994 158.637 22.6841 158.671 22.5947C158.742 22.4582 158.751 22.3499 158.7 22.2697L158.693 22.206C158.887 22.0134 159.031 21.7617 159.126 21.451L159.176 21.3169C159.252 21.2228 159.266 21.1569 159.219 21.1191L159.205 20.9918C159.191 20.8646 159.279 20.6834 159.468 20.4484L159.618 20.0459C159.613 20.0035 159.564 19.9445 159.47 19.8688C159.47 19.8688 159.489 19.8453 159.527 19.7983C159.607 19.7467 159.621 19.6808 159.569 19.6005L159.626 19.53C159.867 19.3752 159.91 19.1774 159.755 18.9367L159.748 18.8731C159.928 18.5532 160.016 18.372 160.011 18.3296C160.087 18.2356 160.158 18.0991 160.224 17.9203L160.36 17.3906L160.353 17.3269C160.208 17.171 160.22 17.0839 160.389 17.0655C160.432 17.0609 160.453 17.0586 160.453 17.0586C160.448 17.0162 160.446 16.995 160.446 16.995C160.399 16.9572 160.394 16.9148 160.432 16.8678C160.508 16.7737 160.543 16.7055 160.539 16.6631L160.518 16.4722C160.561 16.4676 160.561 16.4676 160.518 16.4722C160.514 16.4298 160.533 16.4063 160.575 16.4017C160.651 16.3077 160.658 16.1781 160.597 16.013C160.55 15.9752 160.565 15.9093 160.64 15.8153C160.711 15.6788 160.745 15.5894 160.74 15.547L160.864 14.3105C160.845 14.1408 160.812 14.0371 160.765 13.9992C160.761 13.9568 160.737 13.9379 160.695 13.9425C160.374 14.1489 160.136 14.3249 159.98 14.4706L159.087 15.1466L158.896 15.1672C158.896 15.1672 158.875 15.1695 158.833 15.1741C158.833 15.1741 158.835 15.1953 158.84 15.2377C158.849 15.3226 158.792 15.3931 158.669 15.4493C158.547 15.5055 158.469 15.5783 158.436 15.6677C158.36 15.7618 158.282 15.8346 158.202 15.8862C158.121 15.9378 158.041 15.9894 157.961 16.041L157.43 16.4848L156.714 17.0128L155.892 17.7456L154.802 18.3786L154.335 18.8155C154.089 18.9279 153.908 19.0334 153.789 19.132L153.499 19.421C153.419 19.4726 153.256 19.5546 153.011 19.667C152.808 19.7748 152.598 19.819 152.381 19.7995C152.164 19.78 151.945 19.7394 151.724 19.6775C151.503 19.6156 151.305 19.5727 151.131 19.5486L150.997 19.4988C151.025 19.3669 150.997 19.3056 150.912 19.3148C150.823 19.2816 150.757 19.2672 150.715 19.2718C150.625 19.2386 150.599 19.1985 150.637 19.1515C150.675 19.1045 150.694 19.0809 150.694 19.0809C150.647 19.0431 150.623 19.0242 150.623 19.0242C150.369 19.0518 150.292 18.9314 150.391 18.6631C150.336 18.1541 150.45 17.8199 150.733 17.6605L150.783 17.5263L150.762 17.3354C150.687 17.4295 150.649 17.4765 150.649 17.4765C150.649 17.4765 150.611 17.5235 150.536 17.6175L150.522 17.4902L151.098 16.2692C151.173 16.1751 151.209 16.1069 151.204 16.0645C151.237 15.9751 151.252 15.9091 151.247 15.8667C151.28 15.7773 151.392 15.615 151.581 15.38L151.758 15.2321C151.82 15.0108 151.926 14.8061 152.078 14.6181C152.267 14.383 152.399 14.2185 152.475 14.1244L152.745 13.6446C152.807 13.4233 152.899 13.2846 153.021 13.2284L153.255 13.0099L153.682 12.1913L154.136 11.6271L154.299 11.352C154.341 11.3474 154.381 11.3216 154.419 11.2746C154.5 11.223 154.563 11.2161 154.61 11.2539C154.737 11.2401 154.82 11.2097 154.858 11.1627C154.971 11.0217 155.08 11.0314 155.183 11.1919L155.804 11.5753C155.945 11.6888 156.024 11.8303 156.043 12C156 12.0046 155.981 12.0281 155.986 12.0705C155.835 12.2586 155.719 12.3784 155.639 12.43C155.483 12.5756 155.329 12.7425 155.178 12.9305C155.064 13.0715 154.949 13.1914 154.831 13.29C154.443 13.6753 154.176 13.9831 154.029 14.2136C153.883 14.4441 153.736 14.6745 153.589 14.905C153.438 15.0931 153.289 15.3023 153.142 15.5328C152.958 15.8103 152.728 16.2643 152.453 16.8949L151.905 18.3705C151.914 18.4553 151.961 18.4932 152.046 18.484L152.831 18.0126C153.398 17.6938 153.799 17.4358 154.035 17.2386L154.226 17.2179L154.651 16.9788C154.693 16.9742 154.733 16.9484 154.771 16.9014C154.847 16.8074 154.929 16.777 155.019 16.8102L155.139 16.7328C155.29 16.5447 155.406 16.4249 155.486 16.3733L155.607 16.2959C155.937 16.1743 156.112 16.0052 156.131 15.7885C156.174 15.7839 156.195 15.7816 156.195 15.7816C156.327 15.8103 156.388 15.7822 156.379 15.6973C156.412 15.6079 156.448 15.5397 156.485 15.4927C156.552 15.3138 156.67 15.2152 156.84 15.1968C156.882 15.1922 156.96 15.1194 157.073 14.9784L157.158 15.1624L157.398 15.0075C157.507 14.8241 157.682 14.655 157.923 14.5001C157.961 14.4531 158.041 14.4015 158.164 14.3453C158.324 14.2421 158.419 14.1246 158.447 13.9927C158.523 13.8987 158.582 13.8494 158.624 13.8448L159.326 13.1895C159.444 13.0909 159.545 13.037 159.63 13.0278C159.753 12.9716 159.835 12.9412 159.878 12.9366C159.958 12.885 160.038 12.8334 160.119 12.7818C160.199 12.7302 160.303 12.6975 160.43 12.6837C160.468 12.6367 160.55 12.6063 160.678 12.5925L160.868 12.5719C161.293 12.5259 161.712 12.6308 162.126 12.8863C162.488 13.0617 162.65 13.3661 162.611 13.7994L162.453 14.7178L162.224 15.5794L161.817 17.1685L161.425 18.3053C161.392 18.3947 161.361 18.5053 161.332 18.6372C161.346 18.7644 161.336 18.8728 161.303 18.9622L161.004 19.7671C160.937 19.946 160.906 20.0566 160.911 20.099L160.925 20.2263C160.934 20.3111 160.901 20.4005 160.825 20.4946C160.792 20.584 160.756 20.6522 160.718 20.6992C160.652 20.8781 160.626 21.0311 160.639 21.1584C160.602 21.2054 160.587 21.2713 160.596 21.3562L160.084 22.5704C160.089 22.6128 160.07 22.6363 160.027 22.6409C159.985 22.6455 159.966 22.669 159.971 22.7114C159.928 22.716 159.888 22.7418 159.85 22.7888C159.813 22.8358 159.838 22.876 159.928 22.9092L159.814 23.0502C159.814 23.0502 159.795 23.0737 159.758 23.1207C159.72 23.1677 159.724 23.2102 159.771 23.248L159.785 23.3752L159.531 23.4028C159.667 23.4739 159.719 23.5541 159.685 23.6435C159.552 24.0013 159.446 24.2059 159.366 24.2575C159.375 24.3424 159.379 24.3848 159.379 24.3848C159.436 24.5075 159.407 24.6393 159.293 24.7803L159.194 25.0486C159.118 25.1426 159.08 25.1897 159.08 25.1897C159.038 25.1943 158.998 25.2201 158.96 25.2671C158.922 25.3141 158.948 25.3542 159.037 25.3874C159.084 25.4253 159.089 25.4677 159.051 25.5147C159.06 25.5995 159.046 25.6655 159.008 25.7125C158.819 25.9475 158.734 26.1499 158.752 26.3196C158.77 26.4892 158.699 26.6257 158.539 26.7289C158.459 26.7805 158.428 26.8911 158.446 27.0608L158.276 27.2724C158.147 27.6725 158.045 27.9196 157.97 28.0136C158.164 27.821 158.279 27.7011 158.317 27.6541C158.355 27.6071 158.409 27.5154 158.48 27.379C158.556 27.2849 158.545 27.1789 158.446 27.0608C158.691 26.9484 158.805 26.8074 158.786 26.6377C158.786 26.6377 158.824 26.5907 158.9 26.4967L159.02 26.4193C159.049 26.2874 159.101 26.1745 159.177 26.0805C159.257 26.0289 159.314 25.9583 159.347 25.8689L160.021 24.9591C160.097 24.865 160.13 24.7756 160.121 24.6908C160.149 24.5589 160.223 24.4437 160.341 24.3451C160.501 24.2419 160.619 24.1432 160.695 24.0492L160.972 23.633L161.546 22.9915L161.993 22.3637C161.993 22.3637 162.01 22.319 162.043 22.2295C162.076 22.1401 162.14 22.1332 162.234 22.2089L162.354 22.1315L162.524 21.9199L163.155 21.2078L163.496 20.7847L163.73 20.5663L163.8 20.623C163.762 20.67 163.748 20.736 163.757 20.8208C163.927 20.8024 163.96 20.713 163.857 20.5525L164.048 20.5319C164.217 20.5135 164.357 20.4126 164.466 20.2291C164.537 20.0927 164.612 19.9986 164.693 19.947C164.773 19.8954 164.832 19.8461 164.87 19.7991L165.451 19.2212C165.536 19.212 165.569 19.1226 165.551 18.9529L165.678 18.9391C165.72 18.9345 165.763 18.9299 165.805 18.9253C165.89 18.9162 165.949 18.8669 165.982 18.7774C165.982 18.7774 166.039 18.7069 166.152 18.5659L166.216 18.559L166.606 18.0017L166.67 17.9948L167.031 17.7626L167.733 17.1073L167.896 16.8321L167.946 16.698L168.009 16.6911L167.959 16.8252L168.03 16.882L168.2 16.6704C168.196 16.628 168.21 16.5621 168.243 16.4726C168.272 16.3408 168.305 16.2513 168.343 16.2043C168.423 16.1527 168.522 16.0776 168.64 15.979L168.441 16.5156C168.724 16.3562 168.875 16.1681 168.895 15.9514C168.923 15.8196 168.985 15.7915 169.079 15.8672L169.199 15.7897C169.19 15.7049 169.204 15.639 169.242 15.592C169.238 15.5496 169.233 15.5071 169.228 15.4647C169.266 15.4177 169.328 15.3896 169.412 15.3804C169.455 15.3758 169.497 15.3712 169.54 15.3666C169.62 15.315 169.705 15.3058 169.794 15.3391C169.841 15.3769 169.881 15.3511 169.915 15.2617C169.948 15.1722 169.962 15.1063 169.957 15.0639L169.937 14.873C170.017 14.8214 170.114 14.7251 170.227 14.5841C170.379 14.396 170.537 14.2716 170.702 14.2108L170.532 14.4223C170.744 14.3994 170.801 14.3289 170.702 14.2108C170.778 14.1168 170.898 14.0394 171.063 13.9786C171.224 13.8754 171.363 13.7745 171.481 13.6758C171.604 13.6196 171.741 13.4975 171.892 13.3095C171.93 13.2625 171.968 13.2154 172.005 13.1684C172.043 13.1214 172.081 13.0744 172.119 13.0274L172.834 12.4993C173.391 12.0957 173.861 11.8732 174.242 11.8318L174.815 11.7698L174.949 11.8197L175.238 12.1103C175.285 12.1481 175.29 12.1905 175.252 12.2375C175.252 12.2375 175.254 12.2587 175.259 12.3012C175.221 12.3482 175.065 12.4938 174.791 12.738L173.892 13.3504C173.854 13.3974 173.814 13.4232 173.772 13.4278C173.725 13.39 173.682 13.3946 173.644 13.4416L173.29 13.7374L173.056 13.9559L172.334 14.4203L172.164 14.6319L172.043 14.7093L172.023 14.5184L171.803 14.8641C171.736 15.043 171.673 15.0499 171.612 14.8848C171.612 14.8848 171.565 14.8469 171.471 14.7713L171.491 14.9622C171.496 15.0046 171.482 15.0705 171.448 15.16C171.411 15.207 171.371 15.2328 171.328 15.2374C171.328 15.2374 171.271 15.3079 171.158 15.4489C171.115 15.4535 171.097 15.477 171.101 15.5194L170.62 15.8291L170.329 16.118L169.848 16.4276L169.784 16.4345C169.76 16.6088 169.625 16.7521 169.38 16.8645L169.082 17.0899L168.672 17.4562C168.596 17.5503 168.558 17.5973 168.558 17.5973C168.482 17.6913 168.423 17.7406 168.381 17.7452C168.386 17.7876 168.367 17.8111 168.324 17.8157L168.338 17.943C168.211 17.9567 168.112 18.0319 168.041 18.1683C167.965 18.2623 167.887 18.3351 167.807 18.3867C167.495 18.678 167.285 18.9154 167.176 19.0988L167.112 19.1057C167.098 18.9784 167.051 18.9406 166.971 18.9922C166.929 18.9968 166.867 19.0249 166.787 19.0765C166.707 19.1281 166.692 19.194 166.744 19.2743C166.89 19.4302 166.835 19.5219 166.581 19.5495L166.453 19.5632C166.411 19.5678 166.329 19.5982 166.206 19.6544C166.126 19.706 166.095 19.8167 166.113 19.9864C166.122 20.0712 166.084 20.1182 166 20.1274C165.763 20.3246 165.553 20.562 165.369 20.8395C165.335 20.9289 165.276 20.9782 165.191 20.9874C165.149 20.992 165.081 20.9564 164.987 20.8808L164.923 20.8877C164.881 20.8923 164.86 20.8946 164.86 20.8946C164.864 20.937 164.866 20.9582 164.866 20.9582C164.829 21.0052 164.812 21.0499 164.817 21.0923C164.826 21.1772 164.811 21.2431 164.774 21.2901L164.78 21.3537C164.658 21.4099 164.537 21.4874 164.419 21.586C164.344 21.68 164.287 21.7505 164.249 21.7975L164.256 21.8612C164.086 21.8795 163.945 21.9592 163.831 22.1003C163.76 22.2367 163.706 22.3284 163.668 22.3754C163.63 22.4225 163.573 22.493 163.498 22.587C163.469 22.7188 163.391 22.7917 163.264 22.8054C163.179 22.8146 163.141 22.8616 163.15 22.9465L162.966 23.0308L162.789 23.1787C162.714 23.2727 162.659 23.3644 162.626 23.4539C162.593 23.5433 162.56 23.6327 162.526 23.7222L162.47 23.7927C162.309 23.8959 162.174 24.0392 162.066 24.2227C161.957 24.4061 161.864 24.5449 161.789 24.6389L161.208 25.2168L160.534 26.1267L159.923 27.0296C159.715 27.4814 159.537 27.8225 159.39 28.0529C159.173 28.4198 159.056 28.7328 159.041 28.9919L158.9 28.8785C158.905 28.9209 158.869 28.9891 158.794 29.0831C158.798 29.1256 158.763 29.1938 158.687 29.2878C158.649 29.3348 158.612 29.3818 158.574 29.4288C158.536 29.4758 158.543 29.5395 158.594 29.6197C158.599 29.6621 158.58 29.6856 158.538 29.6902C158.504 29.7797 158.412 29.9184 158.261 30.1064C158.185 30.2005 158.147 30.2475 158.147 30.2475C157.688 31.1556 157.444 31.6755 157.415 31.8074C157.415 31.8074 157.252 32.0826 156.925 32.6329L156.492 33.388L156.506 33.5152C156.6 33.5909 156.606 33.6545 156.526 33.7061C156.493 33.7955 156.481 33.8827 156.49 33.9675L156.37 34.0449C156.271 33.9268 156.231 33.9526 156.249 34.1223C156.121 34.5225 156.04 34.7672 156.007 34.8567L155.9 35.0613L155.858 35.2591C155.791 35.438 155.722 35.5956 155.651 35.7321C155.585 35.9109 155.535 36.0451 155.502 36.1345C155.44 36.3558 155.38 36.5983 155.323 36.862C155.223 37.1303 155.155 37.2879 155.117 37.3349C155.117 37.3349 155.079 37.3819 155.003 37.476ZM150.661 18.1833L150.584 18.0629L150.47 18.2039C150.47 18.2039 150.517 18.2418 150.611 18.3174L150.661 18.1833ZM161.797 24.123C161.882 24.1138 161.92 24.0668 161.911 23.9819L161.833 23.8616C161.838 23.904 161.802 23.9722 161.727 24.0662C161.731 24.1087 161.734 24.1299 161.734 24.1299C161.776 24.1253 161.797 24.123 161.797 24.123ZM162.141 22.5408C162.099 22.5454 162.077 22.5477 162.077 22.5477C161.992 22.5569 161.912 22.6085 161.837 22.7025C161.841 22.7449 161.865 22.7638 161.907 22.7592C161.912 22.8017 161.914 22.8229 161.914 22.8229C161.956 22.8183 161.978 22.816 161.978 22.816L162.141 22.5408ZM162.261 22.4634C162.261 22.4634 162.259 22.4422 162.254 22.3998C162.254 22.3998 162.276 22.3975 162.318 22.3929C162.233 22.4021 162.191 22.4066 162.191 22.4066L162.134 22.4772L162.261 22.4634ZM162.892 21.7513L162.815 21.631L162.645 21.8425L162.779 21.8924L162.892 21.7513ZM164.098 20.3977C164.093 20.3553 164.07 20.3364 164.027 20.341C164.103 20.2469 164.141 20.1999 164.141 20.1999L164.204 20.193L164.098 20.3977ZM166.082 18.5091C166.077 18.4667 166.054 18.4478 166.011 18.4524L166.188 18.3045L166.195 18.3681L166.082 18.5091ZM167.829 17.9981C167.697 17.9694 167.603 17.8938 167.547 17.7711L167.49 17.8416C167.533 17.8371 167.558 17.8772 167.568 17.962C167.624 18.0847 167.671 18.1225 167.709 18.0755C167.746 18.0285 167.787 18.0027 167.829 17.9981ZM167.11 17.3034L167.23 17.226L167.301 17.2828L167.244 17.3533L167.11 17.3034ZM167.999 17.7865C167.99 17.7017 167.962 17.6404 167.915 17.6025C167.877 17.6495 167.863 17.7155 167.872 17.8003C167.872 17.8003 167.874 17.8215 167.879 17.8639C167.879 17.8639 167.9 17.8616 167.942 17.857L167.999 17.7865ZM168.176 17.6386C168.214 17.5916 168.275 17.5635 168.36 17.5543L168.41 17.4202L168.29 17.4976C168.205 17.5068 168.165 17.5326 168.169 17.575L168.176 17.6386ZM169.119 16.8285L169.112 16.7648L168.935 16.9128C168.977 16.9082 169 16.9271 169.005 16.9695L169.119 16.8285ZM169.707 16.3142C169.707 16.3142 169.685 16.3165 169.643 16.3211C169.638 16.2786 169.613 16.2385 169.566 16.2007L169.466 16.469L169.536 16.5257L169.707 16.3142ZM170.833 15.4197L170.762 15.363L170.111 15.8842C170.111 15.8842 170.113 15.9054 170.118 15.9478C170.118 15.9478 170.139 15.9455 170.181 15.9409L170.833 15.4197ZM169.71 15.1551C169.748 15.1081 169.809 15.08 169.894 15.0708L169.901 15.1344L169.71 15.1551ZM170.566 14.7405L170.793 14.4584L170.411 14.4998L170.355 14.5703L170.418 14.5634L170.425 14.627L170.375 14.7612L170.566 14.7405Z" fill="black"/>
</svg>
