<?xml version="1.0" encoding="UTF-8"?>
<svg viewBox="0 0 18 18" xmlns="http://www.w3.org/2000/svg">
<path d="m9.875 7.2411l0.4419 0.44194c1.6867 1.6866 1.6735 4.4504 0.0093 6.1868l-0.0046 0.0048-2.1922 2.1922c-1.6866 1.6867-4.4504 1.6735-6.1869 0.0093l-0.0048-0.0046-0.0047-0.0047c-1.6866-1.6866-1.6734-4.4504-0.0093-6.1868l0.0046-0.0048 2.1966-2.1966 0.88388 0.88388-2.187 2.187c-1.2049 1.2621-1.1919 3.2414-0.00959 4.4289 1.2638 1.2062 3.2464 1.1915 4.4333 0.0047l2.1826-2.1826c1.2065-1.2638 1.1919-3.2466 0.00492-4.4336l-0.44194-0.44194 0.88388-0.88388z" clip-rule="evenodd" fill="#111" fill-rule="evenodd"/>
<path d="m15.188 2.8216c-1.2637-1.2062-3.2464-1.1915-4.4333-0.00469l-2.1826 2.1826c-1.2064 1.2638-1.1918 3.2466-0.0049 4.4335l0.44194 0.44194-0.88388 0.8839-0.44194-0.442c-1.6866-1.6866-1.6734-4.4504-0.0093-6.1868l0.0046-0.0048 2.1922-2.1922c1.6866-1.6866 4.4504-1.6734 6.1868-0.0093l0.0048 0.0046 0.0047 0.0047c1.6867 1.6866 1.6735 4.4504 0.0093 6.1869l-0.0046 0.0048-2.1966 2.1967-0.8839-0.8839 2.187-2.187c1.2049-1.2621 1.1919-3.2414 0.0096-4.4288z" clip-rule="evenodd" fill="#111" fill-rule="evenodd"/>
</svg>
